SplineFontDB: 3.0
FontName: font-bold
FullName: Font Bold
FamilyName: font
Weight: Bold
Copyright: 
Version: 001.001
ItalicAngle: 0
UnderlinePosition: 0
UnderlineWidth: 80
Ascent: 760
Descent: 240
sfntRevision: 0x00000000
LayerCount: 2
Layer: 0 0 "Back"  1
Layer: 1 0 "Fore"  0
XUID: [1021 497 -742336000 9780331]
UniqueID: 5088064
FSType: 0
OS2Version: 2
OS2_WeightWidthSlopeOnly: 0
OS2_UseTypoMetrics: 1
CreationTime: 1190016909
ModificationTime: 1411267960
PfmFamily: 17
TTFWeight: 700
TTFWidth: 5
LineGap: 200
VLineGap: 0
Panose: 2 0 8 3 0 0 0 0 0 0
OS2TypoAscent: 760
OS2TypoAOffset: 0
OS2TypoDescent: -240
OS2TypoDOffset: 0
OS2TypoLinegap: 200
OS2WinAscent: 900
OS2WinAOffset: 0
OS2WinDescent: 300
OS2WinDOffset: 0
HheadAscent: 760
HheadAOffset: 0
HheadDescent: -240
HheadDOffset: 0
OS2SubXSize: 700
OS2SubYSize: 650
OS2SubXOff: 0
OS2SubYOff: 140
OS2SupXSize: 700
OS2SupYSize: 650
OS2SupXOff: 0
OS2SupYOff: 477
OS2StrikeYSize: 50
OS2StrikeYPos: 250
OS2Vendor: '    '
OS2CodePages: 20000111.40000000
OS2UnicodeRanges: 800000af.5000204a.00000000.00000000
Lookup: 1 0 0 "'smcp' Lowercase to Small Capitals in Latin lookup 0"  {"'smcp' Lowercase to Small Capitals in Latin lookup 0 subtable"  } ['smcp' ('latn' <'dflt' > ) ]
Lookup: 1 0 0 "'c2sc' Capitals to Small Capitals in Latin lookup 1"  {"'c2sc' Capitals to Small Capitals in Latin lookup 1 subtable"  } ['c2sc' ('latn' <'dflt' > ) ]
Lookup: 1 0 0 "'tnum' Tabular Numbers in Latin lookup 2"  {"'tnum' Tabular Numbers in Latin lookup 2 subtable"  } ['tnum' ('latn' <'dflt' > ) ]
Lookup: 1 0 0 "'pnum' Proportional Numbers in Latin lookup 3"  {"'pnum' Proportional Numbers in Latin lookup 3 subtable"  } ['pnum' ('latn' <'dflt' > ) ]
Lookup: 1 0 0 "'onum' Oldstyle Figures in Latin lookup 4"  {"'onum' Oldstyle Figures in Latin lookup 4 subtable" ("oldstyle" ) } ['onum' ('latn' <'dflt' > ) ]
Lookup: 1 0 0 "'lnum' Lining Figures in Latin lookup 5"  {"'lnum' Lining Figures in Latin lookup 5 subtable"  } ['lnum' ('latn' <'dflt' > ) ]

StartChar: .notdef
Encoding: 65536 -1 0
Width: 620
Flags: MW
HStem: -15 44<235.5 382 235.5 392.5> 105 54<271 330 271 330> 437 40<294 319.5> 556 44<236 384>
VStem: 3 43<221.5 363 221.5 376> 271 59<105 159 105 159 213 223 223 236> 359 62<385.5 406.5> 573 44<222 363>
LayerCount: 2
Fore
SplineSet
306 -15 m 0
 141 -15 3 126 3 292 c 0
 3 460 141 600 310 600 c 0
 478 600 617 461 617 293 c 0
 617 124 479 -15 306 -15 c 0
306 29 m 0
 458 29 573 151 573 293 c 0
 573 433 458 556 310 556 c 0
 162 556 46 434 46 292 c 0
 46 151 165 29 306 29 c 0
330 213 m 1
 271 213 l 1
 271 223 l 2
 271 251 283 278 306 305 c 2
 322 322 l 2
 346 350 359 371 359 391 c 0
 359 422 339 437 300 437 c 0
 276 437 249 431 220 418 c 1
 220 464 l 1
 250 473 280 477 308 477 c 0
 377 477 421 446 421 397 c 0
 421 374 408 350 381 324 c 2
 366 310 l 2
 341 287 330 262 330 236 c 2
 330 213 l 1
330 105 m 1
 271 105 l 1
 271 159 l 1
 330 159 l 1
 330 105 l 1
EndSplineSet
EndChar

StartChar: eth
Encoding: 240 240 1
Width: 597
Flags: MW
HStem: -16 56 462 61 747 54
VStem: 33 135<212.5 301 212.5 334> 426 137<370 371 370 389>
LayerCount: 2
Fore
SplineSet
563 327 m 0
 563 207 532 113 492 68 c 0
 442 12 371 -16 291 -16 c 0
 139 -16 33 83 33 245 c 0
 33 423 135 523 301 523 c 0
 336 523 376 513 417 497 c 1
 410 577 372 643 307 688 c 1
 246 605 l 1
 202 637 l 1
 256 714 l 1
 219 733 169 746 114 746 c 2
 92 746 l 1
 92 796 l 1
 111 800 125 801 141 801 c 0
 192 801 251 797 302 778 c 1
 357 851 l 1
 401 820 l 1
 355 757 l 1
 528 674 563 523 563 327 c 0
426 371 m 2
 426 370 l 2
 426 408 424 418 422 447 c 1
 379 460 348 463 304 463 c 0
 187 463 168 348 168 254 c 0
 168 171 196 39 298 39 c 0
 429 39 426 228 426 371 c 2
EndSplineSet
EndChar

StartChar: Lslash
Encoding: 321 321 2
Width: 534
Flags: MW
HStem: 0 50<247 417 247 514>
VStem: 113 135
LayerCount: 2
Fore
SplineSet
531 179 m 1
 514 0 l 1
 22 0 l 1
 22 29 l 1
 113 68 l 1
 113 345 l 1
 24 301 l 1
 24 366 l 1
 113 410 l 1
 113 638 l 1
 22 678 l 1
 22 708 l 1
 337 708 l 1
 337 678 l 1
 247 639 l 1
 247 478 l 1
 352 530 l 1
 352 466 l 1
 247 413 l 1
 247 50 l 1
 417 50 l 1
 483 179 l 1
 531 179 l 1
EndSplineSet
Substitution2: "'c2sc' Capitals to Small Capitals in Latin lookup 1 subtable" lslash.smcp
Position2: "'cpsp' Capital Spacing in Latin lookup 0 subtable" dx=7 dy=0 dh=14 dv=0
EndChar

StartChar: lslash
Encoding: 322 322 3
Width: 354
Flags: MW
HStem: 0 20 729 20G<251 251>
VStem: 122 130
LayerCount: 2
Fore
SplineSet
341 0 m 1
 32 0 l 1
 32 29 l 1
 122 69 l 1
 122 364 l 1
 26 315 l 1
 26 379 l 1
 122 428 l 1
 122 648 l 1
 29 675 l 1
 29 703 l 1
 251 749 l 1
 251 494 l 1
 346 543 l 1
 346 479 l 1
 251 430 l 1
 251 69 l 1
 341 30 l 1
 341 0 l 1
EndSplineSet
Substitution2: "'smcp' Lowercase to Small Capitals in Latin lookup 0 subtable" lslash.smcp
EndChar

StartChar: Scaron
Encoding: 352 352 4
Width: 560
Flags: MW
HStem: -8 57<242.5 254.5 216.5 304> 664 54<277.5 299.5 222 327>
VStem: 54 122 371 135<157.5 167.5>
LayerCount: 2
Fore
SplineSet
506 189 m 0
 506 126 479 74 433 40 c 0
 393 9 337 -8 271 -8 c 0
 214 -8 163 1 123 10 c 0
 81 20 51 28 51 28 c 1
 51 193 l 1
 99 193 l 1
 153 56 l 1
 184 52 205 49 228 49 c 0
 281 49 314 59 338 80 c 0
 359 99 371 125 371 156 c 0
 371 179 365 201 353 219 c 0
 340 237 322 252 284 278 c 2
 181 346 l 2
 128 382 114 394 97 414 c 0
 69 448 53 485 53 526 c 0
 53 652 161 718 283 718 c 0
 316 718 360 714 415 702 c 0
 456 693 485 686 485 686 c 1
 485 525 l 1
 436 525 l 1
 384 658 l 1
 352 662 338 664 316 664 c 0
 239 664 175 641 175 567 c 0
 175 516 202 495 263 455 c 2
 370 384 l 2
 431 343 450 327 470 301 c 0
 493 271 506 232 506 189 c 0
476 934 m 1
 295 758 l 1
 111 934 l 1
 194 934 l 1
 295 870 l 1
 392 934 l 1
 476 934 l 1
EndSplineSet
Substitution2: "'c2sc' Capitals to Small Capitals in Latin lookup 1 subtable" scaron.smcp
Position2: "'cpsp' Capital Spacing in Latin lookup 0 subtable" dx=7 dy=0 dh=14 dv=0
EndChar

StartChar: scaron
Encoding: 353 353 5
Width: 457
Flags: MW
HStem: -11 53<207 218.5 188 274.5> 475 50<220 239 172 252>
VStem: 48 113 293 114<102.5 129>
LayerCount: 2
Fore
SplineSet
407 149 m 0
 407 56 329 -11 220 -11 c 0
 194 -11 158 -7 118 2 c 0
 96 6 57 17 45 20 c 1
 45 141 l 1
 110 141 l 1
 126 109 142 78 159 46 c 1
 174 42 181 42 195 42 c 0
 242 42 293 55 293 113 c 0
 293 145 281 159 238 185 c 2
 146 241 l 2
 104 266 86 280 72 301 c 0
 56 323 47 348 47 376 c 0
 47 464 119 525 225 525 c 0
 253 525 294 519 327 513 c 0
 349 508 381 500 391 498 c 1
 391 386 l 1
 326 386 l 1
 281 472 l 1
 268 474 258 475 246 475 c 0
 194 475 160 451 160 412 c 0
 160 384 176 367 220 342 c 2
 308 291 l 2
 349 267 371 249 386 224 c 0
 399 202 407 177 407 149 c 0
414 752 m 1
 233 576 l 1
 49 752 l 1
 132 752 l 1
 233 688 l 1
 330 752 l 1
 414 752 l 1
EndSplineSet
Substitution2: "'smcp' Lowercase to Small Capitals in Latin lookup 0 subtable" scaron.smcp
EndChar

StartChar: Yacute
Encoding: 221 221 6
Width: 645
Flags: MW
HStem: 0 20
VStem: 253 135 421 239
LayerCount: 2
Fore
SplineSet
661 678 m 1
 579 639 l 1
 388 355 l 1
 388 69 l 1
 503 30 l 1
 503 0 l 1
 138 0 l 1
 138 29 l 1
 254 69 l 1
 254 325 l 1
 55 638 l 1
 -27 678 l 1
 -27 708 l 1
 283 708 l 1
 283 678 l 1
 208 640 l 1
 354 407 l 1
 495 640 l 1
 421 678 l 1
 421 708 l 1
 661 708 l 1
 661 678 l 1
546 912 m 1
 331 756 l 1
 260 756 l 1
 383 912 l 1
 546 912 l 1
EndSplineSet
Substitution2: "'c2sc' Capitals to Small Capitals in Latin lookup 1 subtable" yacute.smcp
Position2: "'cpsp' Capital Spacing in Latin lookup 0 subtable" dx=7 dy=0 dh=14 dv=0
EndChar

StartChar: yacute
Encoding: 253 253 7
Width: 537
Flags: MW
HStem: -232 114<63.5 77 -4 124.5>
VStem: -18 272<485 514 485 514 485 514> 344 205<485 485 485 514 485 514>
LayerCount: 2
Fore
SplineSet
549 485 m 1
 489 446 l 1
 268 -87 l 2
 225 -191 172 -232 77 -232 c 0
 50 -232 23 -229 -4 -223 c 1
 -4 -118 l 1
 77 -118 l 1
 103 -185 l 1
 156 -175 179 -141 204 -78 c 2
 236 0 l 1
 47 449 l 1
 -18 484 l 1
 -18 514 l 1
 254 514 l 1
 254 485 l 1
 183 450 l 1
 268 224 l 2
 290 166 288 173 299 136 c 1
 414 446 l 1
 344 484 l 1
 344 514 l 1
 549 514 l 1
 549 485 l 1
480 730 m 1
 265 574 l 1
 195 574 l 1
 317 730 l 1
 480 730 l 1
EndSplineSet
Substitution2: "'smcp' Lowercase to Small Capitals in Latin lookup 0 subtable" yacute.smcp
EndChar

StartChar: Thorn
Encoding: 222 222 8
Width: 600
Flags: MW
HStem: 193 48 556 45<254 311 254 323>
VStem: 120 135 453 140<350 450.5>
LayerCount: 2
Fore
SplineSet
593 404 m 0
 593 263 469 193 325 193 c 2
 254 193 l 1
 254 69 l 1
 355 30 l 1
 355 0 l 1
 30 0 l 1
 30 29 l 1
 120 69 l 1
 120 638 l 1
 30 677 l 1
 30 707 l 1
 344 707 l 1
 344 677 l 1
 254 638 l 1
 254 601 l 1
 323 601 l 2
 459 601 593 567 593 404 c 0
453 403 m 0
 453 498 409 556 311 556 c 2
 254 556 l 1
 254 240 l 1
 291 240 l 2
 401 240 453 297 453 403 c 0
EndSplineSet
Substitution2: "'c2sc' Capitals to Small Capitals in Latin lookup 1 subtable" thorn.smcp
Position2: "'cpsp' Capital Spacing in Latin lookup 0 subtable" dx=7 dy=0 dh=14 dv=0
EndChar

StartChar: thorn
Encoding: 254 254 9
Width: 631
Flags: MW
HStem: -11 54 729 20G<234 234>
VStem: 105 130 466 135<218 328.5>
LayerCount: 2
Fore
SplineSet
601 281 m 0
 601 114 475 -10 303 -10 c 0
 276 -10 261 -10 234 -4 c 1
 234 -167 l 1
 345 -205 l 1
 345 -235 l 1
 15 -235 l 1
 15 -205 l 1
 105 -168 l 1
 105 649 l 1
 15 677 l 1
 15 706 l 1
 234 749 l 1
 234 468 l 1
 255 478 276 487 303 498 c 0
 358 520 382 525 404 525 c 0
 516 525 601 417 601 281 c 0
466 254 m 0
 466 403 394 446 312 446 c 0
 284 446 263 442 234 435 c 1
 234 46 l 1
 253 44 270 43 285 43 c 0
 336 43 373 58 403 86 c 0
 442 123 466 182 466 254 c 0
EndSplineSet
Substitution2: "'smcp' Lowercase to Small Capitals in Latin lookup 0 subtable" thorn.smcp
EndChar

StartChar: Zcaron
Encoding: 381 381 10
Width: 611
Flags: MW
HStem: 0 56 655 53<157 419 157 157>
LayerCount: 2
Fore
SplineSet
582 193 m 1
 565 0 l 1
 27 0 l 1
 27 42 l 1
 419 655 l 1
 157 655 l 1
 107 522 l 1
 57 522 l 1
 57 708 l 1
 581 708 l 1
 581 666 l 1
 190 55 l 1
 468 55 l 1
 532 193 l 1
 582 193 l 1
504 934 m 1
 323 758 l 1
 139 934 l 1
 222 934 l 1
 323 870 l 1
 421 934 l 1
 504 934 l 1
EndSplineSet
Substitution2: "'c2sc' Capitals to Small Capitals in Latin lookup 1 subtable" zcaron.smcp
Position2: "'cpsp' Capital Spacing in Latin lookup 0 subtable" dx=7 dy=0 dh=14 dv=0
EndChar

StartChar: zcaron
Encoding: 382 382 11
Width: 518
Flags: MW
HStem: 0 50<182 366 182 473> 464 50<158 323 158 158>
LayerCount: 2
Fore
SplineSet
473 0 m 1
 35 0 l 1
 35 43 l 1
 323 464 l 1
 158 464 l 1
 106 363 l 1
 56 363 l 1
 56 514 l 1
 473 514 l 1
 473 472 l 1
 182 50 l 1
 366 50 l 1
 424 161 l 1
 473 161 l 1
 473 0 l 1
457 752 m 1
 276 576 l 1
 92 752 l 1
 175 752 l 1
 276 688 l 1
 373 752 l 1
 457 752 l 1
EndSplineSet
Substitution2: "'smcp' Lowercase to Small Capitals in Latin lookup 0 subtable" zcaron.smcp
EndChar

StartChar: onehalf
Encoding: 189 189 12
Width: 910
Flags: MW
HStem: 0 68<665 824 665 881> 370 43<678 774>
VStem: 19 220 566 315<0 27 0 27>
LayerCount: 2
Fore
SplineSet
892 127 m 1
 881 0 l 1
 566 0 l 1
 566 27 l 1
 581 41 614 72 629 86 c 0
 685 138 715 171 733 195 c 0
 759 230 771 262 771 297 c 0
 771 348 735 370 686 370 c 0
 670 370 660 369 647 366 c 1
 613 285 l 1
 578 285 l 1
 578 391 l 1
 594 394 613 399 630 402 c 0
 679 411 704 413 731 413 c 0
 817 413 879 368 879 307 c 0
 879 251 846 216 794 170 c 0
 753 133 725 112 665 68 c 1
 824 68 l 1
 857 127 l 1
 892 127 l 1
708 690 m 1
 280 -16 l 1
 197 -16 l 1
 624 690 l 1
 708 690 l 1
314 276 m 1
 64 276 l 1
 64 303 l 1
 139 327 l 1
 139 603 l 1
 19 582 l 1
 19 613 l 1
 104 636 153 657 195 689 c 1
 238 689 l 1
 238 327 l 1
 314 303 l 1
 314 276 l 1
EndSplineSet
Ligature2: "Ligature Substitution lookup 11 subtable" one fraction two
Ligature2: "Ligature Substitution lookup 11 subtable" one slash two
EndChar

StartChar: onequarter
Encoding: 188 188 13
Width: 910
Flags: MW
HStem: -16 20 110 54<590 730 590 730 817 882>
VStem: 25 220 730 87<51 110 51 110 51 110 164 322 322 322>
LayerCount: 2
Fore
SplineSet
882 110 m 1
 817 110 l 1
 817 51 l 1
 875 27 l 1
 875 0 l 1
 668 0 l 1
 668 26 l 1
 730 50 l 1
 730 110 l 1
 521 110 l 1
 521 146 l 1
 761 413 l 1
 817 413 l 1
 817 164 l 1
 882 164 l 1
 882 110 l 1
713 690 m 1
 286 -16 l 1
 203 -16 l 1
 630 690 l 1
 713 690 l 1
320 276 m 1
 70 276 l 1
 70 303 l 1
 145 327 l 1
 145 603 l 1
 25 582 l 1
 25 613 l 1
 110 636 158 657 201 689 c 1
 244 689 l 1
 244 327 l 1
 320 303 l 1
 320 276 l 1
730 164 m 1
 730 322 l 1
 706 296 614 189 590 164 c 1
 730 164 l 1
EndSplineSet
Ligature2: "Ligature Substitution lookup 11 subtable" one fraction four
Ligature2: "Ligature Substitution lookup 11 subtable" one slash four
EndChar

StartChar: onesuperior
Encoding: 185 185 14
Width: 373
Flags: MW
VStem: 27 220
LayerCount: 2
Fore
SplineSet
322 276 m 1
 72 276 l 1
 72 303 l 1
 147 327 l 1
 147 603 l 1
 27 582 l 1
 27 613 l 1
 112 636 160 657 203 689 c 1
 246 689 l 1
 246 327 l 1
 322 303 l 1
 322 276 l 1
EndSplineSet
EndChar

StartChar: threequarters
Encoding: 190 190 15
Width: 910
Flags: MW
HStem: -16 20 110 54<586 725 586 725 812 878> 274 41<131 148.5 114.5 209.5> 471 36<117 133 133 145 117 133> 650 40
VStem: 220 103 726 87
LayerCount: 2
Fore
SplineSet
337 393 m 0
 337 323 263 274 156 274 c 0
 106 274 55 285 15 299 c 1
 15 402 l 1
 50 402 l 1
 87 316 l 1
 102 315 107 315 122 315 c 0
 175 315 233 327 233 392 c 0
 233 444 202 471 145 471 c 2
 117 471 l 1
 117 507 l 1
 133 507 l 2
 191 507 219 531 219 581 c 0
 219 628 192 649 136 649 c 0
 118 649 106 648 88 646 c 1
 52 567 l 1
 17 567 l 1
 17 670 l 1
 33 672 46 675 75 679 c 0
 126 688 149 690 174 690 c 0
 267 690 323 653 323 594 c 0
 323 542 286 509 207 493 c 1
 270 485 337 465 337 393 c 0
725 690 m 1
 297 -16 l 1
 214 -16 l 1
 641 690 l 1
 725 690 l 1
878 110 m 1
 812 110 l 1
 812 51 l 1
 871 27 l 1
 871 0 l 1
 664 0 l 1
 664 26 l 1
 725 50 l 1
 725 110 l 1
 517 110 l 1
 517 146 l 1
 756 413 l 1
 812 413 l 1
 812 164 l 1
 878 164 l 1
 878 110 l 1
725 164 m 1
 725 322 l 1
 711 304 608 186 586 164 c 1
 725 164 l 1
EndSplineSet
Ligature2: "Ligature Substitution lookup 11 subtable" three fraction four
Ligature2: "Ligature Substitution lookup 11 subtable" three slash four
EndChar

StartChar: threesuperior
Encoding: 179 179 16
Width: 373
Flags: MW
HStem: 274 41<137 154.5 120.5 215> 471 36<123 139 139 150 123 139> 650 40
VStem: 225 103<568 604.5>
LayerCount: 2
Fore
SplineSet
342 393 m 0
 342 323 268 274 162 274 c 0
 112 274 61 285 21 299 c 1
 21 402 l 1
 56 402 l 1
 92 316 l 1
 108 315 113 315 128 315 c 0
 181 315 239 327 239 392 c 0
 239 444 207 471 150 471 c 2
 123 471 l 1
 123 507 l 1
 139 507 l 2
 197 507 225 531 225 581 c 0
 225 628 198 649 141 649 c 0
 124 649 111 648 94 646 c 1
 58 567 l 1
 23 567 l 1
 23 670 l 1
 39 672 51 675 81 679 c 0
 132 688 155 690 180 690 c 0
 273 690 328 653 328 594 c 0
 328 542 291 509 213 493 c 1
 276 485 342 465 342 393 c 0
EndSplineSet
EndChar

StartChar: twosuperior
Encoding: 178 178 17
Width: 372
Flags: MW
HStem: 275 68<120 279 120 335> 645 43<133 228>
VStem: 21 315
LayerCount: 2
Fore
SplineSet
347 402 m 1
 335 275 l 1
 20 275 l 1
 20 302 l 1
 35 316 69 347 83 361 c 0
 139 414 170 446 187 470 c 0
 213 506 225 537 225 572 c 0
 225 623 189 645 141 645 c 0
 125 645 114 644 101 641 c 1
 68 560 l 1
 33 560 l 1
 33 666 l 1
 49 669 68 674 84 677 c 0
 134 686 158 688 185 688 c 0
 271 688 334 643 334 582 c 0
 334 526 300 491 248 445 c 0
 207 409 180 388 120 343 c 1
 279 343 l 1
 311 402 l 1
 347 402 l 1
EndSplineSet
EndChar

StartChar: brokenbar
Encoding: 166 166 18
Width: 227
Flags: MW
HStem: -127 253 380 253<62 165>
VStem: 62 103<-127 127 380 633>
LayerCount: 2
Fore
SplineSet
165 380 m 1
 62 379 l 1
 62 633 l 1
 165 633 l 1
 165 380 l 1
165 -127 m 1
 62 -127 l 1
 62 127 l 1
 165 127 l 1
 165 -127 l 1
EndSplineSet
EndChar

StartChar: minus
Encoding: 8722 8722 19
Width: 579
Flags: MW
HStem: 293 101<26 552 26 552>
LayerCount: 2
Fore
SplineSet
552 293 m 1
 26 293 l 1
 26 394 l 1
 552 394 l 1
 552 293 l 1
EndSplineSet
EndChar

StartChar: multiply
Encoding: 215 215 20
Width: 579
Flags: W
LayerCount: 2
Fore
SplineSet
544 151 m 1
 472 78 l 1
 289 261 l 1
 107 78 l 1
 34 151 l 1
 217 333 l 1
 34 515 l 1
 107 588 l 1
 289 405 l 1
 471 588 l 1
 544 515 l 1
 361 333 l 1
 544 151 l 1
EndSplineSet
EndChar

StartChar: exclam
Encoding: 33 33 22
Width: 282
Flags: MW
HStem: -8 122<112 161 111.5 162>
VStem: 61 151
LayerCount: 2
Fore
SplineSet
219 707 m 1
 162 168 l 1
 111 168 l 1
 53 707 l 1
 219 707 l 1
211 54 m 0
 211 14 186 -8 138 -8 c 0
 86 -8 60 11 60 51 c 0
 60 92 86 114 137 114 c 0
 185 114 211 94 211 54 c 0
EndSplineSet
EndChar

StartChar: quotedbl
Encoding: 34 34 23
Width: 375
Flags: MW
HStem: 469 250
VStem: 53 105 218 105<671 685.5 671 686>
LayerCount: 2
Fore
SplineSet
157 671 m 0
 157 662 157 657 154 638 c 0
 144 548 142 557 125 468 c 1
 85 468 l 1
 56 638 l 2
 54 652 52 664 52 672 c 0
 52 700 73 718 105 718 c 0
 137 718 157 700 157 671 c 0
323 671 m 1
 322 671 l 1
 322 662 322 657 319 638 c 0
 309 548 308 557 291 468 c 1
 250 468 l 1
 222 638 l 2
 219 652 218 664 218 672 c 0
 218 700 239 718 270 718 c 0
 302 718 323 700 323 671 c 1
EndSplineSet
EndChar

StartChar: numbersign
Encoding: 35 35 24
Width: 631
Flags: MW
HStem: 195 73<44 135 30 149 239 350 454 545> 406 73<86 176 71 191 281 391 496 586>
LayerCount: 2
Fore
SplineSet
601 479 m 1
 586 406 l 1
 481 406 l 1
 454 268 l 1
 559 268 l 1
 545 195 l 1
 440 195 l 1
 402 0 l 1
 312 0 l 1
 350 195 l 1
 225 195 l 1
 187 0 l 1
 97 0 l 1
 135 195 l 1
 30 195 l 1
 44 268 l 1
 149 268 l 1
 176 406 l 1
 71 406 l 1
 86 479 l 1
 191 479 l 1
 229 675 l 1
 319 675 l 1
 281 479 l 1
 406 479 l 1
 444 675 l 1
 534 675 l 1
 496 479 l 1
 601 479 l 1
391 406 m 1
 266 406 l 1
 239 268 l 1
 364 268 l 1
 391 406 l 1
EndSplineSet
EndChar

StartChar: dollar
Encoding: 36 36 25
Width: 568
Flags: MW
HStem: -12 53<242 260 242 311> 629 51<311 340> 727 20G<260 311 311 311>
VStem: 67 117<511 549> 260 51<-83 -12 -83 -12 49 255 435 621 621 621 680 747> 388 130<142.5 156.5>
LayerCount: 2
Fore
SplineSet
518 172 m 0
 518 113 492 66 446 33 c 0
 411 8 365 -8 311 -12 c 1
 311 -83 l 1
 260 -83 l 1
 260 -12 l 1
 226 -10 183 -5 140 3 c 0
 88 14 77 18 65 20 c 1
 65 176 l 1
 112 176 l 1
 166 47 l 1
 196 42 218 41 242 41 c 0
 248 41 254 41 260 41 c 1
 260 287 l 1
 195 328 l 2
 140 362 125 375 108 396 c 0
 82 428 67 462 67 499 c 0
 67 599 149 667 260 678 c 1
 260 747 l 1
 311 747 l 1
 311 680 l 1
 341 679 378 675 424 665 c 0
 449 660 480 653 497 649 c 1
 497 499 l 1
 449 499 l 1
 397 623 l 1
 366 627 351 629 329 629 c 0
 323 629 317 629 311 628 c 1
 311 403 l 1
 382 358 l 2
 444 319 463 305 483 280 c 0
 506 251 518 213 518 172 c 0
260 621 m 1
 217 610 184 585 184 535 c 0
 184 487 213 465 260 435 c 1
 260 621 l 1
388 146 m 0
 388 167 382 189 370 206 c 0
 356 225 332 241 311 255 c 1
 311 49 l 1
 327 53 341 60 352 69 c 0
 376 87 388 114 388 146 c 0
EndSplineSet
EndChar

StartChar: percent
Encoding: 37 37 26
Width: 726
Flags: MW
HStem: -9 58<502 553.5 502 579.5> 258 58<502.5 554.5> 379 58<170.5 222 170.5 248.5> 647 57<171 223>
VStem: 30 84<508.5 574.5 508.5 590> 362 84<120 185.5 120 201.5> 612 84<121 186.5>
LayerCount: 2
Fore
SplineSet
364 544 m 0
 364 445 299 379 198 379 c 0
 95 379 30 441 30 539 c 0
 30 641 94 704 196 704 c 0
 300 704 364 643 364 544 c 0
280 542 m 0
 280 608 249 647 197 647 c 0
 145 647 114 608 114 541 c 0
 114 476 145 437 196 437 c 0
 248 437 280 477 280 542 c 0
664 700 m 1
 151 0 l 1
 71 0 l 1
 584 700 l 1
 664 700 l 1
696 156 m 0
 696 57 630 -9 529 -9 c 0
 426 -9 362 53 362 151 c 0
 362 252 425 316 528 316 c 0
 631 316 696 255 696 156 c 0
612 154 m 0
 612 219 581 258 528 258 c 0
 477 258 446 219 446 152 c 0
 446 88 477 49 527 49 c 0
 580 49 612 88 612 154 c 0
EndSplineSet
Ligature2: "Ligature Substitution lookup 12 subtable" zero fraction zero
Ligature2: "Ligature Substitution lookup 12 subtable" zero slash zero
EndChar

StartChar: ampersand
Encoding: 38 38 27
Width: 741
Flags: MW
HStem: -8 61<269.5 325> 630 53<262.5 309.5>
VStem: 33 130 361 100 555 87
LayerCount: 2
Fore
SplineSet
729 374 m 1
 642 337 l 1
 642 331 644 307 642 303 c 0
 641 217 622 169 568 109 c 1
 606 68 l 1
 692 30 l 1
 692 0 l 1
 505 0 l 1
 473 37 l 1
 411 5 359 -8 291 -8 c 0
 137 -8 32 66 32 177 c 0
 32 261 93 310 183 350 c 1
 169 366 155 381 149 388 c 0
 111 433 96 471 96 519 c 0
 96 620 170 683 289 683 c 0
 393 683 460 630 460 546 c 0
 460 462 406 411 324 373 c 1
 523 156 l 1
 546 194 555 232 554 287 c 2
 554 287 554 332 554 336 c 2
 470 373 l 1
 470 404 l 1
 729 404 l 1
 729 374 l 1
360 549 m 1
 361 548 l 1
 361 600 333 630 286 630 c 0
 239 630 209 600 209 549 c 0
 209 510 226 477 266 435 c 2
 288 412 l 1
 310 429 321 441 332 456 c 0
 350 483 360 516 360 549 c 1
435 77 m 1
 216 313 l 1
 179 276 162 241 162 195 c 0
 162 107 221 53 318 53 c 0
 362 53 404 61 435 77 c 1
EndSplineSet
EndChar

StartChar: quotesingle
Encoding: 39 39 28
Width: 210
Flags: MW
HStem: 469 250
VStem: 53 105
LayerCount: 2
Fore
SplineSet
157 671 m 0
 157 662 157 657 154 638 c 0
 144 548 142 557 125 468 c 1
 85 468 l 1
 56 638 l 2
 54 652 52 664 52 672 c 0
 52 700 73 718 105 718 c 0
 137 718 157 700 157 671 c 0
EndSplineSet
EndChar

StartChar: parenleft
Encoding: 40 40 29
Width: 291
Flags: MW
HStem: -235 20 729 20G<212 212>
VStem: 31 119
LayerCount: 2
Fore
SplineSet
253 -209 m 1
 212 -235 l 1
 87 -98 30 58 30 258 c 0
 30 461 88 616 212 749 c 1
 253 725 l 1
 163 597 149 403 149 253 c 0
 149 98 162 -78 253 -209 c 1
EndSplineSet
EndChar

StartChar: parenright
Encoding: 41 41 30
Width: 291
Flags: MW
HStem: -235 20
VStem: 136 119
LayerCount: 2
Fore
SplineSet
254 256 m 0
 254 53 196 -101 72 -235 c 1
 30 -211 l 1
 121 -84 135 112 135 261 c 0
 135 415 121 594 30 723 c 1
 71 750 l 1
 200 609 254 448 254 256 c 0
EndSplineSet
EndChar

StartChar: asterisk
Encoding: 42 42 31
Width: 366
Flags: MW
HStem: 519 55<17 17>
LayerCount: 2
Fore
SplineSet
353 519 m 1
 227 529 l 1
 329 451 l 1
 289 408 l 1
 202 506 l 1
 216 384 l 1
 153 384 l 1
 171 507 l 1
 81 408 l 1
 41 451 l 1
 144 529 l 1
 17 519 l 1
 17 574 l 1
 143 562 l 1
 38 644 l 1
 81 688 l 1
 171 584 l 1
 153 709 l 1
 216 709 l 1
 202 585 l 1
 289 685 l 1
 329 644 l 1
 227 562 l 1
 353 574 l 1
 353 519 l 1
EndSplineSet
EndChar

StartChar: plus
Encoding: 43 43 32
Width: 550
Flags: MW
HStem: 299 94<323 530 323 530>
VStem: 227 96<80 298 298 298 80 393 393 590>
LayerCount: 2
Fore
SplineSet
530 299 m 1
 323 299 l 1
 323 80 l 1
 227 80 l 1
 227 298 l 1
 20 298 l 1
 20 392 l 1
 227 392 l 1
 227 590 l 1
 323 590 l 1
 323 393 l 1
 530 393 l 1
 530 299 l 1
EndSplineSet
EndChar

StartChar: comma
Encoding: 44 44 33
Width: 292
Flags: MW
VStem: 139 88
LayerCount: 2
Fore
SplineSet
227 34 m 0
 227 -19 206 -60 168 -87 c 0
 147 -101 125 -111 88 -121 c 1
 71 -78 l 1
 121 -57 137 -38 139 5 c 0
 136 6 125 4 123 6 c 0
 85 10 65 30 65 63 c 0
 65 101 94 127 140 127 c 0
 196 127 227 94 227 34 c 0
EndSplineSet
EndChar

StartChar: hyphen
Encoding: 45 45 34
Width: 269
Flags: MW
HStem: 230 97
VStem: 10 249<230 230 230 326 230 326>
LayerCount: 2
Fore
SplineSet
259 230 m 1
 10 229 l 1
 10 326 l 1
 259 326 l 1
 259 230 l 1
EndSplineSet
EndChar

StartChar: period
Encoding: 46 46 35
Width: 276
Flags: MW
HStem: -11 132
VStem: 63 151
LayerCount: 2
Fore
SplineSet
213 57 m 0
 213 9 191 -11 139 -11 c 0
 85 -11 62 9 62 55 c 0
 62 101 86 122 138 122 c 0
 189 122 213 101 213 57 c 0
EndSplineSet
EndChar

StartChar: slash
Encoding: 47 47 36
Width: 260
Flags: W
LayerCount: 2
Fore
SplineSet
260 756 m 1
 72 -244 l 1
 0 -244 l 1
 189 756 l 1
 260 756 l 1
EndSplineSet
EndChar

StartChar: zero
Encoding: 48 48 37
Width: 579
Flags: MW
HStem: -16 56<237 349.5 237 366.5> 628 58<229 352.5>
VStem: 34 139 407 139<291 374>
LayerCount: 2
Fore
SplineSet
546 345 m 0
 546 119 449 -16 284 -16 c 0
 91 -16 34 157 34 324 c 0
 34 553 131 686 299 686 c 0
 456 686 546 561 546 345 c 0
407 333 m 0
 407 415 413 628 292 628 c 0
 166 628 172 413 172 329 c 0
 172 190 187 40 287 40 c 0
 412 40 407 249 407 333 c 0
EndSplineSet
Substitution2: "'onum' Oldstyle Figures in Latin lookup 4 subtable" zero.osfprop
Substitution2: "'pnum' Proportional Numbers in Latin lookup 3 subtable" zero.osfprop
EndChar

StartChar: one
Encoding: 49 49 38
Width: 579
Flags: MW
HStem: 0 20
VStem: 242 135
LayerCount: 2
Fore
SplineSet
491 0 m 1
 128 0 l 1
 128 29 l 1
 242 69 l 1
 242 556 l 1
 57 521 l 1
 57 557 l 1
 117 575 171 595 217 617 c 0
 257 636 287 655 322 683 c 1
 376 683 l 1
 376 69 l 1
 491 30 l 1
 491 0 l 1
EndSplineSet
Substitution2: "'onum' Oldstyle Figures in Latin lookup 4 subtable" one.osfprop
Substitution2: "'pnum' Proportional Numbers in Latin lookup 3 subtable" one.osfprop
EndChar

StartChar: two
Encoding: 50 50 39
Width: 579
Flags: MW
HStem: 0 104 627 56
VStem: 352 148
LayerCount: 2
Fore
SplineSet
521 204 m 1
 505 0 l 1
 36 0 l 1
 36 43 l 1
 70 78 104 112 138 146 c 0
 215 225 270 287 298 330 c 0
 335 387 353 436 353 491 c 0
 353 579 305 628 219 628 c 0
 195 628 179 626 156 621 c 1
 108 490 l 1
 59 490 l 1
 59 649 l 1
 59 649 96 658 133 665 c 0
 185 676 225 683 277 683 c 0
 408 683 500 610 500 507 c 0
 500 417 458 361 358 265 c 0
 300 209 246 163 175 103 c 1
 421 103 l 1
 471 204 l 1
 521 204 l 1
EndSplineSet
Substitution2: "'onum' Oldstyle Figures in Latin lookup 4 subtable" two.osfprop
Substitution2: "'pnum' Proportional Numbers in Latin lookup 3 subtable" two.osfprop
EndChar

StartChar: three
Encoding: 51 51 40
Width: 579
Flags: MW
HStem: -8 61 323 53 621 60<274.5 286.5>
VStem: 372 143
LayerCount: 2
Fore
SplineSet
536 188 m 0
 536 72 425 -8 263 -8 c 0
 225 -8 193 -3 153 6 c 0
 114 15 61 31 61 31 c 1
 61 195 l 1
 109 195 l 1
 163 56 l 1
 184 54 196 52 220 52 c 0
 308 52 394 82 394 187 c 0
 394 274 343 323 254 323 c 2
 214 323 l 1
 214 375 l 1
 264 375 l 2
 323 375 373 418 373 503 c 0
 373 582 330 621 243 621 c 0
 217 621 191 619 167 615 c 1
 114 485 l 1
 66 485 l 1
 66 647 l 1
 66 647 111 658 155 665 c 0
 224 678 254 681 295 681 c 0
 431 681 515 621 515 522 c 0
 515 426 438 375 340 354 c 1
 428 344 536 311 536 188 c 0
EndSplineSet
Substitution2: "'onum' Oldstyle Figures in Latin lookup 4 subtable" three.osfprop
Substitution2: "'pnum' Proportional Numbers in Latin lookup 3 subtable" three.osfprop
EndChar

StartChar: four
Encoding: 52 52 41
Width: 579
Flags: MW
HStem: 190 82<443 544>
VStem: 328 116
LayerCount: 2
Fore
SplineSet
544 190 m 1
 443 190 l 1
 443 69 l 1
 534 30 l 1
 534 0 l 1
 232 0 l 1
 232 30 l 1
 325 68 l 1
 325 189 l 1
 3 189 l 1
 3 239 l 1
 374 683 l 1
 443 683 l 1
 443 272 l 1
 544 272 l 1
 544 190 l 1
327 272 m 1
 328 538 l 1
 109 272 l 1
 327 272 l 1
EndSplineSet
Substitution2: "'onum' Oldstyle Figures in Latin lookup 4 subtable" four.osfprop
Substitution2: "'pnum' Proportional Numbers in Latin lookup 3 subtable" four.osfprop
EndChar

StartChar: five
Encoding: 53 53 42
Width: 579
Flags: MW
HStem: -8 61 366 74<245.5 259.5> 566 106<152 507 152 152>
VStem: 78 74<425 566 425 672> 388 140<162 267.5>
LayerCount: 2
Fore
SplineSet
528 228 m 0
 528 87 419 -8 259 -8 c 0
 223 -8 190 -4 155 4 c 0
 126 10 82 24 61 31 c 1
 61 195 l 1
 108 195 l 1
 162 57 l 1
 188 54 206 52 222 52 c 0
 326 52 388 112 388 212 c 0
 388 323 317 366 202 366 c 0
 159 366 122 362 78 353 c 1
 78 672 l 1
 507 672 l 1
 507 566 l 1
 152 566 l 1
 152 425 l 1
 204 437 226 440 265 440 c 0
 429 440 528 360 528 228 c 0
EndSplineSet
Substitution2: "'onum' Oldstyle Figures in Latin lookup 4 subtable" five.osfprop
Substitution2: "'pnum' Proportional Numbers in Latin lookup 3 subtable" five.osfprop
EndChar

StartChar: six
Encoding: 54 54 43
Width: 579
Flags: MW
HStem: -16 53 346 63<300 321.5> 622 58<415.5 423.5 281.5 480.5>
VStem: 37 141 402 142
LayerCount: 2
Fore
SplineSet
543 209 m 0
 543 63 435 -16 296 -16 c 0
 125 -16 36 92 36 277 c 0
 36 518 167 680 396 680 c 0
 451 680 496 675 538 663 c 1
 530 617 l 1
 505 621 492 622 469 622 c 0
 362 622 281 589 232 526 c 0
 202 488 186 443 182 381 c 1
 239 401 274 409 326 409 c 0
 459 409 543 331 543 209 c 0
401 198 m 1
 402 198 l 1
 402 297 362 346 281 346 c 0
 247 346 194 335 179 330 c 1
 178 319 177 291 177 275 c 0
 177 182 172 36 293 36 c 0
 362 36 401 102 401 198 c 1
EndSplineSet
Substitution2: "'onum' Oldstyle Figures in Latin lookup 4 subtable" six.osfprop
Substitution2: "'pnum' Proportional Numbers in Latin lookup 3 subtable" six.osfprop
EndChar

StartChar: seven
Encoding: 55 55 44
Width: 579
Flags: MW
HStem: -5 20 566 106
LayerCount: 2
Fore
SplineSet
546 625 m 1
 455 413 365 203 265 -5 c 1
 112 -5 l 1
 238 181 347 366 451 567 c 1
 164 567 l 1
 116 437 l 1
 66 437 l 1
 66 672 l 1
 546 672 l 1
 546 625 l 1
EndSplineSet
Substitution2: "'onum' Oldstyle Figures in Latin lookup 4 subtable" seven.osfprop
Substitution2: "'pnum' Proportional Numbers in Latin lookup 3 subtable" seven.osfprop
EndChar

StartChar: eight
Encoding: 56 56 45
Width: 579
Flags: MW
HStem: -16 56 632 51<265.5 324.5>
VStem: 78 121 409 125<120 176.5>
LayerCount: 2
Fore
SplineSet
534 179 m 0
 534 61 435 -16 285 -16 c 0
 152 -16 45 45 45 157 c 0
 45 234 99 294 204 336 c 1
 185 347 l 2
 114 388 77 433 77 505 c 0
 77 611 166 683 296 683 c 0
 424 683 505 622 505 527 c 0
 505 449 452 409 375 374 c 1
 407 355 l 2
 499 302 534 254 534 179 c 0
391 521 m 0
 391 589 354 632 295 632 c 0
 236 632 197 595 197 538 c 0
 197 493 221 461 281 427 c 2
 331 399 l 1
 372 440 391 477 391 521 c 0
409 148 m 0
 409 205 366 236 310 270 c 2
 248 309 l 1
 189 264 164 221 164 162 c 0
 164 85 214 39 290 39 c 0
 362 39 409 82 409 148 c 0
EndSplineSet
Substitution2: "'onum' Oldstyle Figures in Latin lookup 4 subtable" eight.osfprop
Substitution2: "'pnum' Proportional Numbers in Latin lookup 3 subtable" eight.osfprop
EndChar

StartChar: nine
Encoding: 57 57 46
Width: 579
Flags: MW
HStem: -5 61 258 66 632 53
VStem: 40 140<422 518.5 422 527.5> 405 142
LayerCount: 2
Fore
SplineSet
547 386 m 0
 547 262 507 155 435 87 c 0
 374 27 287 -5 186 -5 c 0
 138 -5 95 0 47 10 c 1
 53 57 l 1
 82 55 91 55 106 55 c 0
 212 55 284 84 334 137 c 0
 369 175 393 220 398 287 c 1
 346 266 304 258 253 258 c 0
 123 258 40 335 40 458 c 0
 40 597 136 685 289 685 c 0
 368 685 434 658 478 609 c 0
 523 559 547 484 547 386 c 0
404 407 m 2
 404 406 l 2
 404 498 404 633 289 633 c 0
 221 633 180 566 180 471 c 0
 180 373 220 323 299 323 c 0
 334 323 368 330 401 338 c 1
 404 363 404 387 404 407 c 2
EndSplineSet
Substitution2: "'onum' Oldstyle Figures in Latin lookup 4 subtable" nine.osfprop
Substitution2: "'pnum' Proportional Numbers in Latin lookup 3 subtable" nine.osfprop
EndChar

StartChar: colon
Encoding: 58 58 47
Width: 291
Flags: MW
HStem: -12 135<120.5 171.5 120 173.5> 390 135<120.5 171.5 120 173.5>
VStem: 71 151<32.5 79 434 480>
LayerCount: 2
Fore
SplineSet
222 458 m 0
 222 410 200 390 147 390 c 0
 94 390 71 410 71 457 c 0
 71 503 94 525 146 525 c 0
 197 525 222 503 222 458 c 0
222 57 m 0
 222 8 200 -12 147 -12 c 0
 94 -12 71 8 71 56 c 0
 71 102 94 123 146 123 c 0
 197 123 222 102 222 57 c 0
EndSplineSet
EndChar

StartChar: semicolon
Encoding: 59 59 48
Width: 292
Flags: MW
HStem: 390 135<119.5 170.5 119 172.5>
VStem: 139 88
LayerCount: 2
Fore
SplineSet
221 458 m 0
 221 410 199 390 146 390 c 0
 93 390 70 410 70 457 c 0
 70 503 93 525 145 525 c 0
 196 525 221 503 221 458 c 0
227 34 m 0
 227 -57 172 -99 88 -121 c 1
 71 -78 l 1
 121 -57 136 -38 139 5 c 1
 136 5 126 6 123 6 c 0
 85 10 65 30 65 63 c 0
 65 102 94 127 140 127 c 0
 196 127 227 94 227 34 c 0
EndSplineSet
EndChar

StartChar: less
Encoding: 60 60 49
Width: 669
Flags: W
LayerCount: 2
Fore
SplineSet
619 67 m 1
 35 324 l 1
 35 362 l 1
 619 620 l 1
 619 516 l 1
 211 343 l 1
 619 171 l 1
 619 67 l 1
EndSplineSet
EndChar

StartChar: equal
Encoding: 61 61 50
Width: 579
Flags: MW
HStem: 185 92 409 92<26 552>
LayerCount: 2
Fore
SplineSet
552 409 m 1
 26 408 l 1
 26 501 l 1
 552 501 l 1
 552 409 l 1
552 184 m 1
 26 184 l 1
 26 277 l 1
 552 277 l 1
 552 184 l 1
EndSplineSet
EndChar

StartChar: greater
Encoding: 62 62 51
Width: 669
Flags: W
LayerCount: 2
Fore
SplineSet
626 324 m 1
 42 66 l 1
 42 170 l 1
 450 343 l 1
 42 515 l 1
 42 620 l 1
 626 362 l 1
 626 324 l 1
EndSplineSet
EndChar

StartChar: question
Encoding: 63 63 52
Width: 469
Flags: MW
HStem: -8 119<186 236 186 236> 650 56<213.5 229.5>
VStem: 135 151<32 52 32 71> 310 143
LayerCount: 2
Fore
SplineSet
453 523 m 0
 453 455 427 400 370 347 c 2
 281 266 l 2
 250 237 244 229 242 190 c 0
 242 185 241 165 241 158 c 1
 181 158 l 1
 181 164 179 188 178 194 c 0
 177 204 177 214 177 221 c 0
 178 252 184 262 214 308 c 2
 266 388 l 2
 294 432 311 474 311 525 c 0
 311 607 269 650 190 650 c 0
 159 650 143 648 118 643 c 1
 66 511 l 1
 18 511 l 1
 18 669 l 1
 31 672 74 684 108 691 c 0
 159 701 196 706 231 706 c 0
 356 706 453 648 453 523 c 0
285 51 m 1
 286 52 l 1
 286 12 261 -8 211 -8 c 0
 160 -8 135 11 135 51 c 0
 135 91 160 111 212 111 c 0
 260 111 285 90 285 51 c 1
EndSplineSet
EndChar

StartChar: at
Encoding: 64 64 53
Width: 799
Flags: MW
HStem: -5 59<286 454> 153 51 558 48<435.5 446.5> 686 59<319.5 506>
VStem: 32 92 212 88 680 88
LayerCount: 2
Fore
SplineSet
767 448 m 0
 767 256 643 153 500 153 c 0
 494 153 469 153 461 171 c 0
 457 179 443 186 444 198 c 1
 437 210 454 280 456 288 c 1
 420 239 410 225 387 203 c 0
 351 170 322 156 295 156 c 0
 242 156 211 207 211 295 c 0
 211 377 237 460 281 514 c 0
 330 574 395 606 476 606 c 0
 503 606 526 603 569 594 c 1
 521 205 l 1
 534 205 541 207 550 210 c 0
 613 227 679 306 679 433 c 0
 679 589 585 686 427 686 c 0
 212 686 124 539 124 339 c 0
 124 151 249 55 428 54 c 0
 480 54 528 62 580 71 c 1
 587 36 l 1
 587 36 531 18 522 16 c 0
 470 1 432 -5 397 -5 c 0
 175 -5 31 124 31 325 c 0
 31 567 189 745 435 745 c 0
 619 745 767 646 767 448 c 0
485 549 m 1
 469 555 455 558 438 558 c 0
 387 558 352 530 329 475 c 0
 311 433 300 365 300 299 c 0
 300 244 307 226 326 226 c 0
 337 226 344 228 387 261 c 0
 408 277 435 302 457 321 c 1
 485 549 l 1
EndSplineSet
EndChar

StartChar: A
Encoding: 65 65 54
Width: 721
Flags: MW
HStem: 0 20 271 51<239 421 239 439 220 421> 695 20G<337 408 408 408>
VStem: -18 241<0 29 29 29> 430 303<0 29 29 29>
LayerCount: 2
Fore
SplineSet
733 0 m 1
 430 0 l 1
 430 29 l 1
 510 69 l 1
 439 271 l 1
 220 271 l 1
 141 70 l 1
 223 30 l 1
 223 0 l 1
 -18 0 l 1
 -18 29 l 1
 62 69 l 1
 337 715 l 1
 408 715 l 1
 652 70 l 1
 733 30 l 1
 733 0 l 1
421 322 m 1
 364 484 l 2
 350 525 346 535 336 571 c 1
 239 322 l 1
 421 322 l 1
EndSplineSet
Substitution2: "'c2sc' Capitals to Small Capitals in Latin lookup 1 subtable" a.smcp
Position2: "'cpsp' Capital Spacing in Latin lookup 0 subtable" dx=7 dy=0 dh=14 dv=0
EndChar

StartChar: B
Encoding: 66 66 55
Width: 642
Flags: MW
HStem: 0 48 337 46<244 303 303 306 244 303> 660 48<244 305 244 244>
VStem: 113 132 459 143<160.5 225 160.5 237.5>
LayerCount: 2
Fore
SplineSet
602 188 m 0
 602 133 574 78 530 46 c 0
 486 15 433 0 336 0 c 2
 22 0 l 1
 22 29 l 1
 113 68 l 1
 113 639 l 1
 22 678 l 1
 22 708 l 1
 344 708 l 2
 422 708 471 695 509 666 c 0
 547 637 570 588 570 538 c 0
 570 474 534 419 478 391 c 0
 454 380 437 374 394 367 c 1
 439 364 462 358 491 346 c 0
 562 316 602 262 602 188 c 0
427 527 m 1
 428 527 l 1
 428 607 389 660 305 660 c 2
 244 660 l 1
 244 383 l 1
 303 383 l 2
 386 383 427 450 427 527 c 1
459 191 m 0
 459 284 401 337 306 337 c 2
 244 337 l 1
 244 47 l 1
 305 47 l 2
 418 47 459 104 459 191 c 0
EndSplineSet
Substitution2: "'c2sc' Capitals to Small Capitals in Latin lookup 1 subtable" b.smcp
Position2: "'cpsp' Capital Spacing in Latin lookup 0 subtable" dx=7 dy=0 dh=14 dv=0
EndChar

StartChar: C
Encoding: 67 67 56
Width: 679
Flags: MW
HStem: -11 20 664 54<422.5 467 381 480>
VStem: 38 143
LayerCount: 2
Fore
SplineSet
647 193 m 1
 633 28 l 1
 613 22 565 10 539 4 c 0
 487 -7 445 -11 397 -11 c 0
 276 -11 192 20 129 84 c 0
 69 145 37 231 37 336 c 0
 37 473 95 582 191 649 c 0
 255 693 331 718 431 718 c 0
 503 718 568 706 639 689 c 1
 639 522 l 1
 589 522 l 1
 537 660 l 1
 516 662 491 664 469 664 c 0
 376 664 309 639 260 587 c 0
 207 531 180 449 180 349 c 0
 180 262 199 194 236 142 c 0
 283 79 351 50 453 50 c 0
 481 50 493 51 534 55 c 1
 597 193 l 1
 647 193 l 1
EndSplineSet
Substitution2: "'c2sc' Capitals to Small Capitals in Latin lookup 1 subtable" c.smcp
Position2: "'cpsp' Capital Spacing in Latin lookup 0 subtable" dx=7 dy=0 dh=14 dv=0
EndChar

StartChar: D
Encoding: 68 68 57
Width: 768
Flags: MW
HStem: 0 50<247 327 327 343> 658 50<247 331 247 247>
VStem: 113 135 588 143
LayerCount: 2
Fore
SplineSet
730 368 m 0
 730 246 687 144 606 79 c 0
 540 24 458 0 343 0 c 2
 22 0 l 1
 22 29 l 1
 113 68 l 1
 113 639 l 1
 22 678 l 1
 22 708 l 1
 361 708 l 2
 491 708 566 684 629 625 c 0
 695 563 730 475 730 368 c 0
587 360 m 0
 587 453 566 524 524 578 c 0
 479 634 423 658 331 658 c 2
 247 658 l 1
 247 50 l 1
 327 50 l 2
 412 50 464 70 509 120 c 0
 563 178 587 252 587 360 c 0
EndSplineSet
Substitution2: "'c2sc' Capitals to Small Capitals in Latin lookup 1 subtable" d.smcp
Position2: "'cpsp' Capital Spacing in Latin lookup 0 subtable" dx=7 dy=0 dh=14 dv=0
EndChar

StartChar: E
Encoding: 69 69 58
Width: 619
Flags: MW
HStem: 0 50<247 469 247 563> 335 48 660 48<247 462 247 247>
VStem: 113 135
LayerCount: 2
Fore
SplineSet
578 166 m 1
 563 0 l 1
 22 0 l 1
 22 29 l 1
 113 68 l 1
 113 639 l 1
 22 678 l 1
 22 708 l 1
 559 708 l 1
 559 544 l 1
 513 544 l 1
 462 660 l 1
 247 660 l 1
 247 382 l 1
 424 382 l 1
 461 478 l 1
 506 478 l 1
 506 243 l 1
 462 243 l 1
 424 335 l 1
 247 335 l 1
 247 50 l 1
 469 50 l 1
 532 166 l 1
 578 166 l 1
EndSplineSet
Substitution2: "'c2sc' Capitals to Small Capitals in Latin lookup 1 subtable" e.smcp
Position2: "'cpsp' Capital Spacing in Latin lookup 0 subtable" dx=7 dy=0 dh=14 dv=0
EndChar

StartChar: F
Encoding: 70 70 59
Width: 556
Flags: MW
HStem: 0 20 335 48 660 48<246 451 246 246>
VStem: 113 135
LayerCount: 2
Fore
SplineSet
548 547 m 1
 502 546 l 1
 451 660 l 1
 246 660 l 1
 246 382 l 1
 413 382 l 1
 451 478 l 1
 495 478 l 1
 495 243 l 1
 451 243 l 1
 413 335 l 1
 246 335 l 1
 246 69 l 1
 361 30 l 1
 361 0 l 1
 22 0 l 1
 22 29 l 1
 112 69 l 1
 112 639 l 1
 22 678 l 1
 22 708 l 1
 548 708 l 1
 548 547 l 1
EndSplineSet
Substitution2: "'c2sc' Capitals to Small Capitals in Latin lookup 1 subtable" f.smcp
Position2: "'cpsp' Capital Spacing in Latin lookup 0 subtable" dx=7 dy=0 dh=14 dv=0
EndChar

StartChar: G
Encoding: 71 71 60
Width: 746
Flags: MW
HStem: -11 60<401.5 425> 664 54
VStem: 38 143 518 133
LayerCount: 2
Fore
SplineSet
740 268 m 1
 650 230 l 1
 650 29 l 1
 630 23 586 13 559 7 c 0
 500 -5 450 -11 400 -11 c 0
 301 -11 214 18 155 67 c 0
 81 130 37 227 37 342 c 0
 37 461 78 557 157 626 c 0
 229 689 318 718 440 718 c 0
 520 718 579 706 661 689 c 1
 661 522 l 1
 610 522 l 1
 559 658 l 1
 533 662 507 665 477 665 c 0
 379 665 311 639 260 586 c 0
 208 530 180 450 180 349 c 0
 180 255 202 187 247 135 c 0
 296 77 358 49 445 49 c 0
 466 49 497 51 518 54 c 1
 518 229 l 1
 428 268 l 1
 428 298 l 1
 740 298 l 1
 740 268 l 1
EndSplineSet
Substitution2: "'c2sc' Capitals to Small Capitals in Latin lookup 1 subtable" g.smcp
Position2: "'cpsp' Capital Spacing in Latin lookup 0 subtable" dx=7 dy=0 dh=14 dv=0
EndChar

StartChar: H
Encoding: 72 72 61
Width: 801
Flags: MW
HStem: 0 20 341 57
VStem: 113 135 554 135
LayerCount: 2
Fore
SplineSet
778 0 m 1
 464 0 l 1
 464 29 l 1
 554 69 l 1
 554 342 l 1
 247 342 l 1
 247 69 l 1
 337 30 l 1
 337 0 l 1
 22 0 l 1
 22 29 l 1
 113 69 l 1
 113 639 l 1
 22 678 l 1
 22 708 l 1
 337 708 l 1
 337 678 l 1
 247 639 l 1
 247 398 l 1
 554 398 l 1
 554 639 l 1
 464 678 l 1
 464 708 l 1
 778 708 l 1
 778 678 l 1
 688 639 l 1
 688 69 l 1
 778 30 l 1
 778 0 l 1
EndSplineSet
Substitution2: "'c2sc' Capitals to Small Capitals in Latin lookup 1 subtable" h.smcp
Position2: "'cpsp' Capital Spacing in Latin lookup 0 subtable" dx=7 dy=0 dh=14 dv=0
EndChar

StartChar: I
Encoding: 73 73 62
Width: 359
Flags: MW
HStem: 0 20
VStem: 113 135
LayerCount: 2
Fore
SplineSet
337 0 m 1
 22 0 l 1
 22 29 l 1
 113 69 l 1
 113 638 l 1
 22 678 l 1
 22 708 l 1
 337 708 l 1
 337 678 l 1
 247 639 l 1
 247 69 l 1
 337 30 l 1
 337 0 l 1
EndSplineSet
Substitution2: "'c2sc' Capitals to Small Capitals in Latin lookup 1 subtable" i.smcp
Position2: "'cpsp' Capital Spacing in Latin lookup 0 subtable" dx=7 dy=0 dh=14 dv=0
EndChar

StartChar: J
Encoding: 74 74 63
Width: 346
Flags: MW
HStem: -237 124<-4 9 -70 51.5>
VStem: 118 135<-38 3 3 639>
LayerCount: 2
Fore
SplineSet
343 678 m 1
 253 639 l 1
 253 3 l 2
 253 -79 234 -129 186 -175 c 0
 140 -219 90 -237 13 -237 c 0
 -21 -237 -42 -235 -70 -227 c 1
 -70 -113 l 1
 9 -113 l 1
 43 -186 l 1
 104 -175 118 -128 118 -52 c 2
 118 639 l 1
 29 678 l 1
 29 708 l 1
 343 708 l 1
 343 678 l 1
EndSplineSet
Substitution2: "'c2sc' Capitals to Small Capitals in Latin lookup 1 subtable" j.smcp
Position2: "'cpsp' Capital Spacing in Latin lookup 0 subtable" dx=7 dy=0 dh=14 dv=0
EndChar

StartChar: K
Encoding: 75 75 64
Width: 707
Flags: MW
HStem: 0 20
VStem: 113 135 447 251<678 708 678 708>
LayerCount: 2
Fore
SplineSet
719 0 m 1
 515 0 l 1
 261 368 l 1
 515 644 l 1
 447 678 l 1
 447 708 l 1
 698 708 l 1
 698 678 l 1
 612 639 l 1
 388 415 l 1
 633 69 l 1
 719 30 l 1
 719 0 l 1
336 0 m 1
 22 0 l 1
 22 29 l 1
 113 69 l 1
 113 638 l 1
 22 678 l 1
 22 708 l 1
 337 708 l 1
 337 678 l 1
 247 639 l 1
 247 69 l 1
 336 30 l 1
 336 0 l 1
EndSplineSet
Substitution2: "'c2sc' Capitals to Small Capitals in Latin lookup 1 subtable" k.smcp
Position2: "'cpsp' Capital Spacing in Latin lookup 0 subtable" dx=7 dy=0 dh=14 dv=0
EndChar

StartChar: L
Encoding: 76 76 65
Width: 535
Flags: MW
HStem: 0 50<247 417 247 514>
VStem: 113 135
LayerCount: 2
Fore
SplineSet
531 179 m 1
 514 0 l 1
 22 0 l 1
 22 29 l 1
 113 68 l 1
 113 638 l 1
 22 678 l 1
 22 708 l 1
 337 708 l 1
 337 678 l 1
 247 639 l 1
 247 50 l 1
 417 50 l 1
 483 179 l 1
 531 179 l 1
EndSplineSet
Substitution2: "'c2sc' Capitals to Small Capitals in Latin lookup 1 subtable" l.smcp
Position2: "'cpsp' Capital Spacing in Latin lookup 0 subtable" dx=7 dy=0 dh=14 dv=0
EndChar

StartChar: M
Encoding: 77 77 66
Width: 912
Flags: MW
HStem: -8 20
VStem: 23 248 671 130
LayerCount: 2
Fore
SplineSet
890 0 m 1
 583 0 l 1
 583 29 l 1
 671 69 l 1
 671 558 l 1
 438 -8 l 1
 414 -8 l 1
 183 558 l 1
 183 69 l 1
 270 30 l 1
 270 0 l 1
 22 0 l 1
 22 29 l 1
 112 69 l 1
 112 638 l 1
 22 678 l 1
 22 708 l 1
 256 708 l 1
 462 208 l 1
 664 708 l 1
 890 708 l 1
 890 678 l 1
 800 639 l 1
 800 69 l 1
 890 30 l 1
 890 0 l 1
EndSplineSet
Substitution2: "'c2sc' Capitals to Small Capitals in Latin lookup 1 subtable" m.smcp
Position2: "'cpsp' Capital Spacing in Latin lookup 0 subtable" dx=7 dy=0 dh=14 dv=0
EndChar

StartChar: N
Encoding: 78 78 67
Width: 758
Flags: MW
HStem: -11 20
VStem: 23 248 503 248
LayerCount: 2
Fore
SplineSet
750 678 m 1
 660 639 l 1
 660 -11 l 1
 607 -11 l 1
 183 549 l 1
 183 69 l 1
 270 30 l 1
 270 0 l 1
 22 0 l 1
 22 29 l 1
 113 69 l 1
 113 638 l 1
 22 678 l 1
 22 708 l 1
 220 708 l 1
 589 227 l 1
 589 638 l 1
 502 678 l 1
 502 708 l 1
 750 708 l 1
 750 678 l 1
EndSplineSet
Substitution2: "'c2sc' Capitals to Small Capitals in Latin lookup 1 subtable" n.smcp
Position2: "'cpsp' Capital Spacing in Latin lookup 0 subtable" dx=7 dy=0 dh=14 dv=0
EndChar

StartChar: O
Encoding: 79 79 68
Width: 773
Flags: MW
HStem: -16 56 665 53<304.5 454.5>
VStem: 38 145 589 147
LayerCount: 2
Fore
SplineSet
735 366 m 0
 735 139 587 -16 370 -16 c 0
 172 -16 37 124 37 331 c 0
 37 548 176 718 397 718 c 0
 606 718 735 571 735 366 c 0
588 348 m 1
 589 348 l 1
 589 512 525 665 384 665 c 0
 225 665 182 484 182 357 c 0
 182 164 262 39 386 39 c 0
 527 39 588 194 588 348 c 1
EndSplineSet
Substitution2: "'c2sc' Capitals to Small Capitals in Latin lookup 1 subtable" o.smcp
Position2: "'cpsp' Capital Spacing in Latin lookup 0 subtable" dx=7 dy=0 dh=14 dv=0
EndChar

StartChar: P
Encoding: 80 80 69
Width: 593
Flags: MW
HStem: 0 20 298 48 660 48<247 304 247 247>
VStem: 113 135 446 140<508 540.5 476 555.5>
LayerCount: 2
Fore
SplineSet
586 509 m 0
 586 443 557 388 508 351 c 0
 461 317 396 298 317 298 c 2
 247 298 l 1
 247 69 l 1
 347 30 l 1
 347 0 l 1
 22 0 l 1
 22 29 l 1
 113 68 l 1
 113 639 l 1
 22 678 l 1
 22 708 l 1
 311 708 l 2
 411 708 468 694 514 661 c 0
 559 627 586 572 586 509 c 0
445 508 m 1
 446 508 l 1
 446 603 402 660 304 660 c 2
 247 660 l 1
 247 345 l 1
 284 345 l 2
 393 345 445 402 445 508 c 1
EndSplineSet
Substitution2: "'c2sc' Capitals to Small Capitals in Latin lookup 1 subtable" p.smcp
Position2: "'cpsp' Capital Spacing in Latin lookup 0 subtable" dx=7 dy=0 dh=14 dv=0
EndChar

StartChar: Q
Encoding: 81 81 70
Width: 795
Flags: MW
HStem: -214 101<726 821.5> 665 53<313 462>
VStem: 38 145 588 148
LayerCount: 2
Fore
SplineSet
940 -116 m 1
 867 -174 809 -214 757 -214 c 0
 695 -214 593 -165 492 -109 c 0
 440 -80 376 -43 343 -22 c 0
 340 -20 328 -13 323 -10 c 0
 147 14 37 146 37 339 c 0
 37 552 181 718 397 718 c 0
 599 718 735 577 735 370 c 0
 735 203 643 55 480 14 c 1
 557 -21 594 -41 655 -66 c 0
 744 -103 782 -113 811 -113 c 0
 832 -113 842 -110 871 -100 c 0
 884 -95 886 -94 918 -80 c 1
 940 -116 l 1
587 350 m 0
 587 478 542 665 382 665 c 0
 244 665 182 514 182 360 c 0
 182 203 243 39 385 39 c 0
 544 39 587 225 587 350 c 0
EndSplineSet
Substitution2: "'c2sc' Capitals to Small Capitals in Latin lookup 1 subtable" q.smcp
Position2: "'cpsp' Capital Spacing in Latin lookup 0 subtable" dx=7 dy=0 dh=14 dv=0
EndChar

StartChar: R
Encoding: 82 82 71
Width: 669
Flags: MW
HStem: 0 20 337 43 660 48<240 304 240 240>
VStem: 113 128 428 140
LayerCount: 2
Fore
SplineSet
691 0 m 1
 496 0 l 1
 269 337 l 1
 240 337 l 1
 240 69 l 1
 330 30 l 1
 330 0 l 1
 22 0 l 1
 22 29 l 1
 113 68 l 1
 113 639 l 1
 22 678 l 1
 22 708 l 1
 337 708 l 2
 423 708 466 698 504 669 c 0
 544 639 567 590 567 535 c 0
 567 440 508 372 405 352 c 1
 606 70 l 1
 691 30 l 1
 691 0 l 1
427 526 m 1
 428 526 l 1
 428 607 389 660 304 660 c 2
 240 660 l 1
 240 379 l 1
 304 379 l 2
 380 379 427 436 427 526 c 1
EndSplineSet
Substitution2: "'c2sc' Capitals to Small Capitals in Latin lookup 1 subtable" r.smcp
Position2: "'cpsp' Capital Spacing in Latin lookup 0 subtable" dx=7 dy=0 dh=14 dv=0
EndChar

StartChar: S
Encoding: 83 83 72
Width: 557
Flags: MW
HStem: -8 57<242.5 254.5 216.5 304> 664 54<277.5 299.5 222 327>
VStem: 54 122 371 135<157.5 188>
LayerCount: 2
Fore
SplineSet
506 189 m 0
 506 126 479 74 433 40 c 0
 393 9 337 -8 271 -8 c 0
 214 -8 163 2 123 10 c 0
 87 17 66 24 51 28 c 1
 51 193 l 1
 99 193 l 1
 153 56 l 1
 184 52 205 49 228 49 c 0
 281 49 314 59 338 80 c 0
 359 99 371 125 371 156 c 0
 371 220 330 247 284 278 c 2
 181 346 l 2
 128 382 114 394 97 414 c 0
 69 448 53 485 53 526 c 0
 53 652 161 718 283 718 c 0
 316 718 360 713 415 701 c 0
 441 696 470 689 485 686 c 1
 485 525 l 1
 436 525 l 1
 384 658 l 1
 352 662 338 664 316 664 c 0
 239 664 175 641 175 567 c 0
 175 516 202 495 263 455 c 2
 370 384 l 2
 431 343 450 327 470 301 c 0
 493 271 506 232 506 189 c 0
EndSplineSet
Substitution2: "'c2sc' Capitals to Small Capitals in Latin lookup 1 subtable" s.smcp
Position2: "'cpsp' Capital Spacing in Latin lookup 0 subtable" dx=7 dy=0 dh=14 dv=0
EndChar

StartChar: T
Encoding: 84 84 73
Width: 600
Flags: MW
HStem: 0 20 658 50<96 234 96 96 368 503 368 368>
VStem: 233 135
LayerCount: 2
Fore
SplineSet
602 523 m 1
 554 522 l 1
 503 658 l 1
 368 658 l 1
 368 69 l 1
 482 30 l 1
 482 0 l 1
 120 0 l 1
 120 29 l 1
 234 69 l 1
 234 658 l 1
 96 658 l 1
 46 522 l 1
 -3 522 l 1
 -3 708 l 1
 602 708 l 1
 602 523 l 1
EndSplineSet
Substitution2: "'c2sc' Capitals to Small Capitals in Latin lookup 1 subtable" t.smcp
Position2: "'cpsp' Capital Spacing in Latin lookup 0 subtable" dx=7 dy=0 dh=14 dv=0
EndChar

StartChar: U
Encoding: 85 85 74
Width: 719
Flags: MW
HStem: -13 60<319 439.5>
VStem: 81 135 553 85<223 245 245 638 638 638>
LayerCount: 2
Fore
SplineSet
728 678 m 1
 638 639 l 1
 638 245 l 2
 638 60 525 -13 354 -13 c 0
 189 -13 81 51 81 215 c 2
 81 638 l 1
 -9 678 l 1
 -9 708 l 1
 305 708 l 1
 305 678 l 1
 215 639 l 1
 215 220 l 2
 215 105 261 47 377 47 c 0
 504 47 553 101 553 223 c 2
 553 638 l 1
 463 678 l 1
 463 708 l 1
 728 708 l 1
 728 678 l 1
EndSplineSet
Substitution2: "'c2sc' Capitals to Small Capitals in Latin lookup 1 subtable" u.smcp
Position2: "'cpsp' Capital Spacing in Latin lookup 0 subtable" dx=7 dy=0 dh=14 dv=0
EndChar

StartChar: V
Encoding: 86 86 75
Width: 691
Flags: MW
HStem: -11 20
VStem: -27 304<678 708 678 708> 476 243
LayerCount: 2
Fore
SplineSet
720 678 m 1
 638 639 l 1
 363 -11 l 1
 301 -11 l 1
 55 638 l 1
 -27 678 l 1
 -27 708 l 1
 277 708 l 1
 277 678 l 1
 197 639 l 1
 336 245 l 2
 346 217 351 203 368 146 c 1
 557 638 l 1
 477 678 l 1
 477 708 l 1
 720 708 l 1
 720 678 l 1
EndSplineSet
Substitution2: "'c2sc' Capitals to Small Capitals in Latin lookup 1 subtable" v.smcp
Position2: "'cpsp' Capital Spacing in Latin lookup 0 subtable" dx=7 dy=0 dh=14 dv=0
EndChar

StartChar: W
Encoding: 87 87 76
Width: 1045
Flags: MW
HStem: -8 20
VStem: -27 304<678 708 678 708> 828 246<678 708 678 708>
LayerCount: 2
Fore
SplineSet
1074 678 m 1
 991 639 l 1
 749 -8 l 1
 692 -8 l 1
 519 515 l 1
 330 -8 l 1
 273 -8 l 1
 56 638 l 1
 -27 678 l 1
 -27 708 l 1
 277 708 l 1
 277 678 l 1
 196 639 l 1
 302 290 l 2
 314 253 325 218 334 180 c 1
 523 708 l 1
 584 708 l 1
 732 259 l 2
 744 223 752 202 758 174 c 1
 910 638 l 1
 828 678 l 1
 828 708 l 1
 1074 708 l 1
 1074 678 l 1
EndSplineSet
Substitution2: "'c2sc' Capitals to Small Capitals in Latin lookup 1 subtable" w.smcp
Position2: "'cpsp' Capital Spacing in Latin lookup 0 subtable" dx=7 dy=0 dh=14 dv=0
EndChar

StartChar: X
Encoding: 88 88 77
Width: 680
Flags: MW
HStem: 0 20
VStem: 4 309<678 708 678 708> 377 314<0 29 29 29>
LayerCount: 2
Fore
SplineSet
691 0 m 1
 377 0 l 1
 377 29 l 1
 457 67 l 1
 310 292 l 1
 162 68 l 1
 242 30 l 1
 242 0 l 1
 -12 0 l 1
 -12 29 l 1
 69 69 l 1
 274 347 l 1
 86 638 l 1
 4 678 l 1
 4 708 l 1
 313 708 l 1
 313 678 l 1
 237 640 l 1
 366 440 l 1
 502 640 l 1
 427 678 l 1
 427 708 l 1
 667 708 l 1
 667 678 l 1
 585 639 l 1
 399 389 l 1
 608 69 l 1
 691 30 l 1
 691 0 l 1
EndSplineSet
Substitution2: "'c2sc' Capitals to Small Capitals in Latin lookup 1 subtable" x.smcp
Position2: "'cpsp' Capital Spacing in Latin lookup 0 subtable" dx=7 dy=0 dh=14 dv=0
EndChar

StartChar: Y
Encoding: 89 89 78
Width: 629
Flags: MW
HStem: 0 20
VStem: 253 135 421 239
LayerCount: 2
Fore
SplineSet
661 678 m 1
 579 639 l 1
 388 355 l 1
 388 69 l 1
 503 30 l 1
 503 0 l 1
 138 0 l 1
 138 29 l 1
 254 69 l 1
 254 325 l 1
 55 638 l 1
 -27 678 l 1
 -27 708 l 1
 283 708 l 1
 283 678 l 1
 208 640 l 1
 354 407 l 1
 495 640 l 1
 421 678 l 1
 421 708 l 1
 661 708 l 1
 661 678 l 1
EndSplineSet
Substitution2: "'c2sc' Capitals to Small Capitals in Latin lookup 1 subtable" y.smcp
Position2: "'cpsp' Capital Spacing in Latin lookup 0 subtable" dx=7 dy=0 dh=14 dv=0
EndChar

StartChar: Z
Encoding: 90 90 79
Width: 611
Flags: MW
HStem: 0 56 655 53<157 419 157 157>
LayerCount: 2
Fore
SplineSet
582 193 m 1
 565 0 l 1
 27 0 l 1
 27 42 l 1
 419 655 l 1
 157 655 l 1
 107 522 l 1
 57 522 l 1
 57 708 l 1
 581 708 l 1
 581 666 l 1
 190 55 l 1
 468 55 l 1
 532 193 l 1
 582 193 l 1
EndSplineSet
Substitution2: "'c2sc' Capitals to Small Capitals in Latin lookup 1 subtable" z.smcp
Position2: "'cpsp' Capital Spacing in Latin lookup 0 subtable" dx=7 dy=0 dh=14 dv=0
EndChar

StartChar: bracketleft
Encoding: 91 91 80
Width: 272
Flags: MW
HStem: -232 53<170 255 170 255> 693 53<170 255 170 170>
VStem: 76 95
LayerCount: 2
Fore
SplineSet
255 -232 m 1
 75 -232 l 1
 75 746 l 1
 255 746 l 1
 255 693 l 1
 170 693 l 1
 170 -179 l 1
 255 -179 l 1
 255 -232 l 1
EndSplineSet
EndChar

StartChar: backslash
Encoding: 92 92 81
Width: 260
Flags: W
LayerCount: 2
Fore
SplineSet
188 -244 m 1
 0 756 l 1
 71 756 l 1
 260 -244 l 1
 188 -244 l 1
EndSplineSet
EndChar

StartChar: bracketright
Encoding: 93 93 82
Width: 272
Flags: MW
HStem: -232 53 693 53<15 99 15 194>
VStem: 99 95<-180 693 693 693>
LayerCount: 2
Fore
SplineSet
194 -232 m 1
 15 -232 l 1
 15 -180 l 1
 99 -180 l 1
 99 693 l 1
 15 693 l 1
 15 746 l 1
 194 746 l 1
 194 -232 l 1
EndSplineSet
EndChar

StartChar: asciicircum
Encoding: 94 94 83
Width: 600
Flags: MW
HStem: 726 20G<280 320 320 320>
LayerCount: 2
Fore
SplineSet
522 308 m 1
 424 307 l 1
 300 592 l 1
 176 307 l 1
 78 307 l 1
 280 746 l 1
 320 746 l 1
 522 308 l 1
EndSplineSet
EndChar

StartChar: underscore
Encoding: 95 95 84
Width: 506
Flags: MW
HStem: -139 63<0 506 0 506>
LayerCount: 2
Fore
SplineSet
506 -139 m 1
 0 -139 l 1
 0 -76 l 1
 506 -76 l 1
 506 -139 l 1
EndSplineSet
EndChar

StartChar: grave
Encoding: 96 96 85
Width: 281
Flags: W
LayerCount: 2
Fore
SplineSet
283 575 m 1
 213 574 l 1
 -3 730 l 1
 160 730 l 1
 283 575 l 1
EndSplineSet
EndChar

StartChar: a
Encoding: 97 97 86
Width: 547
Flags: MW
HStem: -8 72 477 48
VStem: 28 132 326 127
LayerCount: 2
Fore
SplineSet
542 28 m 1
 531 24 469 5 469 5 c 2
 448 -2 419 -8 397 -8 c 0
 360 -8 342 6 329 43 c 1
 323 40 313 34 276 17 c 0
 239 -1 219 -8 179 -8 c 0
 91 -8 27 46 27 125 c 0
 27 190 69 235 143 251 c 0
 181 260 226 265 294 272 c 0
 309 273 309 273 325 275 c 1
 325 394 l 2
 325 436 317 455 293 467 c 0
 280 473 263 476 240 476 c 0
 229 476 221 476 207 475 c 1
 160 382 l 1
 75 382 l 1
 75 484 l 1
 88 487 117 495 151 503 c 0
 207 518 242 525 285 525 c 0
 334 525 369 516 399 499 c 0
 438 476 452 448 452 395 c 2
 452 109 l 2
 452 95 451 99 453 87 c 0
 455 80 461 77 477 73 c 2
 542 55 l 1
 542 28 l 1
325 73 m 1
 325 238 l 1
 297 234 277 230 244 224 c 0
 183 212 159 190 159 143 c 0
 159 92 193 63 255 63 c 0
 276 63 295 66 319 71 c 2
 325 73 l 1
EndSplineSet
Substitution2: "Single Substitution lookup 13 subtable" ordfeminine
Substitution2: "'smcp' Lowercase to Small Capitals in Latin lookup 0 subtable" a.smcp
EndChar

StartChar: b
Encoding: 98 98 87
Width: 616
Flags: MW
HStem: -11 57<259.5 291.5 259.5 368> 729 20G<219 219>
VStem: 90 130 451 135<213 282>
LayerCount: 2
Fore
SplineSet
586 283 m 0
 586 114 457 -11 279 -11 c 0
 220 -11 152 3 90 15 c 1
 90 648 l 1
 -5 676 l 1
 -5 703 l 1
 219 749 l 1
 219 468 l 1
 255 484 272 492 296 501 c 0
 335 516 359 525 389 525 c 0
 500 525 586 420 586 283 c 0
451 252 m 0
 451 312 435 361 408 395 c 0
 380 430 342 446 288 446 c 0
 264 446 243 443 219 436 c 1
 219 49 l 1
 235 47 252 46 267 46 c 0
 316 46 354 58 383 80 c 0
 427 116 451 174 451 252 c 0
EndSplineSet
Substitution2: "'smcp' Lowercase to Small Capitals in Latin lookup 0 subtable" b.smcp
EndChar

StartChar: c
Encoding: 99 99 88
Width: 497
Flags: MW
HStem: -11 69<201.5 371.5> 476 46<341.5 345>
VStem: 30 135<232.5 318 232.5 324.5>
LayerCount: 2
Fore
SplineSet
480 33 m 1
 480 33 429 17 413 12 c 0
 354 -4 312 -11 274 -11 c 0
 129 -11 30 93 30 242 c 0
 30 407 149 522 324 522 c 0
 375 522 425 511 476 496 c 1
 476 379 l 1
 393 379 l 1
 345 476 l 1
 338 476 331 476 327 475 c 0
 222 466 165 372 165 264 c 0
 165 201 182 149 214 113 c 0
 247 76 293 58 355 58 c 0
 388 58 406 60 471 73 c 1
 480 33 l 1
EndSplineSet
Substitution2: "'smcp' Lowercase to Small Capitals in Latin lookup 0 subtable" c.smcp
EndChar

StartChar: d
Encoding: 100 100 89
Width: 626
Flags: MW
HStem: -11 79<169.5 338.5> 470 52<285.5 333.5 236.5 348.5> 729 20G<526 526>
VStem: 30 135<207.5 317.5> 396 130
LayerCount: 2
Fore
SplineSet
613 28 m 1
 397 -17 l 1
 397 47 l 1
 365 33 350 27 318 13 c 0
 276 -5 257 -11 224 -11 c 0
 115 -11 30 97 30 233 c 0
 30 402 154 522 319 522 c 0
 348 522 373 517 397 511 c 1
 397 648 l 1
 301 676 l 1
 301 703 l 1
 526 749 l 1
 526 82 l 1
 613 55 l 1
 613 28 l 1
397 79 m 1
 397 464 l 1
 378 467 358 470 339 470 c 0
 232 470 165 389 165 263 c 0
 165 152 218 68 327 68 c 0
 350 68 367 70 397 79 c 1
EndSplineSet
Substitution2: "'smcp' Lowercase to Small Capitals in Latin lookup 0 subtable" d.smcp
EndChar

StartChar: e
Encoding: 101 101 90
Width: 533
Flags: MW
HStem: -11 70<202.5 369> 270 62<364 364 364 498> 477 48<253.5 288.5>
VStem: 30 136<235.5 270 235.5 290>
LayerCount: 2
Fore
SplineSet
498 270 m 1
 166 270 l 1
 166 201 177 161 207 123 c 0
 240 81 290 59 354 59 c 0
 384 59 426 64 482 75 c 1
 490 35 l 1
 490 35 443 20 419 13 c 0
 360 -4 316 -11 278 -11 c 0
 127 -11 30 92 30 247 c 0
 30 333 63 413 119 463 c 0
 165 504 219 525 288 525 c 0
 371 525 437 489 469 428 c 0
 489 390 495 354 498 270 c 1
364 332 m 1
 364 331 l 2
 363 386 357 417 342 441 c 0
 326 467 305 477 272 477 c 0
 205 477 172 427 166 313 c 1
 364 332 l 1
EndSplineSet
Substitution2: "'smcp' Lowercase to Small Capitals in Latin lookup 0 subtable" e.smcp
EndChar

StartChar: f
Encoding: 102 102 91
Width: 379
Flags: MW
HStem: 0 20 458 56<25 109 25 110 25 109> 699 47<337.5 355>
VStem: 110 130
LayerCount: 2
Fore
SplineSet
484 630 m 1
 404 629 l 1
 370 698 l 1
 363 699 357 699 353 699 c 0
 322 699 292 689 273 672 c 0
 250 651 239 618 239 568 c 2
 239 514 l 1
 384 514 l 1
 384 459 l 1
 239 459 l 1
 239 69 l 1
 350 30 l 1
 350 0 l 1
 20 0 l 1
 20 29 l 1
 110 69 l 1
 110 458 l 1
 25 458 l 1
 25 514 l 1
 109 514 l 1
 109 541 l 2
 109 666 207 746 359 746 c 0
 404 746 443 739 484 729 c 1
 484 630 l 1
EndSplineSet
Substitution2: "'smcp' Lowercase to Small Capitals in Latin lookup 0 subtable" f.smcp
EndChar

StartChar: g
Encoding: 103 103 92
Width: 571
Flags: MW
HStem: -229 48<218.5 286.5> -16 105 179 40 484 40<232.5 274.5>
VStem: 41 130 358 124<335 356>
LayerCount: 2
Fore
SplineSet
571 424 m 1
 421 462 l 1
 440 448 455 431 466 411 c 0
 476 391 482 369 482 344 c 0
 482 246 394 178 265 178 c 0
 248 178 241 178 222 182 c 1
 202 157 191 136 191 124 c 0
 191 114 197 105 206 99 c 0
 217 92 230 90 259 90 c 2
 398 90 l 2
 455 90 482 82 506 61 c 0
 530 40 542 12 542 -24 c 0
 542 -84 509 -137 450 -176 c 0
 398 -210 324 -229 249 -229 c 0
 176 -229 115 -215 70 -191 c 0
 29 -168 4 -138 4 -107 c 0
 4 -81 18 -60 51 -38 c 0
 74 -23 95 -12 128 2 c 1
 97 21 80 43 80 67 c 0
 80 83 89 100 105 117 c 0
 129 143 159 170 189 189 c 1
 155 196 131 206 109 221 c 0
 66 251 41 296 41 346 c 0
 41 445 135 524 255 524 c 0
 309 524 351 514 393 489 c 1
 571 534 l 1
 571 424 l 1
357 335 m 1
 358 335 l 1
 358 377 344 424 327 448 c 0
 310 472 289 484 260 484 c 0
 205 484 170 441 170 369 c 0
 170 308 188 262 216 237 c 0
 230 224 246 218 268 218 c 0
 326 218 357 259 357 335 c 1
437 -69 m 0
 437 -52 429 -35 415 -26 c 0
 402 -18 389 -15 347 -15 c 2
 199 -15 l 2
 176 -15 169 -15 155 -10 c 1
 129 -36 112 -65 112 -88 c 0
 112 -142 174 -181 263 -181 c 0
 360 -181 437 -132 437 -69 c 0
EndSplineSet
Substitution2: "'smcp' Lowercase to Small Capitals in Latin lookup 0 subtable" g.smcp
EndChar

StartChar: h
Encoding: 104 104 93
Width: 664
Flags: MW
HStem: 0 20 729 20G<239 239>
VStem: 111 130 440 130
LayerCount: 2
Fore
SplineSet
659 0 m 1
 366 0 l 1
 366 29 l 1
 440 69 l 1
 440 320 l 2
 440 375 431 399 410 418 c 0
 392 436 366 445 325 445 c 0
 300 445 271 443 239 438 c 1
 239 69 l 1
 313 30 l 1
 313 0 l 1
 20 0 l 1
 20 29 l 1
 110 69 l 1
 110 649 l 1
 17 677 l 1
 17 705 l 1
 239 749 l 1
 239 470 l 1
 269 482 294 492 322 502 c 0
 377 521 388 525 420 525 c 0
 461 525 504 508 530 479 c 0
 560 446 569 413 569 346 c 2
 569 69 l 1
 659 30 l 1
 659 0 l 1
EndSplineSet
Substitution2: "'smcp' Lowercase to Small Capitals in Latin lookup 0 subtable" h.smcp
EndChar

StartChar: i
Encoding: 105 105 94
Width: 337
Flags: MW
HStem: 0 20 617 121
VStem: 110 130
LayerCount: 2
Fore
SplineSet
253 679 m 0
 253 636 228 616 174 616 c 0
 119 616 94 635 94 677 c 0
 94 718 119 738 173 738 c 0
 227 738 253 719 253 679 c 0
329 0 m 1
 20 0 l 1
 20 29 l 1
 110 69 l 1
 110 430 l 1
 20 458 l 1
 20 486 l 1
 239 529 l 1
 239 69 l 1
 329 30 l 1
 329 0 l 1
EndSplineSet
Substitution2: "'smcp' Lowercase to Small Capitals in Latin lookup 0 subtable" i.smcp
EndChar

StartChar: j
Encoding: 106 106 95
Width: 325
Flags: MW
HStem: -232 116<6 13 -70 51.5> 617 121
VStem: 114 130<-43 -1 -1 430 430 430>
LayerCount: 2
Fore
SplineSet
257 680 m 0
 257 637 231 616 178 616 c 0
 124 616 98 636 98 677 c 0
 98 718 124 738 177 738 c 0
 231 738 257 719 257 680 c 0
244 -1 m 2
 244 -85 227 -130 176 -175 c 0
 133 -214 83 -232 20 -232 c 0
 -8 -232 -38 -229 -70 -223 c 1
 -70 -116 l 1
 13 -116 l 1
 40 -185 l 1
 95 -168 114 -135 114 -57 c 2
 114 430 l 1
 25 456 l 1
 25 485 l 1
 244 528 l 1
 244 -1 l 2
EndSplineSet
Substitution2: "'smcp' Lowercase to Small Capitals in Latin lookup 0 subtable" j.smcp
EndChar

StartChar: k
Encoding: 107 107 96
Width: 635
Flags: MW
HStem: 0 20 729 20G<239 239>
VStem: 111 130 366 264
LayerCount: 2
Fore
SplineSet
646 0 m 1
 459 0 l 1
 255 279 l 1
 434 455 l 1
 365 485 l 1
 365 514 l 1
 630 514 l 1
 630 486 l 1
 522 448 l 1
 377 321 l 1
 564 66 l 1
 646 30 l 1
 646 0 l 1
321 0 m 1
 20 0 l 1
 20 29 l 1
 110 69 l 1
 110 648 l 1
 17 675 l 1
 17 703 l 1
 239 749 l 1
 239 69 l 1
 321 30 l 1
 321 0 l 1
EndSplineSet
Substitution2: "'smcp' Lowercase to Small Capitals in Latin lookup 0 subtable" k.smcp
EndChar

StartChar: l
Encoding: 108 108 97
Width: 334
Flags: MW
HStem: 0 20 729 20G<239 239>
VStem: 110 130
LayerCount: 2
Fore
SplineSet
329 0 m 1
 20 0 l 1
 20 29 l 1
 110 69 l 1
 110 648 l 1
 17 675 l 1
 17 703 l 1
 239 749 l 1
 239 69 l 1
 329 30 l 1
 329 0 l 1
EndSplineSet
Substitution2: "'smcp' Lowercase to Small Capitals in Latin lookup 0 subtable" l.smcp
EndChar

StartChar: m
Encoding: 109 109 98
Width: 983
Flags: MW
HStem: 0 20 447 78<303 443.5>
VStem: 110 130<69 529 430 529> 432 130 758 130
LayerCount: 2
Fore
SplineSet
978 0 m 1
 687 0 l 1
 687 29 l 1
 758 69 l 1
 758 326 l 2
 758 368 750 395 733 414 c 0
 713 436 684 447 643 447 c 0
 610 447 585 444 547 436 c 1
 558 407 561 379 561 343 c 2
 561 69 l 1
 632 30 l 1
 632 0 l 1
 363 0 l 1
 363 29 l 1
 432 69 l 1
 432 325 l 2
 432 414 401 447 315 447 c 0
 291 447 275 446 239 440 c 1
 239 69 l 1
 311 30 l 1
 311 0 l 1
 20 0 l 1
 20 29 l 1
 110 69 l 1
 110 430 l 1
 18 458 l 1
 18 486 l 1
 240 529 l 1
 240 471 l 1
 277 485 298 493 334 506 c 0
 366 518 392 525 418 525 c 0
 469 525 503 508 533 464 c 1
 571 479 597 489 636 503 c 0
 681 519 699 525 732 525 c 0
 779 525 819 509 847 480 c 0
 877 447 887 413 887 349 c 2
 887 69 l 1
 978 30 l 1
 978 0 l 1
EndSplineSet
Substitution2: "'smcp' Lowercase to Small Capitals in Latin lookup 0 subtable" m.smcp
EndChar

StartChar: n
Encoding: 110 110 99
Width: 664
Flags: MW
HStem: 0 20 508 20G<240 240>
VStem: 110 130<69 528 429 528> 439 130
LayerCount: 2
Fore
SplineSet
659 0 m 1
 366 0 l 1
 366 29 l 1
 440 69 l 1
 440 320 l 2
 440 375 431 399 410 418 c 0
 392 436 366 445 325 445 c 0
 300 445 271 443 239 438 c 1
 239 69 l 1
 313 30 l 1
 313 0 l 1
 20 0 l 1
 20 29 l 1
 110 69 l 1
 110 429 l 1
 18 457 l 1
 18 485 l 1
 240 528 l 1
 240 470 l 1
 269 481 294 492 322 502 c 0
 377 521 388 525 420 525 c 0
 461 525 504 508 530 479 c 0
 560 446 569 413 569 346 c 2
 569 69 l 1
 659 30 l 1
 659 0 l 1
EndSplineSet
Substitution2: "'smcp' Lowercase to Small Capitals in Latin lookup 0 subtable" n.smcp
EndChar

StartChar: o
Encoding: 111 111 100
Width: 598
Flags: MW
HStem: -16 56 472 53<255 352.5>
VStem: 30 138 430 138<201 244>
LayerCount: 2
Fore
SplineSet
568 264 m 0
 568 102 456 -16 295 -16 c 0
 135 -16 30 88 30 245 c 0
 30 412 140 525 305 525 c 0
 460 525 568 422 568 264 c 0
430 244 m 1
 431 244 l 1
 431 332 409 472 296 472 c 0
 214 472 167 397 167 264 c 0
 167 178 190 39 301 39 c 0
 408 39 430 158 430 244 c 1
EndSplineSet
Substitution2: "Single Substitution lookup 13 subtable" ordmasculine
Substitution2: "'smcp' Lowercase to Small Capitals in Latin lookup 0 subtable" o.smcp
EndChar

StartChar: p
Encoding: 112 112 101
Width: 630
Flags: MW
HStem: -11 54<288.5 309.5 276.5 388> 509 20G<233 233>
VStem: 104 130 465 135<218 328.5>
LayerCount: 2
Fore
SplineSet
600 281 m 0
 600 114 474 -11 302 -11 c 0
 275 -11 259 -9 233 -4 c 1
 233 -167 l 1
 344 -205 l 1
 344 -235 l 1
 14 -235 l 1
 14 -205 l 1
 104 -168 l 1
 104 429 l 1
 14 457 l 1
 14 486 l 1
 233 529 l 1
 233 468 l 1
 254 478 275 487 302 498 c 0
 357 520 381 525 403 525 c 0
 515 525 600 417 600 281 c 0
465 254 m 0
 465 403 393 446 311 446 c 0
 283 446 262 442 233 435 c 1
 233 46 l 1
 252 44 269 43 284 43 c 0
 335 43 372 58 402 86 c 0
 441 123 465 182 465 254 c 0
EndSplineSet
Substitution2: "'smcp' Lowercase to Small Capitals in Latin lookup 0 subtable" p.smcp
EndChar

StartChar: q
Encoding: 113 113 102
Width: 611
Flags: MW
HStem: -235 302<309 342 303.5 618 309 309> 470 52<285 338.5 282 348>
VStem: 30 135<179.5 282> 399 130
LayerCount: 2
Fore
SplineSet
618 -235 m 1
 309 -235 l 1
 309 -205 l 1
 399 -167 l 1
 399 46 l 1
 375 35 355 27 337 19 c 0
 285 -4 260 -11 227 -11 c 0
 115 -11 30 95 30 234 c 0
 30 330 69 409 138 463 c 0
 188 501 247 522 317 522 c 0
 360 522 396 515 434 500 c 1
 528 539 l 1
 528 -167 l 1
 618 -205 l 1
 618 -235 l 1
399 78 m 1
 399 462 l 1
 381 467 359 470 337 470 c 0
 233 470 165 389 165 264 c 0
 165 95 277 67 330 67 c 0
 354 67 370 70 399 78 c 1
EndSplineSet
Substitution2: "'smcp' Lowercase to Small Capitals in Latin lookup 0 subtable" q.smcp
EndChar

StartChar: r
Encoding: 114 114 103
Width: 453
Flags: MW
HStem: 0 20 377 148<372.5 456>
VStem: 110 130
LayerCount: 2
Fore
SplineSet
456 377 m 1
 362 376 l 1
 331 446 l 1
 325 446 317 446 313 446 c 0
 284 446 264 441 239 433 c 1
 239 69 l 1
 350 30 l 1
 350 0 l 1
 20 0 l 1
 20 29 l 1
 110 69 l 1
 110 430 l 1
 18 457 l 1
 18 486 l 1
 239 529 l 1
 239 467 l 1
 317 508 356 525 389 525 c 0
 414 525 428 519 456 504 c 1
 456 377 l 1
EndSplineSet
Substitution2: "'smcp' Lowercase to Small Capitals in Latin lookup 0 subtable" r.smcp
EndChar

StartChar: s
Encoding: 115 115 104
Width: 452
Flags: MW
HStem: -11 53<207 218.5 188 274.5> 475 50<220 239 172 252>
VStem: 48 113 293 114<102.5 129>
LayerCount: 2
Fore
SplineSet
407 149 m 0
 407 56 329 -11 220 -11 c 0
 194 -11 158 -7 118 2 c 0
 96 6 57 17 45 20 c 1
 45 141 l 1
 110 141 l 1
 126 109 142 78 159 46 c 1
 174 42 181 42 195 42 c 0
 242 42 293 55 293 113 c 0
 293 145 281 159 238 185 c 2
 146 241 l 2
 104 266 86 280 72 301 c 0
 56 323 47 348 47 376 c 0
 47 464 119 525 225 525 c 0
 253 525 294 519 327 513 c 0
 349 508 381 500 391 498 c 1
 391 386 l 1
 326 386 l 1
 281 472 l 1
 268 474 258 475 246 475 c 0
 194 475 160 451 160 412 c 0
 160 384 176 367 220 342 c 2
 308 291 l 2
 349 267 371 249 386 224 c 0
 399 202 407 177 407 149 c 0
EndSplineSet
Substitution2: "'smcp' Lowercase to Small Capitals in Latin lookup 0 subtable" s.smcp
EndChar

StartChar: t
Encoding: 116 116 105
Width: 396
Flags: MW
HStem: -11 20 458 56
VStem: 89 130
LayerCount: 2
Fore
SplineSet
395 24 m 1
 331 8 l 2
 277 -6 239 -11 214 -11 c 0
 180 -11 149 -2 128 13 c 0
 103 32 89 64 89 115 c 2
 89 458 l 1
 10 458 l 1
 10 495 l 1
 63 515 100 534 114 550 c 0
 127 562 154 611 168 643 c 1
 218 643 l 1
 218 514 l 1
 385 514 l 1
 385 459 l 1
 218 459 l 1
 218 148 l 2
 218 114 223 94 233 81 c 0
 247 65 270 56 302 56 c 0
 329 56 353 59 385 66 c 1
 395 24 l 1
EndSplineSet
Substitution2: "'smcp' Lowercase to Small Capitals in Latin lookup 0 subtable" t.smcp
EndChar

StartChar: u
Encoding: 117 117 106
Width: 651
Flags: MW
HStem: -15 20 509 20G<221 221 551 551>
VStem: 93 130 422 130
LayerCount: 2
Fore
SplineSet
638 28 m 1
 422 -15 l 1
 422 43 l 1
 404 37 352 15 334 11 c 0
 295 -4 274 -11 245 -11 c 0
 204 -11 160 2 135 27 c 0
 104 58 92 96 92 161 c 2
 92 430 l 1
 2 458 l 1
 2 486 l 1
 221 529 l 1
 221 188 l 2
 221 137 228 112 245 93 c 0
 263 73 288 65 334 65 c 0
 365 65 391 69 422 74 c 1
 422 430 l 1
 332 458 l 1
 332 486 l 1
 551 529 l 1
 551 83 l 1
 638 56 l 1
 638 28 l 1
EndSplineSet
Substitution2: "'smcp' Lowercase to Small Capitals in Latin lookup 0 subtable" u.smcp
EndChar

StartChar: v
Encoding: 118 118 107
Width: 534
Flags: MW
HStem: -11 20 494 20G<-15 260 260 260 344 554 554 554>
VStem: -15 275<485 514 485 514 485 514> 345 209
LayerCount: 2
Fore
SplineSet
554 485 m 1
 492 447 l 1
 291 -11 l 1
 231 -11 l 1
 51 449 l 1
 -15 484 l 1
 -15 514 l 1
 260 514 l 1
 260 485 l 1
 185 449 l 1
 268 228 l 2
 278 199 285 179 297 134 c 1
 415 446 l 1
 344 484 l 1
 344 514 l 1
 554 514 l 1
 554 485 l 1
EndSplineSet
Substitution2: "'smcp' Lowercase to Small Capitals in Latin lookup 0 subtable" v.smcp
EndChar

StartChar: w
Encoding: 119 119 108
Width: 817
Flags: MW
HStem: -11 20 494 20G<-15 257 257 257 415 471 471 471 625 837 837 837>
VStem: -15 272<485 514 485 514 485 514> 626 211
LayerCount: 2
Fore
SplineSet
837 485 m 1
 774 447 l 1
 587 -11 l 1
 529 -11 l 1
 510 47 432 280 413 337 c 1
 284 -11 l 1
 226 -11 l 1
 52 449 l 1
 -15 484 l 1
 -15 514 l 1
 257 514 l 1
 257 485 l 1
 181 449 l 1
 258 232 l 2
 268 206 274 186 283 153 c 1
 415 514 l 1
 471 514 l 1
 568 230 l 2
 577 204 580 192 591 153 c 1
 700 446 l 1
 625 484 l 1
 625 514 l 1
 837 514 l 1
 837 485 l 1
EndSplineSet
Substitution2: "'smcp' Lowercase to Small Capitals in Latin lookup 0 subtable" w.smcp
EndChar

StartChar: x
Encoding: 120 120 109
Width: 578
Flags: MW
HStem: 0 20 494 20G<16 283 283 283 358 557 557 557>
VStem: 16 267<485 514 485 514 485 514> 308 270<0 29 29 29>
LayerCount: 2
Fore
SplineSet
578 0 m 1
 308 0 l 1
 308 29 l 1
 359 59 l 1
 259 206 l 1
 154 62 l 1
 203 30 l 1
 203 0 l 1
 0 0 l 1
 0 29 l 1
 78 67 l 1
 228 249 l 1
 91 450 l 1
 16 484 l 1
 16 514 l 1
 283 514 l 1
 283 485 l 1
 228 455 l 1
 318 326 l 1
 409 452 l 1
 358 484 l 1
 358 514 l 1
 557 514 l 1
 557 485 l 1
 484 448 l 1
 347 287 l 1
 502 65 l 1
 578 30 l 1
 578 0 l 1
EndSplineSet
Substitution2: "'smcp' Lowercase to Small Capitals in Latin lookup 0 subtable" x.smcp
EndChar

StartChar: y
Encoding: 121 121 110
Width: 529
Flags: MW
HStem: -232 114<63.5 77 -4 124.5> 494 20G<-18 254 254 254 344 549 549 549>
VStem: -18 272<485 514 485 514 485 514> 344 205<485 485 485 514 485 514>
LayerCount: 2
Fore
SplineSet
549 485 m 1
 489 446 l 1
 268 -87 l 2
 225 -191 172 -232 77 -232 c 0
 50 -232 23 -229 -4 -223 c 1
 -4 -118 l 1
 77 -118 l 1
 103 -185 l 1
 156 -175 179 -141 204 -78 c 2
 236 0 l 1
 47 449 l 1
 -18 484 l 1
 -18 514 l 1
 254 514 l 1
 254 485 l 1
 183 450 l 1
 268 224 l 2
 290 166 288 173 299 136 c 1
 414 446 l 1
 344 484 l 1
 344 514 l 1
 549 514 l 1
 549 485 l 1
EndSplineSet
Substitution2: "'smcp' Lowercase to Small Capitals in Latin lookup 0 subtable" y.smcp
EndChar

StartChar: z
Encoding: 122 122 111
Width: 513
Flags: MW
HStem: 0 50<182 366 182 473> 464 50<158 323 158 158>
LayerCount: 2
Fore
SplineSet
473 0 m 1
 35 0 l 1
 35 43 l 1
 323 464 l 1
 158 464 l 1
 106 363 l 1
 56 363 l 1
 56 514 l 1
 473 514 l 1
 473 472 l 1
 182 50 l 1
 366 50 l 1
 424 161 l 1
 473 161 l 1
 473 0 l 1
EndSplineSet
Substitution2: "'smcp' Lowercase to Small Capitals in Latin lookup 0 subtable" z.smcp
EndChar

StartChar: braceleft
Encoding: 123 123 112
Width: 412
Flags: MW
VStem: 156 102
LayerCount: 2
Fore
SplineSet
374 -212 m 1
 291 -210 236 -189 199 -148 c 0
 165 -111 156 -74 156 27 c 2
 156 111 l 2
 156 209 135 239 38 264 c 1
 38 269 l 1
 136 295 155 327 155 423 c 2
 155 506 l 2
 155 607 165 645 198 682 c 0
 235 723 289 742 374 746 c 1
 374 706 l 1
 327 701 300 688 282 660 c 0
 262 632 258 609 258 542 c 2
 258 481 l 2
 258 398 252 360 233 328 c 0
 213 293 178 274 123 267 c 1
 176 261 212 241 233 206 c 0
 255 170 257 123 257 54 c 2
 257 -8 l 2
 257 -74 263 -99 281 -125 c 0
 301 -153 328 -166 374 -171 c 1
 374 -212 l 1
EndSplineSet
EndChar

StartChar: bar
Encoding: 124 124 113
Width: 251
Flags: MW
VStem: 93 66
LayerCount: 2
Fore
SplineSet
159 -244 m 1
 92 -244 l 1
 92 756 l 1
 159 756 l 1
 159 -244 l 1
EndSplineSet
EndChar

StartChar: braceright
Encoding: 125 125 114
Width: 413
Flags: MW
VStem: 155 102
LayerCount: 2
Fore
SplineSet
374 265 m 1
 277 239 257 209 257 112 c 2
 257 28 l 2
 257 -73 247 -111 214 -148 c 0
 176 -189 122 -209 38 -212 c 1
 38 -171 l 1
 84 -167 111 -153 130 -126 c 0
 149 -99 154 -74 154 -9 c 2
 154 54 l 2
 154 122 157 170 179 206 c 0
 200 241 236 261 289 267 c 1
 235 274 199 293 179 328 c 0
 160 360 155 398 155 480 c 2
 155 542 l 2
 155 608 150 632 131 660 c 0
 112 688 86 700 38 705 c 1
 38 746 l 1
 122 743 177 723 213 683 c 0
 248 645 256 608 256 506 c 2
 256 423 l 2
 256 327 276 295 374 270 c 1
 374 265 l 1
EndSplineSet
EndChar

StartChar: asciitilde
Encoding: 126 126 115
Width: 600
Flags: MW
HStem: 255 106<122 156>
LayerCount: 2
Fore
SplineSet
594 366 m 1
 577 287 540 164 439 164 c 0
 399 164 352 182 290 207 c 2
 239 228 l 2
 196 246 167 255 145 255 c 0
 99 255 67 221 47 154 c 1
 6 158 l 1
 30 289 84 361 159 361 c 0
 200 361 240 344 277 329 c 2
 342 302 l 2
 388 284 422 270 454 270 c 0
 502 270 530 299 553 372 c 1
 594 366 l 1
EndSplineSet
EndChar

StartChar: Adieresis
Encoding: 196 196 116
Width: 721
Flags: MW
HStem: 0 20 271 51<242 424 242 443 223 424> 770 114<251.5 291.5 251.5 292 457.5 497>
VStem: 210 124<808.5 827 808.5 843.5> 415 124<810 844.5>
LayerCount: 2
Fore
SplineSet
736 0 m 1
 433 0 l 1
 433 29 l 1
 513 69 l 1
 443 271 l 1
 223 271 l 1
 144 70 l 1
 226 30 l 1
 226 0 l 1
 -15 0 l 1
 -15 29 l 1
 65 69 l 1
 340 715 l 1
 411 715 l 1
 655 70 l 1
 736 30 l 1
 736 0 l 1
424 322 m 1
 368 484 l 2
 353 525 350 535 340 571 c 1
 242 322 l 1
 424 322 l 1
539 829 m 0
 539 791 517 770 477 770 c 0
 437 770 415 790 415 826 c 0
 415 863 437 884 478 884 c 0
 517 884 539 864 539 829 c 0
334 826 m 2
 334 827 l 2
 334 790 312 770 272 770 c 0
 230 770 210 788 210 825 c 0
 210 862 231 884 272 884 c 0
 311 884 334 863 334 826 c 2
EndSplineSet
Substitution2: "'c2sc' Capitals to Small Capitals in Latin lookup 1 subtable" adieresis.smcp
Position2: "'cpsp' Capital Spacing in Latin lookup 0 subtable" dx=7 dy=0 dh=14 dv=0
EndChar

StartChar: Aring
Encoding: 197 197 117
Width: 721
Flags: MW
HStem: 0 20 271 51<242 424 242 443 223 424> 754 38 890 38
VStem: -15 241<0 29 29 29> 252 70 440 70
LayerCount: 2
Fore
SplineSet
736 0 m 1
 433 0 l 1
 433 29 l 1
 513 69 l 1
 443 271 l 1
 223 271 l 1
 144 70 l 1
 226 30 l 1
 226 0 l 1
 -15 0 l 1
 -15 29 l 1
 65 69 l 1
 340 715 l 1
 411 715 l 1
 655 70 l 1
 736 30 l 1
 736 0 l 1
424 322 m 1
 368 484 l 2
 353 525 350 535 340 571 c 1
 242 322 l 1
 424 322 l 1
510 843 m 0
 510 784 467 754 381 754 c 0
 295 754 252 783 252 842 c 0
 252 900 294 928 381 928 c 0
 467 928 510 900 510 843 c 0
441 840 m 0
 441 871 415 891 381 891 c 0
 347 891 321 871 321 841 c 0
 321 810 346 791 381 791 c 0
 416 791 441 810 441 840 c 0
EndSplineSet
Substitution2: "'c2sc' Capitals to Small Capitals in Latin lookup 1 subtable" aring.smcp
Position2: "'cpsp' Capital Spacing in Latin lookup 0 subtable" dx=7 dy=0 dh=14 dv=0
EndChar

StartChar: Ccedilla
Encoding: 199 199 118
Width: 679
Flags: MW
HStem: 664 54<422.5 467 381 480>
VStem: 38 143 408 102<-132 -102.5>
LayerCount: 2
Fore
SplineSet
510 -112 m 0
 510 -182 419 -220 335 -245 c 1
 321 -209 l 1
 383 -176 408 -149 408 -115 c 0
 408 -90 394 -76 369 -72 c 1
 369 -10 l 1
 263 -5 187 25 129 84 c 0
 69 145 37 231 37 336 c 0
 37 473 95 582 191 649 c 0
 255 693 331 718 431 718 c 0
 503 718 568 706 639 689 c 1
 639 522 l 1
 589 522 l 1
 537 660 l 1
 516 662 491 664 469 664 c 0
 376 664 309 639 260 587 c 0
 207 531 180 449 180 349 c 0
 180 262 199 194 236 142 c 0
 283 79 351 50 453 50 c 0
 481 50 493 51 534 55 c 1
 597 193 l 1
 647 193 l 1
 633 28 l 1
 613 22 565 10 539 4 c 0
 499 -4 464 -8 428 -10 c 1
 428 -32 l 1
 474 -39 510 -62 510 -112 c 0
EndSplineSet
Substitution2: "'c2sc' Capitals to Small Capitals in Latin lookup 1 subtable" ccedilla.smcp
Position2: "'cpsp' Capital Spacing in Latin lookup 0 subtable" dx=7 dy=0 dh=14 dv=0
EndChar

StartChar: Eacute
Encoding: 201 201 119
Width: 619
Flags: MW
HStem: 0 50<247 469 247 563> 335 48 660 48<247 462 247 247>
VStem: 113 135
LayerCount: 2
Fore
SplineSet
578 166 m 1
 563 0 l 1
 22 0 l 1
 22 29 l 1
 113 68 l 1
 113 639 l 1
 22 678 l 1
 22 708 l 1
 559 708 l 1
 559 544 l 1
 513 544 l 1
 462 660 l 1
 247 660 l 1
 247 382 l 1
 424 382 l 1
 461 478 l 1
 506 478 l 1
 506 243 l 1
 462 243 l 1
 424 335 l 1
 247 335 l 1
 247 50 l 1
 469 50 l 1
 532 166 l 1
 578 166 l 1
525 912 m 1
 310 756 l 1
 240 756 l 1
 362 912 l 1
 525 912 l 1
EndSplineSet
Substitution2: "'c2sc' Capitals to Small Capitals in Latin lookup 1 subtable" eacute.smcp
Position2: "'cpsp' Capital Spacing in Latin lookup 0 subtable" dx=7 dy=0 dh=14 dv=0
EndChar

StartChar: Ntilde
Encoding: 209 209 120
Width: 758
Flags: MW
HStem: -11 20 827 78
VStem: 23 248 503 248
LayerCount: 2
Fore
SplineSet
750 678 m 1
 660 639 l 1
 660 -11 l 1
 607 -11 l 1
 183 549 l 1
 183 69 l 1
 270 30 l 1
 270 0 l 1
 22 0 l 1
 22 29 l 1
 113 69 l 1
 113 638 l 1
 22 678 l 1
 22 708 l 1
 220 708 l 1
 589 227 l 1
 589 638 l 1
 502 678 l 1
 502 708 l 1
 750 708 l 1
 750 678 l 1
577 863 m 1
 558 837 525 802 502 784 c 0
 490 773 474 770 462 770 c 0
 452 770 440 770 412 783 c 2
 345 815 l 2
 335 820 319 827 312 827 c 0
 300 827 285 814 245 776 c 1
 211 811 l 1
 231 837 264 872 286 890 c 0
 299 901 315 904 327 904 c 0
 337 904 349 904 377 891 c 2
 444 859 l 2
 454 854 469 847 476 847 c 0
 488 847 500 856 544 898 c 1
 577 863 l 1
EndSplineSet
Substitution2: "'c2sc' Capitals to Small Capitals in Latin lookup 1 subtable" ntilde.smcp
Position2: "'cpsp' Capital Spacing in Latin lookup 0 subtable" dx=7 dy=0 dh=14 dv=0
EndChar

StartChar: Odieresis
Encoding: 214 214 121
Width: 773
Flags: MW
HStem: -16 56 665 53<304.5 454.5> 770 114<264.5 304.5 264.5 305 470.5 510>
VStem: 38 145 223 124<808.5 827 808.5 843.5> 429 124 589 147
LayerCount: 2
Fore
SplineSet
735 366 m 0
 735 139 587 -16 370 -16 c 0
 172 -16 37 124 37 331 c 0
 37 548 176 718 397 718 c 0
 606 718 735 571 735 366 c 0
588 348 m 1
 589 348 l 1
 589 512 525 665 384 665 c 0
 225 665 182 484 182 357 c 0
 182 164 262 39 386 39 c 0
 527 39 588 194 588 348 c 1
552 829 m 0
 552 791 530 770 490 770 c 0
 450 770 428 790 428 826 c 0
 428 863 450 884 491 884 c 0
 530 884 552 864 552 829 c 0
347 826 m 2
 347 827 l 2
 347 790 325 770 285 770 c 0
 243 770 223 788 223 825 c 0
 223 862 244 884 285 884 c 0
 324 884 347 863 347 826 c 2
EndSplineSet
Substitution2: "'c2sc' Capitals to Small Capitals in Latin lookup 1 subtable" odieresis.smcp
Position2: "'cpsp' Capital Spacing in Latin lookup 0 subtable" dx=7 dy=0 dh=14 dv=0
EndChar

StartChar: Udieresis
Encoding: 220 220 122
Width: 719
Flags: MW
HStem: -13 60<319 439.5> 770 114<252 291.5 252 292 458 497.5>
VStem: 81 135 416 124<810 844.5> 553 85<223 245 245 638 638 638>
LayerCount: 2
Fore
SplineSet
728 678 m 1
 638 639 l 1
 638 245 l 2
 638 60 525 -13 354 -13 c 0
 189 -13 81 51 81 215 c 2
 81 638 l 1
 -9 678 l 1
 -9 708 l 1
 305 708 l 1
 305 678 l 1
 215 639 l 1
 215 220 l 2
 215 105 261 47 377 47 c 0
 504 47 553 101 553 223 c 2
 553 638 l 1
 463 678 l 1
 463 708 l 1
 728 708 l 1
 728 678 l 1
540 829 m 0
 540 791 518 770 477 770 c 0
 437 770 416 790 416 826 c 0
 416 863 438 884 478 884 c 0
 517 884 540 864 540 829 c 0
334 826 m 2
 334 827 l 2
 334 790 312 770 272 770 c 0
 231 770 210 788 210 825 c 0
 210 862 232 884 272 884 c 0
 311 884 334 863 334 826 c 2
EndSplineSet
Substitution2: "'c2sc' Capitals to Small Capitals in Latin lookup 1 subtable" udieresis.smcp
Position2: "'cpsp' Capital Spacing in Latin lookup 0 subtable" dx=7 dy=0 dh=14 dv=0
EndChar

StartChar: aacute
Encoding: 225 225 123
Width: 547
Flags: MW
HStem: -8 72 477 48
VStem: 28 132 326 127
LayerCount: 2
Fore
SplineSet
542 28 m 1
 531 24 469 5 469 5 c 2
 448 -2 419 -8 397 -8 c 0
 360 -8 342 6 329 43 c 1
 323 40 313 34 276 17 c 0
 239 -1 219 -8 179 -8 c 0
 91 -8 27 46 27 125 c 0
 27 190 69 235 143 251 c 0
 181 260 226 265 294 272 c 0
 309 273 309 273 325 275 c 1
 325 394 l 2
 325 436 317 455 293 467 c 0
 280 473 263 476 240 476 c 0
 229 476 221 476 207 475 c 1
 160 382 l 1
 75 382 l 1
 75 484 l 1
 88 487 117 495 151 503 c 0
 207 518 242 525 285 525 c 0
 334 525 369 516 399 499 c 0
 438 476 452 448 452 395 c 2
 452 109 l 2
 452 95 451 99 453 87 c 0
 455 80 461 77 477 73 c 2
 542 55 l 1
 542 28 l 1
325 73 m 1
 325 238 l 1
 297 234 277 230 244 224 c 0
 183 212 159 190 159 143 c 0
 159 92 193 63 255 63 c 0
 276 63 295 67 319 71 c 2
 325 73 l 1
489 730 m 1
 274 574 l 1
 203 574 l 1
 326 730 l 1
 489 730 l 1
EndSplineSet
Substitution2: "'smcp' Lowercase to Small Capitals in Latin lookup 0 subtable" aacute.smcp
EndChar

StartChar: agrave
Encoding: 224 224 124
Width: 547
Flags: MW
HStem: -8 72 477 48
VStem: 28 132 326 127
LayerCount: 2
Fore
SplineSet
371 575 m 1
 301 574 l 1
 85 730 l 1
 248 730 l 1
 371 575 l 1
542 28 m 1
 531 24 469 5 469 5 c 2
 448 -2 419 -8 397 -8 c 0
 360 -8 342 6 329 43 c 1
 323 40 313 34 276 17 c 0
 239 -1 219 -8 179 -8 c 0
 91 -8 27 46 27 125 c 0
 27 190 69 235 143 251 c 0
 181 260 226 265 294 272 c 0
 309 273 309 273 325 275 c 1
 325 394 l 2
 325 436 317 455 293 467 c 0
 280 473 263 476 240 476 c 0
 229 476 221 476 207 475 c 1
 160 382 l 1
 75 382 l 1
 75 484 l 1
 88 487 117 495 151 503 c 0
 207 518 242 525 285 525 c 0
 334 525 369 516 399 499 c 0
 438 476 452 448 452 395 c 2
 452 109 l 2
 452 95 451 99 453 87 c 0
 455 80 461 77 477 73 c 2
 542 55 l 1
 542 28 l 1
325 73 m 2
 325 238 l 1
 297 234 277 230 244 224 c 0
 183 212 159 190 159 143 c 0
 159 92 193 63 255 63 c 0
 276 63 295 67 319 71 c 2
 319 71 324 73 325 73 c 2
EndSplineSet
Substitution2: "'smcp' Lowercase to Small Capitals in Latin lookup 0 subtable" agrave.smcp
EndChar

StartChar: acircumflex
Encoding: 226 226 125
Width: 547
Flags: MW
HStem: -8 72 477 48 727 20G<263 263>
VStem: 28 132 326 127
LayerCount: 2
Fore
SplineSet
447 569 m 1
 363 569 l 1
 263 635 l 1
 165 569 l 1
 82 569 l 1
 263 747 l 1
 447 569 l 1
542 28 m 1
 531 24 469 5 469 5 c 2
 448 -2 419 -8 397 -8 c 0
 360 -8 342 6 329 43 c 1
 323 40 313 34 276 17 c 0
 239 -1 219 -8 179 -8 c 0
 91 -8 27 46 27 125 c 0
 27 190 69 235 143 251 c 0
 181 260 226 265 294 272 c 0
 309 273 309 273 325 275 c 1
 325 394 l 2
 325 436 317 455 293 467 c 0
 280 473 263 476 240 476 c 0
 229 476 221 476 207 475 c 1
 160 382 l 1
 75 382 l 1
 75 484 l 1
 88 487 117 495 151 503 c 0
 207 518 242 525 285 525 c 0
 334 525 369 516 399 499 c 0
 438 476 452 448 452 395 c 2
 452 109 l 2
 452 95 451 99 453 87 c 0
 455 80 461 77 477 73 c 2
 542 55 l 1
 542 28 l 1
325 73 m 2
 325 238 l 1
 297 234 277 230 244 224 c 0
 183 212 159 190 159 143 c 0
 159 92 193 63 255 63 c 0
 276 63 295 67 319 71 c 2
 319 71 324 73 325 73 c 2
EndSplineSet
Substitution2: "'smcp' Lowercase to Small Capitals in Latin lookup 0 subtable" acircumflex.smcp
EndChar

StartChar: adieresis
Encoding: 228 228 126
Width: 547
Flags: MW
HStem: -8 72 477 48 588 114<145 184.5 145 185 351 390.5>
VStem: 28 132 326 127
LayerCount: 2
Fore
SplineSet
542 28 m 1
 531 24 469 5 469 5 c 2
 448 -2 419 -8 397 -8 c 0
 360 -8 342 6 329 43 c 1
 323 40 313 34 276 17 c 0
 239 -1 219 -8 179 -8 c 0
 91 -8 27 46 27 125 c 0
 27 190 69 235 143 251 c 0
 181 260 226 265 294 272 c 0
 309 273 309 273 325 275 c 1
 325 394 l 2
 325 436 317 455 293 467 c 0
 280 473 263 476 240 476 c 0
 229 476 221 476 207 475 c 1
 160 382 l 1
 75 382 l 1
 75 484 l 1
 88 487 117 495 151 503 c 0
 207 518 242 525 285 525 c 0
 334 525 369 516 399 499 c 0
 438 476 452 448 452 395 c 2
 452 109 l 2
 452 95 451 99 453 87 c 0
 455 80 461 77 477 73 c 2
 542 55 l 1
 542 28 l 1
325 73 m 2
 325 238 l 1
 297 234 277 230 244 224 c 0
 183 212 159 190 159 143 c 0
 159 92 193 63 255 63 c 0
 276 63 295 67 319 71 c 2
 319 71 324 73 325 73 c 2
227 645 m 0
 227 608 205 588 165 588 c 0
 124 588 103 606 103 643 c 0
 103 680 125 702 165 702 c 0
 204 702 227 681 227 645 c 0
433 647 m 0
 433 609 411 588 370 588 c 0
 330 588 309 608 309 644 c 0
 309 681 331 702 371 702 c 0
 410 702 433 682 433 647 c 0
EndSplineSet
Substitution2: "'smcp' Lowercase to Small Capitals in Latin lookup 0 subtable" adieresis.smcp
EndChar

StartChar: atilde
Encoding: 227 227 127
Width: 547
Flags: MW
HStem: -8 72 477 48 645 78
VStem: 28 132 326 127
LayerCount: 2
Fore
SplineSet
458 681 m 1
 438 655 405 620 383 602 c 0
 370 591 354 588 342 588 c 0
 332 588 320 588 292 601 c 2
 225 633 l 2
 215 638 200 645 193 645 c 0
 181 645 165 632 125 594 c 1
 92 629 l 1
 111 655 144 690 167 708 c 0
 179 719 195 722 207 722 c 0
 217 722 229 722 257 709 c 2
 324 677 l 2
 334 672 350 665 357 665 c 0
 369 665 380 674 424 716 c 1
 458 681 l 1
542 28 m 1
 531 24 469 5 469 5 c 2
 448 -2 419 -8 397 -8 c 0
 360 -8 342 6 329 43 c 1
 323 40 313 34 276 17 c 0
 239 -1 219 -8 179 -8 c 0
 91 -8 27 46 27 125 c 0
 27 190 69 235 143 251 c 0
 181 260 226 265 294 272 c 0
 309 273 309 273 325 275 c 1
 325 394 l 2
 325 436 317 455 293 467 c 0
 280 473 263 476 240 476 c 0
 229 476 221 476 207 475 c 1
 160 382 l 1
 75 382 l 1
 75 484 l 1
 88 487 117 495 151 503 c 0
 207 518 242 525 285 525 c 0
 334 525 369 516 399 499 c 0
 438 476 452 448 452 395 c 2
 452 109 l 2
 452 95 451 99 453 87 c 0
 455 80 461 77 477 73 c 2
 542 55 l 1
 542 28 l 1
325 73 m 2
 325 238 l 1
 297 234 277 230 244 224 c 0
 183 212 159 190 159 143 c 0
 159 92 193 63 255 63 c 0
 276 63 295 67 319 71 c 2
 319 71 324 73 325 73 c 2
EndSplineSet
Substitution2: "'smcp' Lowercase to Small Capitals in Latin lookup 0 subtable" atilde.smcp
EndChar

StartChar: aring
Encoding: 229 229 128
Width: 547
Flags: MW
HStem: -8 72 477 48 572 38 708 38
VStem: 28 132 326 127
LayerCount: 2
Fore
SplineSet
542 28 m 1
 531 24 469 5 469 5 c 2
 448 -2 419 -8 397 -8 c 0
 360 -8 342 6 329 43 c 1
 323 40 313 34 276 17 c 0
 239 -1 219 -8 179 -8 c 0
 91 -8 27 46 27 125 c 0
 27 190 69 235 143 251 c 0
 181 260 226 265 294 272 c 0
 309 273 309 273 325 275 c 1
 325 394 l 2
 325 436 317 455 293 467 c 0
 280 473 263 476 240 476 c 0
 229 476 221 476 207 475 c 1
 160 382 l 1
 75 382 l 1
 75 484 l 1
 88 487 117 495 151 503 c 0
 207 518 242 525 285 525 c 0
 334 525 369 516 399 499 c 0
 438 476 452 448 452 395 c 2
 452 109 l 2
 452 95 451 99 453 87 c 0
 455 80 461 77 477 73 c 2
 542 55 l 1
 542 28 l 1
325 73 m 2
 325 238 l 1
 297 234 277 230 244 224 c 0
 183 212 159 190 159 143 c 0
 159 92 193 63 255 63 c 0
 276 63 295 67 319 71 c 2
 319 71 324 73 325 73 c 2
398 661 m 0
 398 602 355 572 269 572 c 0
 182 572 139 601 139 660 c 0
 139 718 182 746 269 746 c 0
 355 746 398 718 398 661 c 0
328 658 m 0
 328 689 303 709 268 709 c 0
 234 709 209 689 209 659 c 0
 209 628 233 609 268 609 c 0
 303 609 328 628 328 658 c 0
EndSplineSet
Substitution2: "'smcp' Lowercase to Small Capitals in Latin lookup 0 subtable" aring.smcp
EndChar

StartChar: ccedilla
Encoding: 231 231 129
Width: 497
Flags: MW
HStem: 476 46<341.5 345>
VStem: 30 135<232.5 318 232.5 325> 295 102<-132 -102.5>
LayerCount: 2
Fore
SplineSet
397 -112 m 0
 397 -182 305 -220 222 -245 c 1
 208 -209 l 1
 270 -176 295 -149 295 -115 c 0
 295 -90 281 -76 256 -72 c 1
 256 -10 l 1
 121 -2 30 99 30 242 c 0
 30 408 149 522 324 522 c 0
 375 522 425 511 476 496 c 1
 476 379 l 1
 393 379 l 1
 345 476 l 1
 338 476 331 476 327 475 c 0
 222 466 165 372 165 264 c 0
 165 201 182 149 214 113 c 0
 247 76 293 58 355 58 c 0
 388 58 406 60 471 73 c 1
 480 33 l 1
 480 33 429 17 413 12 c 0
 374 2 343 -5 315 -8 c 1
 315 -32 l 1
 361 -39 397 -62 397 -112 c 0
EndSplineSet
Substitution2: "'smcp' Lowercase to Small Capitals in Latin lookup 0 subtable" ccedilla.smcp
EndChar

StartChar: eacute
Encoding: 233 233 130
Width: 533
Flags: MW
HStem: -11 70<202.5 369> 270 62<364 364 364 498> 477 48<253.5 288.5>
VStem: 30 136<235.5 270 235.5 290>
LayerCount: 2
Fore
SplineSet
498 270 m 1
 166 270 l 1
 166 201 177 161 207 123 c 0
 240 81 290 59 354 59 c 0
 384 59 426 64 482 75 c 1
 490 35 l 1
 490 35 443 20 419 13 c 0
 360 -4 316 -11 278 -11 c 0
 127 -11 30 92 30 247 c 0
 30 333 63 413 119 463 c 0
 165 504 219 525 288 525 c 0
 371 525 437 489 469 428 c 0
 489 390 495 354 498 270 c 1
364 332 m 1
 364 331 l 2
 363 386 357 418 342 441 c 0
 326 467 305 477 272 477 c 0
 205 477 172 427 166 313 c 1
 364 332 l 1
495 730 m 1
 280 574 l 1
 209 574 l 1
 332 730 l 1
 495 730 l 1
EndSplineSet
Substitution2: "'smcp' Lowercase to Small Capitals in Latin lookup 0 subtable" eacute.smcp
EndChar

StartChar: egrave
Encoding: 232 232 131
Width: 533
Flags: MW
HStem: -11 70<202.5 369> 270 62 477 48<253.5 288.5>
VStem: 30 136<235.5 270 235.5 290>
LayerCount: 2
Fore
SplineSet
370 575 m 1
 300 574 l 1
 84 730 l 1
 247 730 l 1
 370 575 l 1
498 269 m 1
 166 270 l 1
 166 201 177 161 207 123 c 0
 240 81 290 59 354 59 c 0
 384 59 426 64 482 75 c 1
 490 35 l 1
 490 35 443 20 419 13 c 0
 360 -4 316 -11 278 -11 c 0
 127 -11 30 92 30 247 c 0
 30 333 63 413 119 463 c 0
 165 504 219 525 288 525 c 0
 371 525 437 489 469 428 c 0
 489 390 495 354 498 269 c 1
364 332 m 1
 364 331 l 2
 363 386 357 417 342 441 c 0
 326 467 305 477 272 477 c 0
 205 477 172 427 166 313 c 1
 364 332 l 1
EndSplineSet
Substitution2: "'smcp' Lowercase to Small Capitals in Latin lookup 0 subtable" egrave.smcp
EndChar

StartChar: ecircumflex
Encoding: 234 234 132
Width: 533
Flags: MW
HStem: -11 70<202.5 369> 270 62<364 364 364 498> 477 48<253.5 288.5> 727 20G<285 285>
VStem: 30 136<235.5 270 235.5 290>
LayerCount: 2
Fore
SplineSet
498 270 m 1
 166 270 l 1
 166 201 177 161 207 123 c 0
 240 81 290 59 354 59 c 0
 384 59 426 64 482 75 c 1
 490 35 l 1
 490 35 443 20 419 13 c 0
 360 -4 316 -11 278 -11 c 0
 127 -11 30 92 30 247 c 0
 30 333 63 413 119 463 c 0
 165 504 219 525 288 525 c 0
 371 525 437 489 469 428 c 0
 489 390 495 354 498 270 c 1
364 332 m 1
 364 331 l 2
 363 386 357 417 342 441 c 0
 326 467 305 477 272 477 c 0
 205 477 172 427 166 313 c 1
 364 332 l 1
469 569 m 1
 386 569 l 1
 285 635 l 1
 188 569 l 1
 104 569 l 1
 285 747 l 1
 469 569 l 1
EndSplineSet
Substitution2: "'smcp' Lowercase to Small Capitals in Latin lookup 0 subtable" ecircumflex.smcp
EndChar

StartChar: edieresis
Encoding: 235 235 133
Width: 533
Flags: MW
HStem: -11 70<202.5 369> 270 62<364 364 364 498> 477 48<253.5 288.5> 588 114<159.5 199.5 159.5 200 365.5 405>
VStem: 30 136<235.5 270 235.5 290> 323 124<628 662.5>
LayerCount: 2
Fore
SplineSet
498 270 m 1
 166 270 l 1
 166 201 177 161 207 123 c 0
 240 81 290 59 354 59 c 0
 384 59 426 64 482 75 c 1
 490 35 l 1
 490 35 443 20 419 13 c 0
 360 -4 316 -11 278 -11 c 0
 127 -11 30 92 30 247 c 0
 30 333 63 413 119 463 c 0
 165 504 219 525 288 525 c 0
 371 525 437 489 469 428 c 0
 489 390 495 354 498 270 c 1
364 332 m 1
 364 331 l 2
 363 386 357 418 342 441 c 0
 326 467 305 477 272 477 c 0
 205 477 172 427 166 313 c 1
 364 332 l 1
242 645 m 0
 242 608 220 588 180 588 c 0
 138 588 118 606 118 643 c 0
 118 680 139 702 180 702 c 0
 219 702 242 681 242 645 c 0
447 647 m 0
 447 609 425 588 385 588 c 0
 345 588 323 608 323 644 c 0
 323 681 345 702 386 702 c 0
 425 702 447 682 447 647 c 0
EndSplineSet
Substitution2: "'smcp' Lowercase to Small Capitals in Latin lookup 0 subtable" edieresis.smcp
EndChar

StartChar: iacute
Encoding: 237 237 134
Width: 337
Flags: MW
HStem: 0 20
VStem: 110 130
LayerCount: 2
Fore
SplineSet
329 0 m 1
 19 0 l 1
 19 29 l 1
 110 69 l 1
 110 429 l 1
 19 457 l 1
 19 485 l 1
 239 528 l 1
 239 69 l 1
 329 30 l 1
 329 0 l 1
354 730 m 1
 139 574 l 1
 68 574 l 1
 191 730 l 1
 354 730 l 1
EndSplineSet
Substitution2: "'smcp' Lowercase to Small Capitals in Latin lookup 0 subtable" iacute.smcp
EndChar

StartChar: igrave
Encoding: 236 236 135
Width: 337
Flags: MW
HStem: 0 20
VStem: 109 130
LayerCount: 2
Fore
SplineSet
329 0 m 1
 19 0 l 1
 19 29 l 1
 110 69 l 1
 110 429 l 1
 19 457 l 1
 19 485 l 1
 239 528 l 1
 239 69 l 1
 329 30 l 1
 329 0 l 1
266 575 m 1
 196 574 l 1
 -20 730 l 1
 143 730 l 1
 266 575 l 1
EndSplineSet
Substitution2: "'smcp' Lowercase to Small Capitals in Latin lookup 0 subtable" igrave.smcp
EndChar

StartChar: icircumflex
Encoding: 238 238 136
Width: 337
Flags: MW
HStem: 0 20 727 20G<166 166>
VStem: 109 130
LayerCount: 2
Fore
SplineSet
329 0 m 1
 19 0 l 1
 19 29 l 1
 110 69 l 1
 110 429 l 1
 19 457 l 1
 19 485 l 1
 239 528 l 1
 239 69 l 1
 329 30 l 1
 329 0 l 1
350 569 m 1
 267 569 l 1
 166 635 l 1
 69 569 l 1
 -15 569 l 1
 166 747 l 1
 350 569 l 1
EndSplineSet
Substitution2: "'smcp' Lowercase to Small Capitals in Latin lookup 0 subtable" icircumflex.smcp
EndChar

StartChar: idieresis
Encoding: 239 239 137
Width: 337
Flags: MW
HStem: 0 20 588 114<43.5 83.5 43.5 84 249.5 289>
VStem: 109 130
LayerCount: 2
Fore
SplineSet
329 0 m 1
 19 0 l 1
 19 29 l 1
 110 69 l 1
 110 429 l 1
 19 457 l 1
 19 485 l 1
 239 528 l 1
 239 69 l 1
 329 30 l 1
 329 0 l 1
331 647 m 0
 331 609 309 588 269 588 c 0
 229 588 207 608 207 644 c 0
 207 681 229 702 270 702 c 0
 309 702 331 682 331 647 c 0
126 644 m 2
 126 645 l 2
 126 608 104 588 64 588 c 0
 22 588 2 606 2 643 c 0
 2 680 23 702 64 702 c 0
 103 702 126 681 126 644 c 2
EndSplineSet
Substitution2: "'smcp' Lowercase to Small Capitals in Latin lookup 0 subtable" idieresis.smcp
EndChar

StartChar: ntilde
Encoding: 241 241 138
Width: 663
Flags: MW
HStem: 0 20 588 78
VStem: 110 130 439 130
LayerCount: 2
Fore
SplineSet
516 681 m 1
 497 655 464 620 441 602 c 0
 428 591 413 588 401 588 c 0
 391 588 378 588 351 601 c 2
 284 633 l 2
 273 638 258 645 251 645 c 0
 239 645 224 632 184 594 c 1
 150 629 l 1
 170 655 202 690 225 708 c 0
 238 719 254 722 266 722 c 0
 276 722 288 722 316 709 c 2
 383 677 l 2
 393 672 408 665 415 665 c 0
 427 665 439 674 483 716 c 1
 516 681 l 1
658 0 m 1
 365 0 l 1
 365 29 l 1
 439 69 l 1
 439 320 l 2
 439 375 431 399 410 418 c 0
 392 436 366 445 325 445 c 0
 299 445 271 443 239 438 c 1
 239 69 l 1
 313 30 l 1
 313 0 l 1
 20 0 l 1
 20 29 l 1
 110 69 l 1
 110 430 l 1
 20 458 l 1
 20 486 l 1
 239 529 l 1
 239 470 l 1
 268 482 294 492 322 502 c 0
 377 521 388 525 419 525 c 0
 461 525 503 508 530 479 c 0
 559 446 568 413 568 346 c 2
 568 69 l 1
 658 30 l 1
 658 0 l 1
EndSplineSet
Substitution2: "'smcp' Lowercase to Small Capitals in Latin lookup 0 subtable" ntilde.smcp
EndChar

StartChar: oacute
Encoding: 243 243 139
Width: 598
Flags: MW
HStem: -16 56 472 53<255 352.5>
VStem: 30 138 430 138<201 244>
LayerCount: 2
Fore
SplineSet
568 264 m 0
 568 102 456 -16 295 -16 c 0
 135 -16 30 88 30 245 c 0
 30 412 140 525 305 525 c 0
 460 525 568 422 568 264 c 0
430 244 m 1
 431 244 l 1
 431 332 409 472 296 472 c 0
 214 472 167 397 167 264 c 0
 167 178 190 39 301 39 c 0
 408 39 430 158 430 244 c 1
512 730 m 1
 297 574 l 1
 226 574 l 1
 349 730 l 1
 512 730 l 1
EndSplineSet
Substitution2: "'smcp' Lowercase to Small Capitals in Latin lookup 0 subtable" oacute.smcp
EndChar

StartChar: ograve
Encoding: 242 242 140
Width: 598
Flags: MW
HStem: -16 56 472 53<255 352.5>
VStem: 30 138 430 138<201 244>
LayerCount: 2
Fore
SplineSet
395 575 m 1
 326 574 l 1
 110 730 l 1
 273 730 l 1
 395 575 l 1
568 264 m 0
 568 102 456 -16 295 -16 c 0
 135 -16 30 88 30 245 c 0
 30 412 140 525 305 525 c 0
 460 525 568 422 568 264 c 0
430 244 m 1
 431 244 l 1
 431 332 409 472 296 472 c 0
 214 472 167 397 167 264 c 0
 167 178 190 39 301 39 c 0
 408 39 430 158 430 244 c 1
EndSplineSet
Substitution2: "'smcp' Lowercase to Small Capitals in Latin lookup 0 subtable" ograve.smcp
EndChar

StartChar: ocircumflex
Encoding: 244 244 141
Width: 598
Flags: MW
HStem: -16 56 472 53<255 352.5> 727 20G<300 300>
VStem: 30 138 430 138<201 244>
LayerCount: 2
Fore
SplineSet
484 569 m 1
 401 569 l 1
 300 635 l 1
 203 569 l 1
 119 569 l 1
 300 747 l 1
 484 569 l 1
568 264 m 0
 568 102 456 -16 295 -16 c 0
 135 -16 30 88 30 245 c 0
 30 412 140 525 305 525 c 0
 460 525 568 422 568 264 c 0
430 244 m 1
 431 244 l 1
 431 332 409 472 296 472 c 0
 214 472 167 397 167 264 c 0
 167 178 190 39 301 39 c 0
 408 39 430 158 430 244 c 1
EndSplineSet
Substitution2: "'smcp' Lowercase to Small Capitals in Latin lookup 0 subtable" ocircumflex.smcp
EndChar

StartChar: odieresis
Encoding: 246 246 142
Width: 598
Flags: MW
HStem: -16 56 472 53<255 352.5> 588 114<180 219.5 180 220 386 425.5>
VStem: 30 138 430 138<201 244>
LayerCount: 2
Fore
SplineSet
568 264 m 0
 568 102 456 -16 295 -16 c 0
 135 -16 30 88 30 245 c 0
 30 412 140 525 305 525 c 0
 460 525 568 422 568 264 c 0
430 244 m 1
 431 244 l 1
 431 332 409 472 296 472 c 0
 214 472 167 397 167 264 c 0
 167 178 190 39 301 39 c 0
 408 39 430 158 430 244 c 1
262 645 m 0
 262 608 240 588 200 588 c 0
 159 588 138 606 138 643 c 0
 138 680 160 702 200 702 c 0
 239 702 262 681 262 645 c 0
468 647 m 0
 468 609 446 588 405 588 c 0
 365 588 344 608 344 644 c 0
 344 681 366 702 406 702 c 0
 445 702 468 682 468 647 c 0
EndSplineSet
Substitution2: "'smcp' Lowercase to Small Capitals in Latin lookup 0 subtable" odieresis.smcp
EndChar

StartChar: otilde
Encoding: 245 245 143
Width: 598
Flags: MW
HStem: -16 56 472 53<255 352.5> 645 78
VStem: 30 138 430 138<201 244>
LayerCount: 2
Fore
SplineSet
487 681 m 1
 467 655 434 620 412 602 c 0
 399 591 383 588 371 588 c 0
 361 588 349 588 321 601 c 2
 254 633 l 2
 244 638 229 645 222 645 c 0
 210 645 194 632 154 594 c 1
 121 629 l 1
 140 655 173 690 196 708 c 0
 208 719 224 722 236 722 c 0
 246 722 258 722 286 709 c 2
 353 677 l 2
 363 672 379 665 386 665 c 0
 398 665 409 674 453 716 c 1
 487 681 l 1
568 264 m 0
 568 102 456 -16 295 -16 c 0
 135 -16 30 88 30 245 c 0
 30 412 140 525 305 525 c 0
 460 525 568 422 568 264 c 0
430 244 m 1
 431 244 l 1
 431 332 409 472 296 472 c 0
 214 472 167 397 167 264 c 0
 167 178 190 39 301 39 c 0
 408 39 430 158 430 244 c 1
EndSplineSet
Substitution2: "'smcp' Lowercase to Small Capitals in Latin lookup 0 subtable" otilde.smcp
EndChar

StartChar: uacute
Encoding: 250 250 144
Width: 651
Flags: MW
HStem: -15 20
VStem: 93 130 422 130
LayerCount: 2
Fore
SplineSet
638 28 m 1
 422 -15 l 1
 422 43 l 1
 404 37 352 15 334 11 c 0
 295 -4 274 -11 245 -11 c 0
 204 -11 160 2 135 27 c 0
 104 58 92 96 92 161 c 2
 92 430 l 1
 2 458 l 1
 2 486 l 1
 221 529 l 1
 221 188 l 2
 221 137 228 112 245 93 c 0
 263 73 288 65 334 65 c 0
 365 65 391 69 422 74 c 1
 422 430 l 1
 332 458 l 1
 332 486 l 1
 551 529 l 1
 551 83 l 1
 638 56 l 1
 638 28 l 1
532 730 m 1
 317 574 l 1
 246 574 l 1
 369 730 l 1
 532 730 l 1
EndSplineSet
Substitution2: "'smcp' Lowercase to Small Capitals in Latin lookup 0 subtable" uacute.smcp
EndChar

StartChar: ugrave
Encoding: 249 249 145
Width: 651
Flags: MW
HStem: -15 20
VStem: 93 130 422 130
LayerCount: 2
Fore
SplineSet
405 575 m 1
 335 574 l 1
 119 730 l 1
 282 730 l 1
 405 575 l 1
638 27 m 1
 422 -15 l 1
 422 43 l 1
 404 37 352 15 334 11 c 0
 295 -4 274 -11 245 -11 c 0
 204 -11 160 2 135 27 c 0
 104 58 92 96 92 161 c 2
 92 430 l 1
 2 458 l 1
 2 486 l 1
 221 529 l 1
 221 188 l 2
 221 137 228 112 245 93 c 0
 263 73 288 65 334 65 c 0
 365 65 391 69 422 74 c 1
 422 430 l 1
 332 458 l 1
 332 486 l 1
 551 529 l 1
 551 83 l 1
 638 56 l 1
 638 27 l 1
EndSplineSet
Substitution2: "'smcp' Lowercase to Small Capitals in Latin lookup 0 subtable" ugrave.smcp
EndChar

StartChar: ucircumflex
Encoding: 251 251 146
Width: 651
Flags: MW
HStem: -15 20 727 20G<320 320>
VStem: 93 130 422 130
LayerCount: 2
Fore
SplineSet
504 569 m 1
 421 569 l 1
 320 635 l 1
 223 569 l 1
 139 569 l 1
 320 747 l 1
 504 569 l 1
638 27 m 1
 422 -15 l 1
 422 43 l 1
 404 37 352 15 334 11 c 0
 295 -4 274 -11 245 -11 c 0
 204 -11 160 2 135 27 c 0
 104 58 92 96 92 161 c 2
 92 430 l 1
 2 458 l 1
 2 486 l 1
 221 529 l 1
 221 188 l 2
 221 137 228 112 245 93 c 0
 263 73 288 65 334 65 c 0
 365 65 391 69 422 74 c 1
 422 430 l 1
 332 458 l 1
 332 486 l 1
 551 529 l 1
 551 83 l 1
 638 56 l 1
 638 27 l 1
EndSplineSet
Substitution2: "'smcp' Lowercase to Small Capitals in Latin lookup 0 subtable" ucircumflex.smcp
EndChar

StartChar: udieresis
Encoding: 252 252 147
Width: 651
Flags: MW
HStem: -15 20 588 114<205.5 245.5 205.5 246 411.5 451>
VStem: 93 130 422 130
LayerCount: 2
Fore
SplineSet
638 28 m 1
 422 -15 l 1
 422 43 l 1
 404 37 352 15 334 11 c 0
 295 -4 274 -11 245 -11 c 0
 204 -11 160 2 135 27 c 0
 104 58 92 96 92 161 c 2
 92 430 l 1
 2 458 l 1
 2 486 l 1
 221 529 l 1
 221 188 l 2
 221 137 228 112 245 93 c 0
 263 73 288 65 334 65 c 0
 365 65 391 69 422 74 c 1
 422 430 l 1
 332 458 l 1
 332 486 l 1
 551 529 l 1
 551 83 l 1
 638 56 l 1
 638 28 l 1
288 645 m 0
 288 608 266 588 226 588 c 0
 184 588 164 606 164 643 c 0
 164 680 185 702 226 702 c 0
 265 702 288 681 288 645 c 0
493 647 m 0
 493 609 471 588 431 588 c 0
 391 588 369 608 369 644 c 0
 369 681 391 702 432 702 c 0
 471 702 493 682 493 647 c 0
EndSplineSet
Substitution2: "'smcp' Lowercase to Small Capitals in Latin lookup 0 subtable" udieresis.smcp
EndChar

StartChar: dagger
Encoding: 8224 8224 148
Width: 588
Flags: MW
HStem: -229 20
VStem: 219 150<325.5 351>
LayerCount: 2
Fore
SplineSet
523 420 m 1
 319 455 l 1
 356 403 369 371 369 333 c 0
 369 318 368 307 365 276 c 2
 312 -229 l 1
 277 -229 l 1
 223 275 l 2
 220 307 219 318 219 332 c 0
 219 370 231 402 269 455 c 1
 65 419 l 1
 65 533 l 1
 265 499 l 1
 224 733 l 1
 364 733 l 1
 323 499 l 1
 523 533 l 1
 523 420 l 1
EndSplineSet
EndChar

StartChar: degree
Encoding: 176 176 149
Width: 412
Flags: MW
HStem: 444 61 685 61<182 230>
VStem: 55 61<571 619.5 571 636.5> 296 61<570.5 619>
LayerCount: 2
Fore
SplineSet
357 595 m 0
 357 511 290 443 206 443 c 0
 123 443 55 511 55 595 c 0
 55 678 122 746 205 746 c 0
 289 746 357 679 357 595 c 0
296 595 m 0
 296 643 254 685 206 685 c 0
 158 685 116 644 116 595 c 0
 116 547 157 504 205 504 c 0
 254 504 296 546 296 595 c 0
EndSplineSet
EndChar

StartChar: cent
Encoding: 162 162 150
Width: 497
Flags: MW
VStem: 30 135<232.5 309.5 232.5 317.5> 281 195
LayerCount: 2
Fore
SplineSet
480 33 m 1
 480 33 429 17 413 12 c 0
 381 4 355 -2 331 -6 c 1
 331 -85 l 1
 280 -85 l 1
 280 -10 l 1
 274 -10 l 2
 130 -12 30 93 30 242 c 0
 30 393 130 501 280 519 c 1
 280 598 l 1
 331 598 l 1
 331 521 l 1
 335 521 340 521 344 521 c 0
 387 518 431 510 476 496 c 1
 476 379 l 1
 393 379 l 1
 349 474 l 1
 344 474 338 474 336 474 c 0
 335 474 332 474 331 474 c 2
 331 60 l 1
 339 59 347 58 355 58 c 0
 389 58 406 60 471 73 c 1
 480 33 l 1
280 70 m 1
 280 465 l 1
 205 435 165 355 165 264 c 0
 165 201 182 149 214 113 c 0
 232 93 254 79 280 70 c 1
EndSplineSet
EndChar

StartChar: sterling
Encoding: 163 163 151
Width: 580
Flags: MW
HStem: -32 101<429 443.5 429 450> 321 53<47 115 47 116 47 115 248 248 248 401> 622 58
VStem: 116 132<240.5 265 265 321 240.5 321>
LayerCount: 2
Fore
SplineSet
553 123 m 1
 519 36 482 -32 418 -32 c 0
 400 -32 380 -28 347 -20 c 2
 209 17 l 2
 192 22 172 26 160 26 c 0
 134 26 114 17 73 -7 c 0
 71 -7 64 -12 61 -14 c 2
 31 23 l 1
 56 47 l 2
 106 96 116 114 116 182 c 2
 116 321 l 1
 47 321 l 1
 47 374 l 1
 115 374 l 1
 115 481 l 2
 115 557 137 605 186 639 c 0
 226 666 276 680 331 680 c 0
 360 680 385 678 436 667 c 0
 471 660 524 646 524 646 c 1
 524 482 l 1
 476 482 l 1
 426 617 l 1
 402 621 384 623 360 623 c 0
 277 623 247 576 247 499 c 2
 247 374 l 1
 401 374 l 1
 401 321 l 1
 248 321 l 1
 248 265 l 2
 248 216 240 181 223 153 c 0
 207 127 184 105 162 83 c 1
 186 97 213 104 234 104 c 0
 247 104 268 100 288 96 c 2
 391 75 l 2
 415 70 426 69 432 69 c 0
 455 69 484 92 519 142 c 1
 553 123 l 1
EndSplineSet
EndChar

StartChar: section
Encoding: 167 167 152
Width: 574
Flags: MW
HStem: -189 53 632 53<291 311.5 275.5 324>
VStem: 121 111 403 106
LayerCount: 2
Fore
SplineSet
508 264 m 0
 508 193 464 137 376 97 c 1
 432 61 456 22 456 -37 c 0
 456 -85 435 -122 401 -148 c 0
 370 -172 322 -189 277 -189 c 0
 255 -189 235 -187 188 -178 c 0
 158 -173 135 -167 120 -163 c 1
 120 -28 l 1
 171 -28 l 1
 216 -134 l 1
 230 -135 242 -137 253 -137 c 0
 316 -137 347 -112 347 -62 c 0
 347 -26 332 -8 283 22 c 2
 186 79 l 2
 139 108 117 124 98 149 c 0
 77 174 67 205 67 238 c 0
 67 285 90 331 127 362 c 0
 145 377 164 388 200 405 c 1
 143 441 120 479 120 537 c 0
 120 585 142 623 178 649 c 0
 208 671 253 685 298 685 c 0
 325 685 343 684 391 675 c 0
 430 667 458 660 458 660 c 1
 458 524 l 1
 406 524 l 1
 361 630 l 1
 349 630 330 632 318 632 c 0
 264 632 231 607 231 563 c 0
 231 521 255 503 298 478 c 2
 387 426 l 2
 435 397 458 379 478 352 c 0
 499 325 508 297 508 264 c 0
402 227 m 1
 403 227 l 1
 403 285 366 306 313 337 c 2
 232 386 l 1
 188 348 168 313 168 276 c 0
 168 250 178 226 195 209 c 0
 206 197 207 196 265 163 c 2
 342 118 l 1
 385 156 402 187 402 227 c 1
EndSplineSet
EndChar

StartChar: bullet
Encoding: 8226 8226 153
Width: 507
Flags: W
LayerCount: 2
Fore
SplineSet
437 362 m 0
 437 261 355 179 253 179 c 0
 152 179 70 261 70 362 c 0
 70 463 152 546 253 546 c 0
 354 546 437 464 437 362 c 0
EndSplineSet
EndChar

StartChar: paragraph
Encoding: 182 182 154
Width: 605
Flags: MW
HStem: -205 122<246 256 179 292> 642 58<337 416 337 337 510 573 510 510>
VStem: 23 314 416 94<34 35 35 642>
LayerCount: 2
Fore
SplineSet
573 642 m 1
 510 642 l 1
 510 35 l 2
 510 -45 475 -112 433 -150 c 0
 393 -186 322 -205 262 -205 c 0
 230 -205 208 -203 179 -196 c 1
 179 -83 l 1
 256 -83 l 1
 289 -155 l 1
 365 -147 416 -91 416 34 c 2
 416 642 l 1
 337 642 l 1
 337 189 l 1
 337 189 294 180 248 180 c 0
 114 180 22 282 22 428 c 0
 22 589 136 700 304 700 c 0
 343 700 573 700 573 700 c 1
 573 642 l 1
EndSplineSet
EndChar

StartChar: germandbls
Encoding: 223 223 155
Width: 664
Flags: MW
HStem: -11 20 691 58<316.5 364.5>
VStem: 90 130 297 103 430 135<595.5 628>
LayerCount: 2
Fore
SplineSet
649 148 m 0
 649 55 571 -11 461 -11 c 0
 438 -11 407 -7 368 0 c 0
 342 4 290 19 290 19 c 1
 290 138 l 1
 351 138 l 1
 360 122 393 58 402 41 c 1
 430 41 445 43 464 45 c 0
 499 51 534 68 534 111 c 0
 534 143 519 160 474 186 c 2
 386 236 l 2
 324 272 296 312 296 366 c 0
 296 404 309 430 349 471 c 2
 388 510 l 2
 420 542 430 565 430 599 c 0
 430 657 395 691 334 691 c 0
 298 691 267 679 249 660 c 0
 225 634 219 608 219 529 c 2
 219 0 l 1
 0 0 l 1
 0 29 l 1
 89 68 l 1
 89 502 l 2
 89 591 112 644 165 688 c 0
 214 729 277 749 356 749 c 0
 456 749 565 710 565 615 c 0
 565 576 545 546 496 508 c 2
 438 464 l 2
 410 443 399 427 399 407 c 0
 399 374 421 363 460 341 c 2
 547 293 l 2
 622 251 649 213 649 148 c 0
EndSplineSet
Substitution2: "'smcp' Lowercase to Small Capitals in Latin lookup 0 subtable" germandbls.smcp
EndChar

StartChar: registered
Encoding: 174 174 156
Width: 819
Flags: MW
HStem: -23 71 182 212<368 400 400 418 231 400 368 626 368 503> 548 29<368 398 368 368> 678 72
VStem: 30 82<277.5 449.5 277.5 471> 281 87<223 370 223 394 394 536 536 536> 464 94<452.5 497> 708 81<280.5 452>
LayerCount: 2
Fore
SplineSet
626 182 m 1
 503 182 l 1
 379 370 l 1
 368 370 l 1
 368 223 l 1
 418 200 l 1
 418 182 l 1
 231 182 l 1
 231 200 l 1
 281 223 l 1
 281 536 l 1
 231 559 l 1
 231 577 l 1
 423 577 l 2
 490 577 558 561 558 479 c 0
 558 426 528 390 471 376 c 1
 577 223 l 1
 626 200 l 1
 626 182 l 1
464 475 m 0
 464 519 446 548 398 548 c 2
 368 548 l 1
 368 394 l 1
 400 394 l 2
 441 394 464 423 464 475 c 0
789 367 m 0
 789 153 625 -22 411 -23 c 0
 197 -24 30 149 30 363 c 0
 30 579 199 750 415 750 c 0
 632 750 789 581 789 367 c 0
708 367 m 0
 708 537 588 679 415 679 c 0
 241 679 112 536 112 363 c 0
 112 192 239 47 411 47 c 0
 584 47 708 194 708 367 c 0
EndSplineSet
EndChar

StartChar: copyright
Encoding: 169 169 157
Width: 819
Flags: MW
HStem: -23 71 174 35 547 35<411 455 370.5 466.5> 678 72
VStem: 30 82<277.5 449.5 277.5 471> 210 100<328.5 425.5 328.5 439.5> 708 81<280.5 452>
LayerCount: 2
Fore
SplineSet
789 367 m 0
 789 153 625 -22 411 -23 c 0
 197 -24 30 149 30 363 c 0
 30 579 199 750 415 750 c 0
 632 750 789 581 789 367 c 0
708 367 m 0
 708 537 588 679 415 679 c 0
 241 679 112 536 112 363 c 0
 112 192 239 47 411 47 c 0
 584 47 708 194 708 367 c 0
562 293 m 1
 554 196 l 1
 512 185 465 174 417 174 c 0
 293 174 210 244 210 371 c 0
 210 508 307 582 434 582 c 0
 476 582 521 572 558 563 c 1
 558 466 l 1
 523 466 l 1
 493 546 l 1
 482 547 470 547 463 547 c 0
 359 547 310 475 310 376 c 0
 310 281 350 210 455 210 c 0
 468 210 476 210 494 213 c 1
 527 293 l 1
 562 293 l 1
EndSplineSet
EndChar

StartChar: trademark
Encoding: 8482 8482 158
Width: 763
Flags: MW
HStem: 702 35<53 109 53 53 183 238 183 183>
VStem: 109 75 303 132 624 75
LayerCount: 2
Fore
SplineSet
290 640 m 1
 272 639 l 1
 238 702 l 1
 183 702 l 1
 183 430 l 1
 238 412 l 1
 238 387 l 1
 54 387 l 1
 54 411 l 1
 109 430 l 1
 109 702 l 1
 53 702 l 1
 19 639 l 1
 0 639 l 1
 0 737 l 1
 290 737 l 1
 290 640 l 1
743 387 m 1
 580 387 l 1
 580 411 l 1
 624 430 l 1
 624 646 l 1
 520 382 l 1
 495 382 l 1
 390 645 l 1
 390 430 l 1
 435 412 l 1
 435 387 l 1
 302 387 l 1
 302 411 l 1
 347 430 l 1
 347 694 l 1
 302 712 l 1
 302 737 l 1
 433 737 l 1
 522 511 l 1
 612 737 l 1
 743 737 l 1
 743 713 l 1
 698 694 l 1
 698 430 l 1
 743 412 l 1
 743 387 l 1
EndSplineSet
EndChar

StartChar: acute
Encoding: 180 180 159
Width: 281
Flags: W
LayerCount: 2
Fore
SplineSet
301 730 m 1
 86 574 l 1
 15 574 l 1
 137 730 l 1
 301 730 l 1
EndSplineSet
EndChar

StartChar: dieresis
Encoding: 168 168 160
Width: 281
Flags: MW
HStem: 588 114<19 58.5 19 60 225 264.5>
VStem: -23 124<644 661.5> 183 124<628 662.5>
LayerCount: 2
Fore
SplineSet
307 647 m 0
 307 609 285 588 245 588 c 0
 205 588 183 608 183 644 c 0
 183 681 205 702 245 702 c 0
 284 702 307 682 307 647 c 0
101 644 m 1
 102 645 l 1
 102 608 80 588 40 588 c 0
 -2 588 -23 606 -23 643 c 0
 -23 680 -1 702 39 702 c 0
 78 702 101 681 101 644 c 1
EndSplineSet
EndChar

StartChar: notequal
Encoding: 8800 8800 161
Width: 600
Flags: MW
HStem: 184 92 409 92<37 282 37 329>
LayerCount: 2
Fore
SplineSet
562 184 m 1
 269 184 l 1
 191 33 l 1
 109 73 l 1
 166 183 l 1
 37 183 l 1
 37 275 l 1
 213 275 l 1
 282 409 l 1
 37 409 l 1
 37 501 l 1
 329 501 l 1
 405 650 l 1
 488 609 l 1
 433 501 l 1
 562 501 l 1
 562 410 l 1
 385 410 l 1
 316 275 l 1
 562 275 l 1
 562 184 l 1
EndSplineSet
EndChar

StartChar: AE
Encoding: 198 198 162
Width: 917
Flags: MW
HStem: 0 50<569 774 569 867> 319 48<295 442 295 442 271 442> 657 50<427 442 427 427>
VStem: -12 244<0 29 29 29> 442 127<69 319 50 319 367 657 657 657>
LayerCount: 2
Fore
SplineSet
884 166 m 1
 867 0 l 1
 360 0 l 1
 360 29 l 1
 442 69 l 1
 442 319 l 1
 271 319 l 1
 152 69 l 1
 232 30 l 1
 232 0 l 1
 -12 0 l 1
 -12 29 l 1
 69 69 l 1
 391 707 l 1
 863 707 l 1
 863 543 l 1
 817 543 l 1
 766 659 l 1
 569 659 l 1
 569 366 l 1
 728 366 l 1
 765 462 l 1
 811 462 l 1
 811 224 l 1
 766 224 l 1
 729 319 l 1
 569 319 l 1
 569 50 l 1
 774 50 l 1
 836 166 l 1
 884 166 l 1
442 367 m 1
 442 657 l 1
 427 657 l 1
 295 367 l 1
 442 367 l 1
EndSplineSet
Substitution2: "'c2sc' Capitals to Small Capitals in Latin lookup 1 subtable" ae.smcp
Position2: "'cpsp' Capital Spacing in Latin lookup 0 subtable" dx=7 dy=0 dh=14 dv=0
EndChar

StartChar: Oslash
Encoding: 216 216 163
Width: 769
Flags: MW
HStem: -16 56 665 53<306 417>
VStem: 36 143 593 143<267.5 386>
LayerCount: 2
Fore
SplineSet
736 363 m 0
 736 140 585 -16 370 -16 c 0
 303 -16 251 -3 197 27 c 1
 149 -43 l 1
 108 -17 l 1
 157 54 l 1
 73 123 35 217 35 338 c 0
 35 551 181 718 396 718 c 0
 464 718 511 706 569 676 c 1
 611 739 l 1
 652 712 l 1
 609 649 l 1
 694 580 736 487 736 363 c 0
516 597 m 1
 516 596 l 1
 484 644 447 665 387 665 c 0
 225 665 178 492 178 360 c 0
 178 274 189 221 223 149 c 1
 516 597 l 1
593 347 m 0
 593 425 580 497 545 556 c 1
 251 108 l 1
 291 59 329 39 386 39 c 0
 530 39 593 188 593 347 c 0
EndSplineSet
Position2: "'cpsp' Capital Spacing in Latin lookup 0 subtable" dx=7 dy=0 dh=14 dv=0
EndChar

StartChar: infinity
Encoding: 8734 8734 164
Width: 713
Flags: MW
HStem: 164 72<176.5 235 176.5 238.5> 429 72<478.5 537>
VStem: 54 53<299 362.5 299 388> 607 53<302.5 367>
LayerCount: 2
Fore
SplineSet
660 336 m 0
 660 222 586 165 496 165 c 0
 433 165 395 203 365 254 c 2
 348 283 l 1
 317 222 277 164 200 164 c 0
 121 164 54 213 54 329 c 0
 54 447 128 500 218 500 c 0
 284 500 321 460 351 407 c 2
 367 379 l 1
 396 444 435 501 514 501 c 0
 593 501 660 450 660 336 c 0
607 334 m 0
 607 400 566 429 508 429 c 0
 449 429 419 393 391 344 c 1
 410 311 l 2
 432 272 461 239 509 239 c 0
 568 239 607 271 607 334 c 0
326 319 m 1
 305 354 l 2
 279 397 259 426 205 426 c 0
 146 426 107 394 107 331 c 0
 107 267 147 236 206 236 c 0
 264 236 298 270 326 319 c 1
EndSplineSet
EndChar

StartChar: plusminus
Encoding: 177 177 165
Width: 579
Flags: MW
HStem: 0 93<34 540 34 540> 393 94<34 241 34 242 34 241 338 545 338 338>
VStem: 242 96<174 393 174 393>
LayerCount: 2
Fore
SplineSet
545 393 m 1
 338 393 l 1
 338 174 l 1
 242 174 l 1
 242 393 l 1
 34 393 l 1
 34 487 l 1
 241 487 l 1
 241 685 l 1
 337 685 l 1
 337 487 l 1
 545 487 l 1
 545 393 l 1
540 0 m 1
 34 0 l 1
 34 93 l 1
 540 93 l 1
 540 0 l 1
EndSplineSet
EndChar

StartChar: lessequal
Encoding: 8804 8804 166
Width: 669
Flags: MW
HStem: 0 91<35 619 35 619>
LayerCount: 2
Fore
SplineSet
619 148 m 1
 35 401 l 1
 35 439 l 1
 619 695 l 1
 619 591 l 1
 211 421 l 1
 619 252 l 1
 619 148 l 1
619 0 m 1
 35 0 l 1
 35 91 l 1
 619 91 l 1
 619 0 l 1
EndSplineSet
EndChar

StartChar: greaterequal
Encoding: 8805 8805 167
Width: 669
Flags: MW
HStem: 0 91<50 634 50 634>
LayerCount: 2
Fore
SplineSet
634 402 m 1
 50 147 l 1
 50 251 l 1
 458 420 l 1
 50 590 l 1
 50 695 l 1
 634 439 l 1
 634 402 l 1
634 0 m 1
 50 0 l 1
 50 91 l 1
 634 91 l 1
 634 0 l 1
EndSplineSet
EndChar

StartChar: yen
Encoding: 165 165 168
Width: 581
Flags: MW
HStem: 157 49<361 504 361 504> 265 49<84 225 84 227 84 225 361 504>
VStem: 226 135
LayerCount: 2
Fore
SplineSet
590 644 m 1
 509 607 l 1
 361 337 l 1
 361 314 l 1
 504 314 l 1
 504 265 l 1
 361 265 l 1
 361 206 l 1
 504 206 l 1
 504 157 l 1
 361 157 l 1
 361 65 l 1
 476 29 l 1
 476 0 l 1
 111 0 l 1
 111 28 l 1
 227 65 l 1
 227 156 l 1
 84 156 l 1
 84 205 l 1
 227 205 l 1
 227 265 l 1
 84 265 l 1
 84 314 l 1
 225 314 l 1
 74 607 l 1
 -8 643 l 1
 -8 672 l 1
 291 672 l 1
 291 644 l 1
 216 609 l 1
 326 386 l 1
 431 608 l 1
 357 643 l 1
 357 672 l 1
 590 672 l 1
 590 644 l 1
EndSplineSet
EndChar

StartChar: mu
Encoding: 181 181 169
AltUni2: 0003bc.ffffffff.0
Width: 597
Flags: MW
HStem: 495 20G<188 188 508 508>
VStem: 188 159<451 475 451 515>
LayerCount: 2
Fore
SplineSet
415 91 m 1
 415 416 l 2
 415 424 413 433 402 436 c 2
 347 451 l 1
 347 475 l 1
 508 515 l 1
 508 104 l 2
 508 96 509 84 511 80 c 0
 515 73 520 66 538 60 c 2
 577 46 l 1
 577 24 l 1
 521 4 l 2
 510 0 487 -6 475 -6 c 0
 443 -6 421 9 417 43 c 0
 416 52 416 64 416 64 c 1
 340 3 315 -7 259 -7 c 0
 225 -7 185 10 169 37 c 1
 169 -178 l 1
 58 -209 l 1
 52 -186 l 1
 65 -176 72 -169 83 -155 c 0
 97 -138 95 -76 95 -39 c 2
 95 416 l 2
 95 424 93 433 82 436 c 2
 27 451 l 1
 27 475 l 1
 188 515 l 1
 188 257 l 2
 188 195 189 148 200 123 c 0
 215 88 258 62 310 62 c 0
 341 62 415 91 415 91 c 1
EndSplineSet
EndChar

StartChar: partialdiff
Encoding: 8706 8706 170
Width: 560
Flags: MW
HStem: -9 54<203.5 301 203.5 346.5> 497 52<233.5 319.5 198.5 328> 795 46<247 273 233 356>
VStem: 40 101<147 249 147 294.5> 392 123<299.5 637.5>
LayerCount: 2
Fore
SplineSet
515 533 m 0
 515 319 467 -9 226 -9 c 0
 110 -9 40 70 40 211 c 0
 40 378 111 549 286 549 c 0
 353 549 402 517 424 463 c 1
 425 483 427 521 427 539 c 0
 427 721 383 795 273 795 c 2
 233 795 l 1
 214 764 191 711 144 711 c 0
 111 711 88 733 88 763 c 0
 88 781 98 796 116 807 c 0
 146 825 217 841 277 841 c 0
 435 841 515 742 515 533 c 0
392 346 m 0
 392 451 359 497 297 497 c 0
 170 497 141 296 141 202 c 0
 141 92 170 45 237 45 c 0
 365 45 392 253 392 346 c 0
EndSplineSet
EndChar

StartChar: summation
Encoding: 8721 8721 171
Width: 632
Flags: MW
HStem: -242 87<39 507 123 507 123 597> 703 55<166 493 166 166>
LayerCount: 2
Fore
SplineSet
39 -242 m 1
 39 -181 l 1
 336 275 l 1
 35 721 l 1
 35 758 l 1
 578 758 l 1
 578 589 l 1
 543 589 l 1
 493 703 l 1
 166 703 l 1
 428 314 l 1
 123 -155 l 1
 507 -155 l 1
 562 -41 l 1
 597 -41 l 1
 597 -242 l 1
 39 -242 l 1
EndSplineSet
EndChar

StartChar: product
Encoding: 8719 8719 172
Width: 823
Flags: MW
VStem: 305 213<-242 -216 -242 -216>
LayerCount: 2
Fore
SplineSet
25 732 m 1
 25 758 l 1
 798 758 l 1
 798 732 l 1
 710 696 l 1
 710 -179 l 1
 798 -216 l 1
 798 -242 l 1
 518 -242 l 1
 518 -216 l 1
 607 -179 l 1
 607 703 l 1
 217 703 l 1
 217 -179 l 1
 305 -216 l 1
 305 -242 l 1
 25 -242 l 1
 25 -216 l 1
 114 -179 l 1
 114 696 l 1
 25 732 l 1
EndSplineSet
EndChar

StartChar: pi
Encoding: 960 960 173
Width: 595
Flags: MW
HStem: 437 68<197 255 255 255 255 393> 510 20G<561 561>
VStem: 121 76<150 437 11 437> 393 94<107.5 140 140 437>
LayerCount: 2
Fore
SplineSet
121 437 m 1
 116 437 l 2
 79 437 52 420 22 380 c 1
 0 395 l 1
 0 395 14 423 22 437 c 0
 51 489 74 508 160 506 c 0
 189 505 220 506 255 505 c 2
 428 501 l 2
 514 499 535 506 561 530 c 1
 580 517 l 1
 554 437 l 1
 487 437 l 1
 487 140 l 2
 487 75 483 68 530 52 c 2
 556 43 l 1
 556 21 l 1
 513 6 l 2
 489 -3 470 -9 453 -9 c 0
 408 -9 393 13 393 74 c 2
 393 437 l 1
 197 437 l 1
 197 11 l 1
 84 -20 l 1
 78 3 l 1
 91 13 98 20 109 34 c 0
 123 51 121 102 121 150 c 2
 121 437 l 1
EndSplineSet
EndChar

StartChar: integral
Encoding: 8747 8747 174
Width: 448
Flags: MW
HStem: -207 109<40 126> 680 109<322 408>
VStem: 180 88
LayerCount: 2
Fore
SplineSet
448 734 m 0
 448 706 422 680 394 680 c 0
 356 680 338 721 323 750 c 1
 310 750 286 731 281 723 c 0
 263 699 259 674 259 646 c 0
 259 599 264 472 268 360 c 0
 272 244 280 127 280 11 c 0
 280 -49 270 -114 211 -169 c 0
 196 -183 145 -207 107 -207 c 0
 43 -207 0 -185 0 -152 c 0
 0 -124 26 -98 54 -98 c 0
 92 -98 110 -139 125 -168 c 1
 138 -168 162 -149 167 -141 c 0
 185 -117 189 -92 189 -64 c 0
 189 -17 185 79 180 222 c 0
 176 336 168 452 168 566 c 0
 168 628 179 696 239 753 c 0
 254 767 303 789 341 789 c 0
 405 789 448 767 448 734 c 0
EndSplineSet
EndChar

StartChar: ordfeminine
Encoding: 170 170 175
Width: 367
Flags: MW
HStem: 401 45 686 31
VStem: 23 88<476.5 500.5> 217 85
LayerCount: 2
Fore
SplineSet
360 422 m 1
 352 420 311 408 311 408 c 2
 297 405 279 401 264 401 c 0
 240 401 228 409 219 430 c 1
 215 428 200 421 186 415 c 0
 162 405 148 401 122 401 c 0
 65 401 23 433 23 481 c 0
 23 520 50 547 99 556 c 0
 137 564 177 567 216 570 c 1
 216 639 l 2
 216 663 211 674 196 681 c 0
 188 684 177 687 162 687 c 0
 155 687 150 686 141 685 c 1
 111 631 l 1
 53 631 l 1
 53 693 l 1
 63 695 81 700 104 705 c 0
 140 713 163 717 192 717 c 0
 223 717 247 712 266 702 c 0
 292 688 301 671 301 639 c 2
 301 476 l 2
 301 457 304 460 317 456 c 2
 360 440 l 1
 360 422 l 1
216 451 m 2
 216 545 l 1
 198 543 186 541 165 537 c 0
 126 531 111 518 111 491 c 0
 111 462 132 445 172 445 c 0
 186 445 198 447 213 450 c 2
 213 450 215 451 216 451 c 2
EndSplineSet
EndChar

StartChar: ordmasculine
Encoding: 186 186 176
Width: 385
Flags: MW
HStem: 394 39<161.5 224 161.5 243.5> 678 38<165.5 225>
VStem: 18 94<533 597.5 533 598.5> 274 94<518 576>
LayerCount: 2
Fore
SplineSet
368 561 m 0
 368 466 297 394 190 394 c 0
 86 394 18 456 18 550 c 0
 18 647 86 716 197 716 c 0
 303 716 368 651 368 561 c 0
274 550 m 0
 274 602 259 678 191 678 c 0
 140 678 112 635 112 560 c 0
 112 506 127 433 196 433 c 0
 252 433 274 486 274 550 c 0
EndSplineSet
EndChar

StartChar: Omega
Encoding: 937 937 177
AltUni2: 002126.ffffffff.0
Width: 786
Flags: MW
HStem: 0 72<143 291 143 343 505 643> 664 47<313.5 483.5>
VStem: 72 108<301 458 301 475.5> 608 110<302.5 452>
LayerCount: 2
Fore
SplineSet
291 72 m 1
 173 115 72 221 72 374 c 0
 72 577 198 711 401 711 c 0
 608 711 718 581 718 385 c 0
 718 220 604 109 505 72 c 1
 643 72 l 1
 701 160 l 1
 741 160 l 1
 722 0 l 1
 454 0 l 1
 454 79 l 1
 546 94 608 207 608 374 c 0
 608 530 566 664 401 664 c 0
 226 664 180 531 180 385 c 0
 180 217 248 93 343 79 c 1
 343 0 l 1
 64 0 l 1
 45 160 l 1
 85 160 l 1
 143 72 l 1
 291 72 l 1
EndSplineSet
EndChar

StartChar: ae
Encoding: 230 230 178
Width: 811
Flags: MW
HStem: -11 70<514.5 658> 266 60 470 49<210 317.5>
VStem: 33 130 328 121
LayerCount: 2
Fore
SplineSet
780 267 m 1
 448 267 l 1
 450 195 461 160 490 123 c 0
 523 81 574 59 640 59 c 0
 676 59 712 64 764 75 c 1
 773 35 l 1
 691 7 626 -11 555 -11 c 0
 474 -11 415 17 371 76 c 1
 317 22 247 -11 183 -11 c 0
 97 -11 33 47 33 124 c 0
 33 186 69 228 136 248 c 0
 193 265 259 271 328 276 c 1
 328 388 l 2
 328 432 320 451 296 462 c 0
 285 468 266 471 241 471 c 0
 235 471 218 470 210 470 c 1
 164 377 l 1
 78 377 l 1
 78 478 l 1
 158 502 226 519 288 519 c 0
 347 519 389 503 420 468 c 1
 463 503 510 519 570 519 c 0
 655 519 719 484 751 421 c 0
 773 380 779 344 780 267 c 1
647 326 m 1
 645 384 639 410 622 436 c 0
 608 459 584 472 555 472 c 0
 479 472 453 389 448 308 c 1
 647 326 l 1
328 90 m 1
 328 238 l 1
 271 231 252 227 221 218 c 0
 180 205 162 182 162 143 c 0
 162 97 195 66 243 66 c 0
 271 66 291 72 328 90 c 1
EndSplineSet
Substitution2: "'smcp' Lowercase to Small Capitals in Latin lookup 0 subtable" ae.smcp
EndChar

StartChar: oslash
Encoding: 248 248 179
Width: 601
Flags: MW
HStem: -16 56 469 53<255.5 315>
VStem: 32 135 435 135<180.5 273.5>
LayerCount: 2
Fore
SplineSet
570 260 m 0
 570 93 447 -16 291 -16 c 0
 254 -16 230 -12 193 1 c 1
 161 -59 l 1
 121 -39 l 1
 153 20 l 1
 72 71 32 144 32 246 c 0
 32 417 148 522 305 522 c 0
 345 522 369 518 408 505 c 1
 443 571 l 1
 483 549 l 1
 449 485 l 1
 530 431 570 359 570 260 c 0
435 244 m 0
 435 303 427 343 404 398 c 1
 229 69 l 1
 251 48 273 39 306 39 c 0
 386 39 435 117 435 244 c 0
374 440 m 1
 375 439 l 2
 350 462 332 469 298 469 c 0
 213 469 166 396 166 263 c 0
 166 200 174 163 199 106 c 1
 374 440 l 1
EndSplineSet
EndChar

StartChar: questiondown
Encoding: 191 191 180
Width: 469
Flags: MW
HStem: -189 56<240.5 256.5> 406 119<234 284>
VStem: 17 143 184 151<465 485>
LayerCount: 2
Fore
SplineSet
17 -6 m 0
 17 62 43 117 100 170 c 2
 189 251 l 2
 220 280 226 288 228 327 c 0
 228 332 229 352 229 359 c 1
 289 359 l 1
 289 353 291 329 292 323 c 0
 293 313 293 303 293 296 c 0
 292 265 286 255 256 209 c 2
 204 129 l 2
 176 85 159 43 159 -8 c 0
 159 -90 201 -133 280 -133 c 0
 311 -133 327 -131 352 -126 c 1
 404 6 l 1
 452 6 l 1
 452 -152 l 1
 439 -155 396 -167 362 -174 c 0
 311 -184 274 -189 239 -189 c 0
 114 -189 17 -131 17 -6 c 0
185 466 m 1
 184 465 l 1
 184 505 209 525 259 525 c 0
 310 525 335 506 335 466 c 0
 335 426 310 406 258 406 c 0
 210 406 185 427 185 466 c 1
EndSplineSet
EndChar

StartChar: exclamdown
Encoding: 161 161 181
Width: 282
Flags: MW
HStem: 402 122<111.5 161 110.5 161.5>
VStem: 62 151<444.5 482>
LayerCount: 2
Fore
SplineSet
213 465 m 0
 213 424 187 402 136 402 c 0
 87 402 62 422 62 462 c 0
 62 502 86 524 135 524 c 0
 187 524 213 505 213 465 c 0
219 -191 m 1
 53 -191 l 1
 110 348 l 1
 162 348 l 1
 219 -191 l 1
EndSplineSet
EndChar

StartChar: logicalnot
Encoding: 172 172 182
Width: 579
Flags: MW
HStem: 305 96<37 448 37 536>
VStem: 448 88<113 113 113 305 305 305>
LayerCount: 2
Fore
SplineSet
536 113 m 1
 448 112 l 1
 448 305 l 1
 37 305 l 1
 37 401 l 1
 536 401 l 1
 536 113 l 1
EndSplineSet
EndChar

StartChar: radical
Encoding: 8730 8730 183
Width: 550
Flags: MW
HStem: -3 127 815 71<562 744 562 562>
LayerCount: 2
Fore
SplineSet
744 815 m 1
 562 815 l 1
 284 -3 l 1
 182 -3 l 1
 49 452 l 1
 -19 487 l 1
 -19 518 l 1
 149 518 l 1
 236 191 l 2
 244 159 247 154 252 123 c 1
 260 153 265 169 273 192 c 2
 505 886 l 1
 744 886 l 1
 744 815 l 1
EndSplineSet
EndChar

StartChar: florin
Encoding: 402 402 184
Width: 582
Flags: MW
HStem: -232 124<17.5 27 -51 63> 458 56<115 206 108 212> 624 119<502 502>
LayerCount: 2
Fore
SplineSet
582 625 m 1
 502 624 l 1
 466 697 l 1
 434 691 411 681 392 663 c 0
 368 640 355 611 349 564 c 2
 342 514 l 1
 475 514 l 1
 467 459 l 1
 335 459 l 1
 276 31 l 2
 259 -85 240 -131 190 -175 c 0
 148 -212 94 -232 32 -232 c 0
 3 -232 -24 -229 -51 -224 c 1
 -51 -108 l 1
 27 -108 l 1
 64 -186 l 1
 111 -173 136 -133 145 -53 c 2
 206 458 l 1
 108 458 l 1
 115 514 l 1
 212 514 l 1
 214 527 l 2
 223 609 249 659 306 695 c 0
 356 728 419 743 488 743 c 0
 518 743 549 740 582 734 c 1
 582 625 l 1
EndSplineSet
EndChar

StartChar: approxequal
Encoding: 8776 8776 185
Width: 579
Flags: MW
HStem: 238 90<147.5 173.5> 433 90<147.5 173.5>
LayerCount: 2
Fore
SplineSet
555 499 m 1
 526 431 474 366 411 366 c 0
 384 366 366 367 325 384 c 2
 233 419 l 2
 198 433 185 433 162 433 c 0
 133 433 98 405 75 365 c 1
 23 389 l 1
 54 457 105 523 168 523 c 0
 194 523 212 524 256 507 c 2
 347 471 l 2
 385 456 399 457 417 457 c 0
 446 457 481 489 503 525 c 1
 555 499 l 1
555 303 m 1
 526 235 474 172 411 172 c 0
 384 172 366 173 325 190 c 2
 233 225 l 2
 198 239 185 238 162 238 c 0
 133 238 98 209 75 168 c 1
 23 193 l 1
 54 261 105 328 168 328 c 0
 194 328 212 329 256 312 c 2
 347 276 l 2
 385 262 399 262 417 262 c 0
 446 262 481 293 503 329 c 1
 555 303 l 1
EndSplineSet
EndChar

StartChar: Delta
Encoding: 916 916 186
AltUni2: 002206.ffffffff.0
Width: 707
Flags: MW
HStem: 0 75<108 563 108 687>
LayerCount: 2
Fore
SplineSet
343 736 m 1
 370 736 l 1
 687 30 l 1
 687 0 l 1
 20 0 l 1
 20 30 l 1
 343 736 l 1
563 75 m 1
 340 589 l 1
 108 75 l 1
 563 75 l 1
EndSplineSet
EndChar

StartChar: guillemotleft
Encoding: 171 171 187
Width: 422
Flags: W
LayerCount: 2
Fore
SplineSet
382 61 m 1
 305 60 l 1
 186 261 l 1
 304 467 l 1
 382 467 l 1
 261 262 l 1
 382 61 l 1
230 60 m 1
 154 60 l 1
 35 261 l 1
 154 467 l 1
 230 467 l 1
 111 262 l 1
 230 60 l 1
EndSplineSet
EndChar

StartChar: guillemotright
Encoding: 187 187 188
Width: 422
Flags: W
LayerCount: 2
Fore
SplineSet
390 266 m 1
 271 60 l 1
 194 60 l 1
 313 265 l 1
 194 467 l 1
 270 467 l 1
 390 266 l 1
238 266 m 1
 121 60 l 1
 43 60 l 1
 164 265 l 1
 43 467 l 1
 120 467 l 1
 238 266 l 1
EndSplineSet
EndChar

StartChar: ellipsis
Encoding: 8230 8230 189
Width: 1012
Flags: MW
HStem: -15 147<148 188.5 486.5 527 823.5 863.5>
VStem: 95 147<38.5 79> 433 147<38.5 79> 770 147<38.5 79>
LayerCount: 2
Fore
SplineSet
917 59 m 0
 917 18 884 -15 844 -15 c 0
 803 -15 770 18 770 59 c 0
 770 99 803 132 843 132 c 0
 884 132 917 99 917 59 c 0
580 59 m 0
 580 18 547 -15 507 -15 c 0
 466 -15 433 18 433 59 c 0
 433 99 466 132 507 132 c 0
 547 132 580 99 580 59 c 0
242 59 m 0
 242 18 209 -15 168 -15 c 0
 128 -15 95 18 95 59 c 0
 95 99 128 132 168 132 c 0
 209 132 242 99 242 59 c 0
EndSplineSet
EndChar

StartChar: Agrave
Encoding: 192 192 191
Width: 721
Flags: MW
HStem: 0 20 271 51<242 424 242 443 223 424>
VStem: -15 241<0 29 29 29> 433 303<0 29 29 29>
LayerCount: 2
Fore
SplineSet
736 0 m 1
 433 0 l 1
 433 29 l 1
 513 69 l 1
 443 271 l 1
 223 271 l 1
 144 70 l 1
 226 30 l 1
 226 0 l 1
 -15 0 l 1
 -15 29 l 1
 65 69 l 1
 340 715 l 1
 411 715 l 1
 655 70 l 1
 736 30 l 1
 736 0 l 1
424 322 m 1
 368 484 l 2
 353 525 350 535 340 571 c 1
 242 322 l 1
 424 322 l 1
468 757 m 1
 398 756 l 1
 182 912 l 1
 345 912 l 1
 468 757 l 1
EndSplineSet
Substitution2: "'c2sc' Capitals to Small Capitals in Latin lookup 1 subtable" agrave.smcp
Position2: "'cpsp' Capital Spacing in Latin lookup 0 subtable" dx=7 dy=0 dh=14 dv=0
EndChar

StartChar: Atilde
Encoding: 195 195 192
Width: 721
Flags: MW
HStem: 0 20 271 51<242 424 242 443 223 424> 770 78
VStem: -15 241<0 29 29 29> 433 303<0 29 29 29>
LayerCount: 2
Fore
SplineSet
736 0 m 1
 433 0 l 1
 433 29 l 1
 513 69 l 1
 443 271 l 1
 223 271 l 1
 144 70 l 1
 226 30 l 1
 226 0 l 1
 -15 0 l 1
 -15 29 l 1
 65 69 l 1
 340 715 l 1
 411 715 l 1
 655 70 l 1
 736 30 l 1
 736 0 l 1
424 322 m 1
 368 484 l 2
 353 525 350 535 340 571 c 1
 242 322 l 1
 424 322 l 1
573 863 m 1
 554 837 521 802 498 784 c 0
 485 773 470 770 458 770 c 0
 448 770 436 770 408 783 c 2
 341 815 l 2
 331 820 315 827 308 827 c 0
 296 827 281 814 241 776 c 1
 207 811 l 1
 227 837 260 872 282 890 c 0
 295 901 311 904 323 904 c 0
 333 904 345 904 373 891 c 2
 440 859 l 2
 450 854 465 847 472 847 c 0
 484 847 496 856 540 898 c 1
 573 863 l 1
EndSplineSet
Substitution2: "'c2sc' Capitals to Small Capitals in Latin lookup 1 subtable" atilde.smcp
Position2: "'cpsp' Capital Spacing in Latin lookup 0 subtable" dx=7 dy=0 dh=14 dv=0
EndChar

StartChar: Otilde
Encoding: 213 213 193
Width: 773
Flags: MW
HStem: -16 56 665 53<304.5 454.5>
VStem: 38 145 589 147
LayerCount: 2
Fore
SplineSet
735 366 m 0
 735 139 587 -16 370 -16 c 0
 172 -16 37 124 37 331 c 0
 37 548 176 718 397 718 c 0
 606 718 735 571 735 366 c 0
588 348 m 1
 589 348 l 1
 589 512 525 665 384 665 c 0
 225 665 182 484 182 357 c 0
 182 164 262 39 386 39 c 0
 527 39 588 194 588 348 c 1
579 863 m 1
 560 837 527 802 504 784 c 0
 491 773 476 770 464 770 c 0
 454 770 441 770 414 783 c 2
 347 815 l 2
 337 820 321 827 314 827 c 0
 302 827 287 814 247 776 c 1
 213 811 l 1
 233 837 266 872 288 890 c 0
 301 901 317 904 329 904 c 0
 339 904 351 904 379 891 c 2
 446 859 l 2
 456 854 471 847 478 847 c 0
 490 847 502 856 546 898 c 1
 579 863 l 1
EndSplineSet
Substitution2: "'c2sc' Capitals to Small Capitals in Latin lookup 1 subtable" otilde.smcp
Position2: "'cpsp' Capital Spacing in Latin lookup 0 subtable" dx=7 dy=0 dh=14 dv=0
EndChar

StartChar: OE
Encoding: 338 338 194
Width: 969
Flags: MW
HStem: -11 53<327 384.5> 334 48 662 54<317.5 407.5>
VStem: 36 146 477 133
LayerCount: 2
Fore
SplineSet
930 164 m 1
 915 0 l 1
 464 0 l 1
 426 -8 400 -11 369 -11 c 0
 169 -11 35 129 35 341 c 0
 35 568 179 716 397 716 c 0
 430 716 460 713 493 707 c 1
 493 707 695 707 911 707 c 1
 911 543 l 1
 866 543 l 1
 816 657 l 1
 609 657 l 1
 609 382 l 1
 778 382 l 1
 815 477 l 1
 861 477 l 1
 861 242 l 1
 816 242 l 1
 779 335 l 1
 609 335 l 1
 609 47 l 1
 824 47 l 1
 884 164 l 1
 930 164 l 1
477 63 m 1
 477 638 l 1
 446 656 425 662 390 662 c 0
 245 662 181 520 181 362 c 0
 181 167 262 42 392 42 c 0
 424 42 445 48 477 63 c 1
EndSplineSet
Substitution2: "'c2sc' Capitals to Small Capitals in Latin lookup 1 subtable" oe.smcp
Position2: "'cpsp' Capital Spacing in Latin lookup 0 subtable" dx=7 dy=0 dh=14 dv=0
EndChar

StartChar: oe
Encoding: 339 339 195
Width: 920
Flags: MW
HStem: -16 56 270 62<752 752 752 885> 477 48<647.5 676>
VStem: 30 138 430 123
LayerCount: 2
Fore
SplineSet
431 244 m 0
 431 332 409 472 296 472 c 0
 214 472 167 397 167 264 c 0
 167 178 190 39 301 39 c 0
 408 39 431 158 431 244 c 0
885 270 m 1
 553 270 l 1
 553 201 564 161 595 123 c 0
 628 81 677 59 742 59 c 0
 771 59 814 64 870 75 c 1
 878 35 l 1
 878 35 830 20 806 13 c 0
 747 -4 704 -11 666 -11 c 0
 586 -11 522 19 487 71 c 1
 443 15 375 -16 295 -16 c 0
 134 -16 30 88 30 245 c 0
 30 412 140 525 305 525 c 0
 384 525 460 491 495 440 c 1
 506 454 517 465 529 474 c 0
 569 506 620 525 675 525 c 0
 759 525 825 489 856 428 c 0
 876 390 882 354 885 270 c 1
752 332 m 1
 752 331 l 2
 750 386 744 417 729 441 c 0
 713 467 693 477 659 477 c 0
 593 477 560 427 554 313 c 1
 752 332 l 1
EndSplineSet
Substitution2: "'smcp' Lowercase to Small Capitals in Latin lookup 0 subtable" oe.smcp
EndChar

StartChar: endash
Encoding: 8211 8211 196
Width: 500
Flags: MW
HStem: 230 96<0 500 0 500>
LayerCount: 2
Fore
SplineSet
500 230 m 1
 0 230 l 1
 0 326 l 1
 500 326 l 1
 500 230 l 1
EndSplineSet
EndChar

StartChar: emdash
Encoding: 8212 8212 197
Width: 1000
Flags: MW
HStem: 230 97<0 1000>
LayerCount: 2
Fore
SplineSet
1000 230 m 1
 0 229 l 1
 0 327 l 1
 1000 327 l 1
 1000 230 l 1
EndSplineSet
EndChar

StartChar: quotedblleft
Encoding: 8220 8220 198
Width: 469
Flags: MW
VStem: 48 86 253 86
LayerCount: 2
Fore
SplineSet
415 535 m 0
 415 495 385 470 339 470 c 0
 284 470 253 503 253 563 c 0
 253 654 306 697 390 719 c 1
 406 676 l 1
 357 655 341 637 338 593 c 1
 342 593 353 594 355 592 c 0
 394 589 415 568 415 535 c 0
208 535 m 1
 209 535 l 1
 209 495 179 470 133 470 c 0
 78 470 47 503 47 563 c 0
 47 655 100 697 184 719 c 1
 201 676 l 1
 151 655 135 637 133 593 c 1
 137 593 147 594 150 592 c 0
 188 589 208 568 208 535 c 1
EndSplineSet
EndChar

StartChar: quotedblright
Encoding: 8221 8221 199
Width: 469
Flags: MW
HStem: 697 20G<105 156 311 362>
VStem: 127 88 333 87
LayerCount: 2
Fore
SplineSet
420 624 m 0
 420 532 366 490 282 469 c 1
 265 512 l 1
 315 532 330 551 333 594 c 1
 327 594 321 595 317 595 c 0
 279 599 258 619 258 652 c 0
 258 692 288 717 334 717 c 0
 390 717 420 685 420 624 c 0
214 624 m 1
 215 624 l 1
 215 532 160 490 76 469 c 1
 59 512 l 1
 109 532 125 551 127 594 c 1
 121 594 115 595 111 595 c 0
 73 599 53 619 53 652 c 0
 53 692 82 717 128 717 c 0
 184 717 214 685 214 624 c 1
EndSplineSet
EndChar

StartChar: quoteleft
Encoding: 8216 8216 200
Width: 291
Flags: MW
VStem: 65 86
LayerCount: 2
Fore
SplineSet
226 535 m 0
 226 495 196 470 150 470 c 0
 95 470 64 503 64 563 c 0
 64 655 117 697 201 719 c 1
 218 676 l 1
 168 655 152 637 150 593 c 1
 154 593 164 594 167 592 c 0
 205 589 226 568 226 535 c 0
EndSplineSet
EndChar

StartChar: quoteright
Encoding: 8217 8217 201
Width: 292
Flags: MW
HStem: 697 20G<117 168>
VStem: 139 88
LayerCount: 2
Fore
SplineSet
227 624 m 0
 227 532 172 490 88 469 c 1
 71 512 l 1
 121 532 137 551 139 594 c 1
 133 594 127 595 123 595 c 0
 85 599 65 619 65 652 c 0
 65 692 94 717 140 717 c 0
 196 717 227 685 227 624 c 0
EndSplineSet
EndChar

StartChar: divide
Encoding: 247 247 202
Width: 600
Flags: MW
HStem: 84 141<280.5 319 279.5 319.5> 298 94 461 141<280.5 318.5 279.5 319.5>
VStem: 230 141
LayerCount: 2
Fore
SplineSet
370 532 m 0
 370 493 339 461 300 461 c 0
 261 461 229 493 229 532 c 0
 229 571 260 602 299 602 c 0
 338 602 370 571 370 532 c 0
553 297 m 1
 47 297 l 1
 47 392 l 1
 553 392 l 1
 553 297 l 1
370 154 m 2
 370 155 l 2
 370 116 339 84 300 84 c 0
 261 84 229 115 229 154 c 0
 229 193 260 225 299 225 c 0
 339 225 370 194 370 154 c 2
EndSplineSet
EndChar

StartChar: lozenge
Encoding: 9674 9674 203
Width: 494
Flags: MW
HStem: 726 20G<252 252>
LayerCount: 2
Fore
SplineSet
497 382 m 1
 250 2 l 1
 4 367 l 1
 252 746 l 1
 497 382 l 1
404 377 m 1
 248 608 l 1
 94 372 l 1
 251 138 l 1
 404 377 l 1
EndSplineSet
EndChar

StartChar: ydieresis
Encoding: 255 255 204
Width: 529
Flags: MW
HStem: -232 114<63.5 77 -4 124.5> 588 114<162 201.5 162 202 368 407.5>
VStem: 120 124<626.5 645 626.5 661.5> 325 124
LayerCount: 2
Fore
SplineSet
549 485 m 1
 489 446 l 1
 268 -87 l 2
 225 -191 172 -232 77 -232 c 0
 50 -232 23 -229 -4 -223 c 1
 -4 -118 l 1
 77 -118 l 1
 103 -185 l 1
 156 -175 179 -141 204 -78 c 2
 236 0 l 1
 47 449 l 1
 -18 484 l 1
 -18 514 l 1
 254 514 l 1
 254 485 l 1
 183 450 l 1
 268 224 l 2
 290 166 288 173 299 136 c 1
 414 446 l 1
 344 484 l 1
 344 514 l 1
 549 514 l 1
 549 485 l 1
450 647 m 0
 450 609 428 588 387 588 c 0
 347 588 326 608 326 644 c 0
 326 681 348 702 388 702 c 0
 427 702 450 682 450 647 c 0
244 644 m 2
 244 645 l 2
 244 608 222 588 182 588 c 0
 141 588 120 606 120 643 c 0
 120 680 142 702 182 702 c 0
 221 702 244 681 244 644 c 2
EndSplineSet
Substitution2: "'smcp' Lowercase to Small Capitals in Latin lookup 0 subtable" ydieresis.smcp
EndChar

StartChar: Ydieresis
Encoding: 376 376 205
Width: 644
Flags: MW
HStem: 0 20 769 114<226 265.5 226 266 432 471.5>
VStem: 253 135 389 124
LayerCount: 2
Fore
SplineSet
661 678 m 1
 579 639 l 1
 388 355 l 1
 388 69 l 1
 503 30 l 1
 503 0 l 1
 138 0 l 1
 138 29 l 1
 254 69 l 1
 254 325 l 1
 55 638 l 1
 -27 678 l 1
 -27 708 l 1
 283 708 l 1
 283 678 l 1
 208 640 l 1
 354 407 l 1
 495 640 l 1
 421 678 l 1
 421 708 l 1
 661 708 l 1
 661 678 l 1
514 828 m 0
 514 790 492 769 451 769 c 0
 411 769 390 789 390 825 c 0
 390 863 412 883 452 883 c 0
 491 883 514 863 514 828 c 0
308 826 m 0
 308 789 286 769 246 769 c 0
 205 769 184 788 184 824 c 0
 184 862 206 883 246 883 c 0
 285 883 308 862 308 826 c 0
EndSplineSet
Substitution2: "'c2sc' Capitals to Small Capitals in Latin lookup 1 subtable" ydieresis.smcp
Position2: "'cpsp' Capital Spacing in Latin lookup 0 subtable" dx=7 dy=0 dh=14 dv=0
EndChar

StartChar: fraction
Encoding: 8260 8260 206
AltUni2: 002215.ffffffff.0
Width: 146
Flags: MW
HStem: -16 20
LayerCount: 2
Fore
SplineSet
336 686 m 1
 -87 -16 l 1
 -161 -16 l 1
 262 686 l 1
 336 686 l 1
EndSplineSet
EndChar

StartChar: f_j
Encoding: 65537 -1 207
Width: 662
Flags: MW
HStem: -232 116<344 351 268 389.5> 458 56<25 110 25 110> 699 52<363.5 398>
VStem: 110 130 453 130<-43 -1 -1 459 459 459>
LayerCount: 2
Fore
SplineSet
594 665 m 0
 594 628 563 603 524 603 c 0
 494 603 471 611 459 633 c 1
 446 640 426 696 426 696 c 1
 426 696 407 699 389 699 c 0
 338 699 312 685 292 672 c 0
 254 646 239 613 239 544 c 2
 239 514 l 1
 502 514 l 1
 583 528 l 1
 583 -1 l 2
 583 -85 565 -133 516 -177 c 0
 472 -215 421 -232 358 -232 c 0
 330 -232 301 -229 268 -223 c 1
 268 -116 l 1
 351 -116 l 1
 378 -185 l 1
 433 -168 453 -135 453 -57 c 2
 453 459 l 1
 239 459 l 1
 239 69 l 1
 314 30 l 1
 314 0 l 1
 20 0 l 1
 20 29 l 1
 110 69 l 1
 110 458 l 1
 25 458 l 1
 25 514 l 1
 110 514 l 1
 110 525 l 2
 110 606 140 666 202 705 c 0
 248 734 312 751 381 751 c 0
 455 751 528 738 558 723 c 0
 582 711 594 694 594 665 c 0
EndSplineSet
Ligature2: "'liga' Standard Ligatures in Latin lookup 8 subtable" f j
Substitution2: "'smcp' Lowercase to Small Capitals in Latin lookup 0 subtable" f_j.smcp
EndChar

StartChar: guilsinglleft
Encoding: 8249 8249 208
Width: 272
Flags: W
LayerCount: 2
Fore
SplineSet
231 61 m 1
 154 60 l 1
 35 260 l 1
 153 467 l 1
 230 467 l 1
 110 261 l 1
 231 61 l 1
EndSplineSet
EndChar

StartChar: guilsinglright
Encoding: 8250 8250 209
Width: 272
Flags: W
LayerCount: 2
Fore
SplineSet
239 267 m 1
 120 60 l 1
 43 60 l 1
 164 266 l 1
 43 467 l 1
 120 467 l 1
 239 267 l 1
EndSplineSet
EndChar

StartChar: fi
Encoding: 61441 61441 210
AltUni2: 00fb01.ffffffff.0
Width: 685
Flags: MW
HStem: 0 20 458 56<25 110 25 110> 699 52<363.5 398>
VStem: 110 130 453 130
LayerCount: 2
Fore
SplineSet
673 0 m 1
 378 0 l 1
 378 29 l 1
 453 69 l 1
 453 459 l 1
 239 459 l 1
 239 69 l 1
 314 30 l 1
 314 0 l 1
 20 0 l 1
 20 29 l 1
 110 69 l 1
 110 458 l 1
 25 458 l 1
 25 514 l 1
 110 514 l 1
 110 525 l 2
 110 606 140 666 202 705 c 0
 248 734 312 751 381 751 c 0
 455 751 528 738 558 723 c 0
 582 711 594 694 594 665 c 0
 594 628 563 603 524 603 c 0
 494 603 471 611 459 633 c 1
 446 640 426 696 426 696 c 1
 426 696 407 699 389 699 c 0
 338 699 312 685 292 672 c 0
 254 646 239 613 239 544 c 2
 239 514 l 1
 502 514 l 1
 582 528 l 1
 582 69 l 1
 673 30 l 1
 673 0 l 1
EndSplineSet
Ligature2: "'liga' Standard Ligatures in Latin lookup 7 subtable" f i
Substitution2: "'smcp' Lowercase to Small Capitals in Latin lookup 0 subtable" fi.smcp
EndChar

StartChar: fl
Encoding: 61442 61442 211
AltUni2: 00fb02.ffffffff.0
Width: 677
Flags: MW
HStem: 0 20 458 56<25 110 25 110> 699 52<360 392.5>
VStem: 110 130 452 130
LayerCount: 2
Fore
SplineSet
672 0 m 1
 378 0 l 1
 378 29 l 1
 453 69 l 1
 453 634 l 1
 421 696 l 1
 408 698 404 699 381 699 c 0
 339 699 299 681 281 665 c 0
 250 638 239 608 239 542 c 2
 239 514 l 1
 350 514 l 1
 350 459 l 1
 239 459 l 1
 239 69 l 1
 314 30 l 1
 314 0 l 1
 20 0 l 1
 20 29 l 1
 110 69 l 1
 110 458 l 1
 25 458 l 1
 25 514 l 1
 110 514 l 1
 110 524 l 2
 110 617 151 678 228 717 c 0
 262 734 316 751 377 751 c 0
 431 751 455 749 512 737 c 1
 582 751 l 1
 582 408 582 69 582 69 c 1
 672 30 l 1
 672 0 l 1
EndSplineSet
Ligature2: "'liga' Standard Ligatures in Latin lookup 8 subtable" f l
Substitution2: "'smcp' Lowercase to Small Capitals in Latin lookup 0 subtable" fl.smcp
EndChar

StartChar: daggerdbl
Encoding: 8225 8225 212
Width: 582
Flags: MW
HStem: -229 20
LayerCount: 2
Fore
SplineSet
518 -29 m 1
 317 5 l 1
 356 -229 l 1
 224 -229 l 1
 265 5 l 1
 67 -26 l 1
 65 85 l 1
 267 48 l 1
 224 252 l 1
 267 455 l 1
 65 419 l 1
 65 533 l 1
 265 499 l 1
 224 733 l 1
 356 733 l 1
 317 499 l 1
 518 533 l 1
 518 421 l 1
 317 455 l 1
 356 252 l 1
 317 48 l 1
 518 83 l 1
 518 -29 l 1
EndSplineSet
EndChar

StartChar: periodcentered
Encoding: 183 183 213
AltUni2: 002219.ffffffff.0
Width: 291
Flags: MW
HStem: 190 147<124.5 165>
VStem: 71 147<243.5 284>
LayerCount: 2
Fore
SplineSet
218 264 m 0
 218 223 185 190 145 190 c 0
 104 190 71 223 71 264 c 0
 71 304 104 337 145 337 c 0
 185 337 218 304 218 264 c 0
EndSplineSet
EndChar

StartChar: quotesinglbase
Encoding: 8218 8218 214
Width: 292
Flags: MW
VStem: 139 88
LayerCount: 2
Fore
SplineSet
227 34 m 0
 227 -57 172 -99 88 -121 c 1
 71 -78 l 1
 121 -57 137 -38 139 5 c 1
 136 5 125 4 123 6 c 0
 85 10 65 30 65 63 c 0
 65 102 94 127 140 127 c 0
 196 127 227 94 227 34 c 0
EndSplineSet
EndChar

StartChar: quotedblbase
Encoding: 8222 8222 215
Width: 469
Flags: MW
VStem: 127 88 258 162<46.5 64 -11.5 82>
LayerCount: 2
Fore
SplineSet
420 34 m 0
 420 -57 366 -99 282 -121 c 1
 265 -78 l 1
 315 -57 330 -38 333 5 c 1
 330 5 319 4 317 6 c 0
 279 10 258 30 258 63 c 0
 258 101 288 127 334 127 c 0
 390 127 420 94 420 34 c 0
214 34 m 1
 215 34 l 1
 215 -57 160 -99 76 -121 c 1
 59 -78 l 1
 109 -57 125 -38 127 5 c 1
 124 5 113 4 111 6 c 0
 73 10 53 30 53 63 c 0
 53 101 82 127 128 127 c 0
 184 127 214 94 214 34 c 1
EndSplineSet
EndChar

StartChar: perthousand
Encoding: 8240 8240 216
Width: 1113
Flags: MW
HStem: -9 58<502 553.5 502 579.5> 258 58<502.5 554.5> 379 58<170.5 222 170.5 248.5> 647 57<171 223>
VStem: 30 84<508.5 574.5 508.5 590> 362 84<120 185.5 120 201.5> 612 84<121 186.5> 749 84<120.5 186 120.5 202> 999 84<121.5 187>
LayerCount: 2
Fore
SplineSet
364 544 m 0
 364 445 299 379 198 379 c 0
 95 379 30 441 30 539 c 0
 30 641 94 704 196 704 c 0
 300 704 364 643 364 544 c 0
280 542 m 0
 280 608 249 647 197 647 c 0
 145 647 114 608 114 541 c 0
 114 476 145 437 196 437 c 0
 248 437 280 477 280 542 c 0
664 700 m 1
 151 -1 l 1
 71 -1 l 1
 584 700 l 1
 664 700 l 1
696 156 m 0
 696 57 630 -9 529 -9 c 0
 426 -9 362 53 362 151 c 0
 362 252 425 316 528 316 c 0
 631 316 696 255 696 156 c 0
612 154 m 0
 612 219 581 258 528 258 c 0
 477 258 446 219 446 152 c 0
 446 88 477 49 527 49 c 0
 580 49 612 88 612 154 c 0
1083 157 m 0
 1083 57 1017 -9 916 -9 c 0
 813 -9 749 53 749 151 c 0
 749 253 812 317 915 317 c 0
 1018 317 1083 256 1083 157 c 0
999 154 m 0
 999 220 968 259 915 259 c 0
 864 259 833 219 833 153 c 0
 833 88 864 50 914 50 c 0
 967 50 999 89 999 154 c 0
EndSplineSet
Ligature2: "Ligature Substitution lookup 11 subtable" zero fraction zero zero
Ligature2: "Ligature Substitution lookup 11 subtable" zero slash zero zero
EndChar

StartChar: Acircumflex
Encoding: 194 194 217
Width: 721
Flags: MW
HStem: 0 20 271 51<242 424 242 443 223 424>
VStem: -15 241<0 29 29 29> 433 303<0 29 29 29>
LayerCount: 2
Fore
SplineSet
736 0 m 1
 433 0 l 1
 433 29 l 1
 513 69 l 1
 443 271 l 1
 223 271 l 1
 144 70 l 1
 226 30 l 1
 226 0 l 1
 -15 0 l 1
 -15 29 l 1
 65 69 l 1
 340 715 l 1
 411 715 l 1
 655 70 l 1
 736 30 l 1
 736 0 l 1
424 322 m 1
 368 484 l 2
 353 525 350 535 340 571 c 1
 242 322 l 1
 424 322 l 1
561 751 m 1
 477 751 l 1
 377 817 l 1
 279 751 l 1
 196 751 l 1
 377 929 l 1
 561 751 l 1
EndSplineSet
Substitution2: "'c2sc' Capitals to Small Capitals in Latin lookup 1 subtable" acircumflex.smcp
Position2: "'cpsp' Capital Spacing in Latin lookup 0 subtable" dx=7 dy=0 dh=14 dv=0
EndChar

StartChar: Ecircumflex
Encoding: 202 202 218
Width: 619
Flags: MW
HStem: 0 50<247 469 247 563> 335 48 660 48<247 462 247 247>
VStem: 113 135
LayerCount: 2
Fore
SplineSet
578 166 m 1
 563 0 l 1
 22 0 l 1
 22 29 l 1
 113 68 l 1
 113 639 l 1
 22 678 l 1
 22 708 l 1
 559 708 l 1
 559 544 l 1
 513 544 l 1
 462 660 l 1
 247 660 l 1
 247 382 l 1
 424 382 l 1
 461 478 l 1
 506 478 l 1
 506 243 l 1
 462 243 l 1
 424 335 l 1
 247 335 l 1
 247 50 l 1
 469 50 l 1
 532 166 l 1
 578 166 l 1
499 751 m 1
 416 751 l 1
 315 817 l 1
 218 751 l 1
 134 751 l 1
 315 929 l 1
 499 751 l 1
EndSplineSet
Substitution2: "'c2sc' Capitals to Small Capitals in Latin lookup 1 subtable" ecircumflex.smcp
Position2: "'cpsp' Capital Spacing in Latin lookup 0 subtable" dx=7 dy=0 dh=14 dv=0
EndChar

StartChar: Aacute
Encoding: 193 193 219
Width: 721
Flags: MW
HStem: 0 20 271 51<242 424 242 443 223 424>
VStem: -15 241<0 29 29 29> 433 303<0 29 29 29>
LayerCount: 2
Fore
SplineSet
736 0 m 1
 433 0 l 1
 433 29 l 1
 513 69 l 1
 443 271 l 1
 223 271 l 1
 144 70 l 1
 226 30 l 1
 226 0 l 1
 -15 0 l 1
 -15 29 l 1
 65 69 l 1
 340 715 l 1
 411 715 l 1
 655 70 l 1
 736 30 l 1
 736 0 l 1
424 322 m 1
 368 484 l 2
 353 525 350 535 340 571 c 1
 242 322 l 1
 424 322 l 1
573 912 m 1
 358 756 l 1
 287 756 l 1
 410 912 l 1
 573 912 l 1
EndSplineSet
Substitution2: "'c2sc' Capitals to Small Capitals in Latin lookup 1 subtable" aacute.smcp
Position2: "'cpsp' Capital Spacing in Latin lookup 0 subtable" dx=7 dy=0 dh=14 dv=0
EndChar

StartChar: Edieresis
Encoding: 203 203 220
Width: 619
Flags: MW
HStem: 0 50<247 469 247 563> 335 48 660 48<247 462 247 247> 770 114<188.5 228.5 188.5 229 394.5 434>
VStem: 113 135 353 124
LayerCount: 2
Fore
SplineSet
578 166 m 1
 563 0 l 1
 22 0 l 1
 22 29 l 1
 113 68 l 1
 113 639 l 1
 22 678 l 1
 22 708 l 1
 559 708 l 1
 559 544 l 1
 513 544 l 1
 462 660 l 1
 247 660 l 1
 247 382 l 1
 424 382 l 1
 461 478 l 1
 506 478 l 1
 506 243 l 1
 462 243 l 1
 424 335 l 1
 247 335 l 1
 247 50 l 1
 469 50 l 1
 532 166 l 1
 578 166 l 1
476 829 m 0
 476 791 454 770 414 770 c 0
 374 770 352 790 352 826 c 0
 352 863 374 884 415 884 c 0
 454 884 476 864 476 829 c 0
271 826 m 2
 271 827 l 2
 271 790 249 770 209 770 c 0
 167 770 147 788 147 825 c 0
 147 862 168 884 209 884 c 0
 248 884 271 863 271 826 c 2
EndSplineSet
Substitution2: "'c2sc' Capitals to Small Capitals in Latin lookup 1 subtable" edieresis.smcp
Position2: "'cpsp' Capital Spacing in Latin lookup 0 subtable" dx=7 dy=0 dh=14 dv=0
EndChar

StartChar: Egrave
Encoding: 200 200 221
Width: 619
Flags: MW
HStem: 0 50<247 469 247 563> 335 48 660 48<247 462 247 247>
VStem: 113 135
LayerCount: 2
Fore
SplineSet
578 166 m 1
 563 0 l 1
 22 0 l 1
 22 29 l 1
 113 68 l 1
 113 639 l 1
 22 678 l 1
 22 708 l 1
 559 708 l 1
 559 544 l 1
 513 544 l 1
 462 660 l 1
 247 660 l 1
 247 382 l 1
 424 382 l 1
 461 478 l 1
 506 478 l 1
 506 243 l 1
 462 243 l 1
 424 335 l 1
 247 335 l 1
 247 50 l 1
 469 50 l 1
 532 166 l 1
 578 166 l 1
419 757 m 1
 349 756 l 1
 133 912 l 1
 296 912 l 1
 419 757 l 1
EndSplineSet
Substitution2: "'c2sc' Capitals to Small Capitals in Latin lookup 1 subtable" egrave.smcp
Position2: "'cpsp' Capital Spacing in Latin lookup 0 subtable" dx=7 dy=0 dh=14 dv=0
EndChar

StartChar: Iacute
Encoding: 205 205 222
Width: 359
Flags: MW
HStem: 0 20
VStem: 113 135
LayerCount: 2
Fore
SplineSet
337 0 m 1
 22 0 l 1
 22 29 l 1
 113 69 l 1
 113 638 l 1
 22 678 l 1
 22 708 l 1
 337 708 l 1
 337 678 l 1
 247 639 l 1
 247 69 l 1
 337 30 l 1
 337 0 l 1
361 912 m 1
 146 756 l 1
 76 756 l 1
 198 912 l 1
 361 912 l 1
EndSplineSet
Substitution2: "'c2sc' Capitals to Small Capitals in Latin lookup 1 subtable" iacute.smcp
Position2: "'cpsp' Capital Spacing in Latin lookup 0 subtable" dx=7 dy=0 dh=14 dv=0
EndChar

StartChar: Icircumflex
Encoding: 206 206 223
Width: 359
Flags: MW
HStem: 0 20
VStem: 112 135
LayerCount: 2
Fore
SplineSet
337 0 m 1
 22 0 l 1
 22 29 l 1
 113 69 l 1
 113 638 l 1
 22 678 l 1
 22 708 l 1
 337 708 l 1
 337 678 l 1
 247 639 l 1
 247 69 l 1
 337 30 l 1
 337 0 l 1
362 751 m 1
 278 751 l 1
 178 817 l 1
 80 751 l 1
 -3 751 l 1
 178 929 l 1
 362 751 l 1
EndSplineSet
Substitution2: "'c2sc' Capitals to Small Capitals in Latin lookup 1 subtable" icircumflex.smcp
Position2: "'cpsp' Capital Spacing in Latin lookup 0 subtable" dx=7 dy=0 dh=14 dv=0
EndChar

StartChar: Idieresis
Encoding: 207 207 224
Width: 359
Flags: MW
HStem: 0 20 770 114<55.5 95.5 55.5 96 261.5 301>
VStem: 112 135
LayerCount: 2
Fore
SplineSet
337 0 m 1
 22 0 l 1
 22 29 l 1
 113 69 l 1
 113 638 l 1
 22 678 l 1
 22 708 l 1
 337 708 l 1
 337 678 l 1
 247 639 l 1
 247 69 l 1
 337 30 l 1
 337 0 l 1
343 829 m 0
 343 791 321 770 281 770 c 0
 241 770 219 790 219 826 c 0
 219 863 241 884 282 884 c 0
 321 884 343 864 343 829 c 0
138 826 m 2
 138 827 l 2
 138 790 116 770 76 770 c 0
 34 770 14 788 14 825 c 0
 14 862 35 884 76 884 c 0
 115 884 138 863 138 826 c 2
EndSplineSet
Substitution2: "'c2sc' Capitals to Small Capitals in Latin lookup 1 subtable" idieresis.smcp
Position2: "'cpsp' Capital Spacing in Latin lookup 0 subtable" dx=7 dy=0 dh=14 dv=0
EndChar

StartChar: Igrave
Encoding: 204 204 225
Width: 359
Flags: MW
HStem: 0 20
VStem: 112 135
LayerCount: 2
Fore
SplineSet
337 0 m 1
 22 0 l 1
 22 29 l 1
 113 69 l 1
 113 638 l 1
 22 678 l 1
 22 708 l 1
 337 708 l 1
 337 678 l 1
 247 639 l 1
 247 69 l 1
 337 30 l 1
 337 0 l 1
281 757 m 1
 211 756 l 1
 -5 912 l 1
 158 912 l 1
 281 757 l 1
EndSplineSet
Substitution2: "'c2sc' Capitals to Small Capitals in Latin lookup 1 subtable" igrave.smcp
Position2: "'cpsp' Capital Spacing in Latin lookup 0 subtable" dx=7 dy=0 dh=14 dv=0
EndChar

StartChar: Oacute
Encoding: 211 211 226
Width: 773
Flags: MW
HStem: -16 56 665 53<304.5 454.5>
VStem: 38 145 589 147
LayerCount: 2
Fore
SplineSet
735 366 m 0
 735 139 587 -16 370 -16 c 0
 172 -16 37 124 37 331 c 0
 37 548 176 718 397 718 c 0
 606 718 735 571 735 366 c 0
588 348 m 1
 589 348 l 1
 589 512 525 665 384 665 c 0
 225 665 182 484 182 357 c 0
 182 164 262 39 386 39 c 0
 527 39 588 194 588 348 c 1
586 912 m 1
 371 756 l 1
 301 756 l 1
 423 912 l 1
 586 912 l 1
EndSplineSet
Substitution2: "'c2sc' Capitals to Small Capitals in Latin lookup 1 subtable" oacute.smcp
Position2: "'cpsp' Capital Spacing in Latin lookup 0 subtable" dx=7 dy=0 dh=14 dv=0
EndChar

StartChar: Ocircumflex
Encoding: 212 212 227
Width: 773
Flags: MW
HStem: -16 56 665 53<304.5 454.5>
VStem: 38 145 589 147
LayerCount: 2
Fore
SplineSet
735 366 m 0
 735 139 587 -16 370 -16 c 0
 172 -16 37 124 37 331 c 0
 37 548 176 718 397 718 c 0
 606 718 735 571 735 366 c 0
588 348 m 1
 589 348 l 1
 589 512 525 665 384 665 c 0
 225 665 182 484 182 357 c 0
 182 164 262 39 386 39 c 0
 527 39 588 194 588 348 c 1
580 751 m 1
 497 751 l 1
 396 817 l 1
 299 751 l 1
 215 751 l 1
 396 929 l 1
 580 751 l 1
EndSplineSet
Substitution2: "'c2sc' Capitals to Small Capitals in Latin lookup 1 subtable" ocircumflex.smcp
Position2: "'cpsp' Capital Spacing in Latin lookup 0 subtable" dx=7 dy=0 dh=14 dv=0
EndChar

StartChar: apple
Encoding: 61440 61440 228
AltUni2: 00f8ff.ffffffff.0
Width: 681
Flags: MW
HStem: -232 20 402 68<604 624>
VStem: 192 162
LayerCount: 2
Fore
SplineSet
624 402 m 1
 508 408 l 1
 508 408 474 400 450 396 c 0
 420 391 387 386 357 384 c 1
 356 370 354 345 354 331 c 0
 354 293 360 249 370 202 c 0
 375 181 381 158 388 134 c 0
 419 31 467 -62 545 -218 c 2
 552 -232 l 1
 538 -225 528 -220 525 -218 c 0
 476 -189 405 -120 349 -47 c 0
 308 7 271 70 239 143 c 0
 206 219 191 274 192 326 c 0
 193 378 193 359 193 384 c 1
 172 387 154 392 134 399 c 0
 127 401 123 402 120 403 c 2
 107 405 l 1
 129 458 162 473 214 486 c 1
 248 553 278 598 321 646 c 0
 354 682 379 702 417 721 c 0
 448 737 464 743 506 756 c 1
 497 744 l 2
 465 701 452 687 430 651 c 0
 397 595 375 544 363 492 c 1
 422 484 537 473 537 473 c 1
 604 470 l 1
 597 463 583 454 536 448 c 1
 544 446 l 2
 607 430 617 411 624 402 c 1
EndSplineSet
EndChar

StartChar: Ograve
Encoding: 210 210 229
Width: 773
Flags: MW
HStem: -16 56 665 53<304.5 454.5>
VStem: 38 145 589 147
LayerCount: 2
Fore
SplineSet
735 366 m 0
 735 139 587 -16 370 -16 c 0
 172 -16 37 124 37 331 c 0
 37 548 176 718 397 718 c 0
 606 718 735 571 735 366 c 0
588 348 m 1
 589 348 l 1
 589 512 525 665 384 665 c 0
 225 665 182 484 182 357 c 0
 182 164 262 39 386 39 c 0
 527 39 588 194 588 348 c 1
483 757 m 1
 413 756 l 1
 197 912 l 1
 360 912 l 1
 483 757 l 1
EndSplineSet
Substitution2: "'c2sc' Capitals to Small Capitals in Latin lookup 1 subtable" ograve.smcp
Position2: "'cpsp' Capital Spacing in Latin lookup 0 subtable" dx=7 dy=0 dh=14 dv=0
EndChar

StartChar: Uacute
Encoding: 218 218 230
Width: 719
Flags: MW
HStem: -13 60<319 439.5>
VStem: 81 135 553 85<223 245 245 638 638 638>
LayerCount: 2
Fore
SplineSet
728 678 m 1
 638 639 l 1
 638 245 l 2
 638 60 525 -13 354 -13 c 0
 189 -13 81 51 81 215 c 2
 81 638 l 1
 -9 678 l 1
 -9 708 l 1
 305 708 l 1
 305 678 l 1
 215 639 l 1
 215 220 l 2
 215 105 261 47 377 47 c 0
 504 47 553 101 553 223 c 2
 553 638 l 1
 463 678 l 1
 463 708 l 1
 728 708 l 1
 728 678 l 1
556 911 m 1
 341 755 l 1
 270 755 l 1
 393 911 l 1
 556 911 l 1
EndSplineSet
Substitution2: "'c2sc' Capitals to Small Capitals in Latin lookup 1 subtable" uacute.smcp
Position2: "'cpsp' Capital Spacing in Latin lookup 0 subtable" dx=7 dy=0 dh=14 dv=0
EndChar

StartChar: Ucircumflex
Encoding: 219 219 231
Width: 719
Flags: MW
HStem: -13 60<319 439.5>
VStem: 81 135 553 85<223 245 245 638 638 638>
LayerCount: 2
Fore
SplineSet
728 678 m 1
 638 639 l 1
 638 245 l 2
 638 60 525 -13 354 -13 c 0
 189 -13 81 51 81 215 c 2
 81 638 l 1
 -9 678 l 1
 -9 708 l 1
 305 708 l 1
 305 678 l 1
 215 639 l 1
 215 220 l 2
 215 105 261 47 377 47 c 0
 504 47 553 101 553 223 c 2
 553 638 l 1
 463 678 l 1
 463 708 l 1
 728 708 l 1
 728 678 l 1
561 751 m 1
 477 751 l 1
 377 817 l 1
 279 751 l 1
 196 751 l 1
 377 929 l 1
 561 751 l 1
EndSplineSet
Substitution2: "'c2sc' Capitals to Small Capitals in Latin lookup 1 subtable" ucircumflex.smcp
Position2: "'cpsp' Capital Spacing in Latin lookup 0 subtable" dx=7 dy=0 dh=14 dv=0
EndChar

StartChar: Ugrave
Encoding: 217 217 232
Width: 719
Flags: MW
HStem: -13 60<319 439.5>
VStem: 81 135 553 85<223 245 245 638 638 638>
LayerCount: 2
Fore
SplineSet
728 678 m 1
 638 639 l 1
 638 245 l 2
 638 60 525 -13 354 -13 c 0
 189 -13 81 51 81 215 c 2
 81 638 l 1
 -9 678 l 1
 -9 708 l 1
 305 708 l 1
 305 678 l 1
 215 639 l 1
 215 220 l 2
 215 105 261 47 377 47 c 0
 504 47 553 101 553 223 c 2
 553 638 l 1
 463 678 l 1
 463 708 l 1
 728 708 l 1
 728 678 l 1
458 757 m 1
 389 756 l 1
 173 912 l 1
 336 912 l 1
 458 757 l 1
EndSplineSet
Substitution2: "'c2sc' Capitals to Small Capitals in Latin lookup 1 subtable" ugrave.smcp
Position2: "'cpsp' Capital Spacing in Latin lookup 0 subtable" dx=7 dy=0 dh=14 dv=0
EndChar

StartChar: dotlessi
Encoding: 305 305 233
Width: 337
Flags: MW
HStem: 0 20 508 20G<239 239>
VStem: 110 130
LayerCount: 2
Fore
SplineSet
329 0 m 1
 20 0 l 1
 20 29 l 1
 110 69 l 1
 110 429 l 1
 20 457 l 1
 20 485 l 1
 239 528 l 1
 239 69 l 1
 329 30 l 1
 329 0 l 1
EndSplineSet
EndChar

StartChar: circumflex
Encoding: 710 710 234
Width: 281
Flags: MW
HStem: 727 20G<138 138>
LayerCount: 2
Fore
SplineSet
323 569 m 1
 239 569 l 1
 139 635 l 1
 41 569 l 1
 -43 569 l 1
 138 747 l 1
 323 569 l 1
EndSplineSet
EndChar

StartChar: tilde
Encoding: 732 732 235
Width: 281
Flags: W
LayerCount: 2
Fore
SplineSet
323 681 m 1
 304 655 271 620 248 602 c 0
 235 591 220 588 208 588 c 0
 198 588 185 588 158 601 c 2
 91 633 l 2
 80 638 65 645 58 645 c 0
 46 645 31 632 -9 594 c 1
 -43 629 l 1
 -24 655 9 690 32 708 c 0
 45 719 60 722 72 722 c 0
 82 722 95 722 122 709 c 2
 189 677 l 2
 200 672 215 665 222 665 c 0
 234 665 245 674 289 716 c 1
 323 681 l 1
EndSplineSet
EndChar

StartChar: macron
Encoding: 175 175 236
AltUni2: 0002c9.ffffffff.0
Width: 282
Flags: MW
HStem: 612 74
VStem: -10 301
LayerCount: 2
Fore
SplineSet
292 612 m 1
 -10 611 l 1
 -10 685 l 1
 292 685 l 1
 292 612 l 1
EndSplineSet
EndChar

StartChar: breve
Encoding: 728 728 237
Width: 282
Flags: MW
HStem: 582 85
LayerCount: 2
Fore
SplineSet
327 693 m 1
 308 668 291 649 269 631 c 0
 227 596 190 582 145 582 c 0
 79 582 25 614 -38 692 c 1
 -5 725 l 1
 61 677 87 666 140 666 c 0
 197 666 240 683 293 725 c 1
 327 693 l 1
EndSplineSet
EndChar

StartChar: dotaccent
Encoding: 729 729 238
Width: 281
Flags: MW
HStem: 588 114<120.5 159 120.5 160.5>
VStem: 80 122
LayerCount: 2
Fore
SplineSet
201 645 m 0
 201 608 180 588 141 588 c 0
 100 588 79 606 79 643 c 0
 79 680 101 702 140 702 c 0
 178 702 201 681 201 645 c 0
EndSplineSet
EndChar

StartChar: ring
Encoding: 730 730 239
Width: 281
Flags: MW
HStem: 572 38 708 38
VStem: 16 70 205 70<643 673.5>
LayerCount: 2
Fore
SplineSet
275 661 m 0
 275 602 232 572 146 572 c 0
 59 572 16 601 16 660 c 0
 16 718 58 746 145 746 c 0
 231 746 275 718 275 661 c 0
205 658 m 0
 205 689 180 709 145 709 c 0
 111 709 85 689 85 659 c 0
 85 628 110 609 145 609 c 0
 180 609 205 628 205 658 c 0
EndSplineSet
EndChar

StartChar: cedilla
Encoding: 184 184 240
Width: 282
Flags: MW
HStem: -20 20G<94 152 152 152>
VStem: 133 102<-132 -102.5>
LayerCount: 2
Fore
SplineSet
235 -112 m 0
 235 -182 143 -220 60 -245 c 1
 45 -209 l 1
 108 -176 133 -149 133 -115 c 0
 133 -90 119 -76 94 -72 c 1
 94 0 l 1
 152 0 l 1
 152 -32 l 1
 199 -39 235 -62 235 -112 c 0
EndSplineSet
EndChar

StartChar: hungarumlaut
Encoding: 733 733 241
Width: 281
Flags: MW
HStem: 575 150
LayerCount: 2
Fore
SplineSet
319 725 m 1
 188 574 l 1
 134 574 l 1
 205 725 l 1
 319 725 l 1
145 725 m 1
 15 574 l 1
 -38 574 l 1
 33 725 l 1
 145 725 l 1
EndSplineSet
EndChar

StartChar: ogonek
Encoding: 731 731 242
Width: 282
Flags: MW
HStem: -20 20G
VStem: 58 95<-116.5 -76 -116.5 -68.5>
LayerCount: 2
Fore
SplineSet
224 -167 m 1
 222 -176 218 -202 216 -212 c 1
 137 -207 58 -183 58 -109 c 0
 58 -28 152 -6 215 0 c 1
 172 -27 153 -56 153 -96 c 0
 153 -137 173 -157 224 -167 c 1
EndSplineSet
EndChar

StartChar: caron
Encoding: 711 711 243
Width: 281
Flags: W
LayerCount: 2
Fore
SplineSet
323 752 m 1
 142 576 l 1
 -43 752 l 1
 40 752 l 1
 141 688 l 1
 239 752 l 1
 323 752 l 1
EndSplineSet
EndChar

StartChar: Eth
Encoding: 208 208 244
Width: 768
Flags: MW
HStem: 0 50<247 327 327 343> 390 57<247 348 247 348> 658 50<247 331 247 247>
VStem: 113 135 587 143<307 406.5>
LayerCount: 2
Fore
SplineSet
730 368 m 0
 730 246 687 144 606 79 c 0
 540 24 458 0 343 0 c 2
 22 0 l 1
 22 29 l 1
 113 68 l 1
 113 389 l 1
 17 389 l 1
 17 446 l 1
 113 446 l 1
 113 639 l 1
 22 678 l 1
 22 708 l 1
 361 708 l 2
 491 708 566 684 629 625 c 0
 695 563 730 475 730 368 c 0
587 360 m 0
 587 453 566 524 524 578 c 0
 479 634 423 658 331 658 c 2
 247 658 l 1
 247 447 l 1
 348 447 l 1
 348 390 l 1
 247 390 l 1
 247 50 l 1
 327 50 l 2
 412 50 464 70 509 120 c 0
 563 178 587 252 587 360 c 0
EndSplineSet
Position2: "'cpsp' Capital Spacing in Latin lookup 0 subtable" dx=7 dy=0 dh=14 dv=0
EndChar

StartChar: softhyphen
Encoding: 173 173 247
Width: 269
Flags: MW
HStem: 230 97
VStem: 10 249<230 230 230 326 230 326>
LayerCount: 2
Fore
SplineSet
259 230 m 1
 10 229 l 1
 10 326 l 1
 259 326 l 1
 259 230 l 1
EndSplineSet
EndChar

StartChar: Euro
Encoding: 8364 8364 249
Width: 733
Flags: MW
HStem: -10 55<467.5 517> 262 50<36 146 36 150 15 146 285 285 285 483> 362 50<39 147 17 155 289 525> 623 54<530.5 545.5 418.5 577>
VStem: 146 134<312 322 322 325 312 329>
LayerCount: 2
Fore
SplineSet
714 189 m 1
 702 25 l 1
 628 5 555 -10 479 -10 c 0
 292 -10 172 91 150 262 c 1
 15 262 l 1
 36 312 l 1
 146 312 l 1
 146 322 l 2
 146 336 146 349 147 362 c 1
 17 362 l 1
 39 412 l 1
 155 412 l 1
 190 580 325 677 512 677 c 0
 579 677 643 665 708 648 c 1
 708 483 l 1
 664 483 l 1
 614 619 l 1
 598 623 585 623 569 623 c 0
 492 623 418 609 362 552 c 0
 324 513 300 464 289 412 c 1
 547 412 l 1
 525 362 l 1
 281 362 l 1
 280 350 280 337 280 325 c 0
 280 321 280 316 280 312 c 1
 504 312 l 1
 483 262 l 1
 285 262 l 1
 305 131 393 45 542 45 c 0
 553 45 605 48 614 52 c 1
 669 189 l 1
 714 189 l 1
EndSplineSet
EndChar

StartChar: zero.osfprop
Encoding: 65539 -1 250
Width: 588
Flags: MW
HStem: -15 52<252 333.5 252 367> 472 52<248.5 337.5>
VStem: 40 138<207.5 308 207.5 330.5> 410 138<177 293>
LayerCount: 2
Fore
SplineSet
548 262 m 0
 548 92 444 -15 290 -15 c 0
 138 -15 40 87 40 248 c 0
 40 413 138 524 298 524 c 0
 449 524 548 423 548 262 c 0
410 240 m 0
 410 346 384 472 291 472 c 0
 206 472 178 358 178 258 c 0
 178 157 206 37 298 37 c 0
 369 37 410 109 410 240 c 0
EndSplineSet
Substitution2: "'zero' Slashed Zero in Latin lookup 10 subtable" oslash
Substitution2: "'lnum' Lining Figures in Latin lookup 5 subtable" zero
Substitution2: "'tnum' Tabular Numbers in Latin lookup 2 subtable" zero
EndChar

StartChar: one.osfprop
Encoding: 65540 -1 251
Width: 473
Flags: MW
HStem: 0 20
VStem: 204 131
LayerCount: 2
Fore
SplineSet
448 0 m 1
 93 0 l 1
 93 29 l 1
 205 67 l 1
 205 395 l 1
 20 360 l 1
 20 398 l 1
 120 426 217 468 283 524 c 1
 335 524 l 1
 335 68 l 1
 448 29 l 1
 448 0 l 1
EndSplineSet
Substitution2: "'lnum' Lining Figures in Latin lookup 5 subtable" one
Substitution2: "'tnum' Tabular Numbers in Latin lookup 2 subtable" one
EndChar

StartChar: two.osfprop
Encoding: 65541 -1 252
Width: 557
Flags: MW
HStem: 0 94<183 412 183 490> 467 57<209 331>
VStem: 324 140<349 398.5>
LayerCount: 2
Fore
SplineSet
507 195 m 1
 490 0 l 1
 45 0 l 1
 45 53 l 1
 131 113 174 148 224 196 c 0
 296 264 324 313 324 368 c 0
 324 429 282 467 217 467 c 0
 201 467 189 467 169 463 c 1
 117 328 l 1
 71 328 l 1
 71 489 l 1
 87 493 117 500 144 506 c 0
 200 519 241 524 278 524 c 0
 384 524 464 463 464 381 c 0
 464 317 429 269 316 186 c 0
 273 154 228 122 183 94 c 1
 412 94 l 1
 465 195 l 1
 507 195 l 1
EndSplineSet
Substitution2: "'lnum' Lining Figures in Latin lookup 5 subtable" two
Substitution2: "'tnum' Tabular Numbers in Latin lookup 2 subtable" two
EndChar

StartChar: three.osfprop
Encoding: 65542 -1 253
Width: 564
Flags: MW
HStem: -166 61<231.5 252 196 331> 165 53<201 241 201 252> 463 60
VStem: 360 143<316.5 385>
LayerCount: 2
Fore
SplineSet
524 31 m 0
 524 -86 412 -166 250 -166 c 0
 213 -166 180 -161 141 -152 c 0
 102 -143 48 -126 48 -126 c 1
 48 38 l 1
 96 38 l 1
 150 -101 l 1
 172 -104 184 -105 208 -105 c 0
 296 -105 381 -75 381 29 c 0
 381 116 330 165 241 165 c 2
 201 165 l 1
 201 218 l 1
 252 218 l 2
 310 218 360 260 360 345 c 0
 360 425 318 464 230 464 c 0
 204 464 178 462 154 457 c 1
 102 327 l 1
 53 327 l 1
 53 489 l 1
 53 489 98 500 143 508 c 0
 212 520 242 523 282 523 c 0
 419 523 503 463 503 365 c 0
 503 268 426 217 328 197 c 1
 416 187 524 154 524 31 c 0
EndSplineSet
Substitution2: "'lnum' Lining Figures in Latin lookup 5 subtable" three
Substitution2: "'tnum' Tabular Numbers in Latin lookup 2 subtable" three
EndChar

StartChar: four.osfprop
Encoding: 65543 -1 254
Width: 564
Flags: MW
HStem: 0 81<111 335 111 335 450 549 450 450>
VStem: 335 115<-151 0 -151 0 -151 378>
LayerCount: 2
Fore
SplineSet
549 0 m 1
 450 0 l 1
 450 -151 l 1
 335 -151 l 1
 335 0 l 1
 15 0 l 1
 15 48 l 1
 383 524 l 1
 449 524 l 1
 449 81 l 1
 549 81 l 1
 549 0 l 1
335 81 m 1
 335 378 l 1
 111 81 l 1
 335 81 l 1
EndSplineSet
Substitution2: "'lnum' Lining Figures in Latin lookup 5 subtable" four
Substitution2: "'tnum' Tabular Numbers in Latin lookup 2 subtable" four
EndChar

StartChar: five.osfprop
Encoding: 65544 -1 255
Width: 567
Flags: MW
HStem: -165 61<233 265 205.5 330.5> 210 74<237 251> 410 106<143 498 143 143>
VStem: 70 74 380 140
LayerCount: 2
Fore
SplineSet
519 71 m 0
 519 -69 410 -165 251 -165 c 0
 215 -165 182 -160 147 -152 c 0
 117 -146 74 -132 52 -125 c 1
 52 39 l 1
 100 39 l 1
 154 -100 l 1
 180 -102 198 -104 213 -104 c 0
 317 -104 380 -45 380 55 c 0
 380 167 309 210 193 210 c 0
 150 210 113 206 69 197 c 1
 69 516 l 1
 498 516 l 1
 498 410 l 1
 143 410 l 1
 143 268 l 1
 195 280 217 284 257 284 c 0
 420 284 519 204 519 71 c 0
EndSplineSet
Substitution2: "'lnum' Lining Figures in Latin lookup 5 subtable" five
Substitution2: "'tnum' Tabular Numbers in Latin lookup 2 subtable" five
EndChar

StartChar: six.osfprop
Encoding: 65545 -1 256
Width: 580
Flags: MW
HStem: -16 52<238.5 335 238.5 366.5> 342 62<303 324> 615 57<383.5 425 285 480.5>
VStem: 43 139 405 138<195 244>
LayerCount: 2
Fore
SplineSet
543 206 m 0
 543 62 435 -16 298 -16 c 0
 129 -16 42 92 42 274 c 0
 42 512 172 672 398 672 c 0
 452 672 496 667 538 655 c 1
 530 610 l 1
 505 614 492 615 469 615 c 0
 298 615 198 534 186 376 c 1
 242 396 277 404 329 404 c 0
 459 404 543 327 543 206 c 0
404 195 m 1
 405 195 l 1
 405 293 364 342 284 342 c 0
 248 342 199 330 183 326 c 1
 182 314 182 297 182 282 c 0
 182 194 177 36 300 36 c 0
 370 36 404 88 404 195 c 1
EndSplineSet
Substitution2: "'lnum' Lining Figures in Latin lookup 5 subtable" six
Substitution2: "'tnum' Tabular Numbers in Latin lookup 2 subtable" six
EndChar

StartChar: seven.osfprop
Encoding: 65546 -1 257
Width: 552
Flags: MW
HStem: 412 104<144 428 144 144>
LayerCount: 2
Fore
SplineSet
522 469 m 1
 445 286 342 47 244 -154 c 1
 93 -154 l 1
 196 8 333 234 428 412 c 1
 144 412 l 1
 96 284 l 1
 47 284 l 1
 47 516 l 1
 522 516 l 1
 522 469 l 1
EndSplineSet
Substitution2: "'lnum' Lining Figures in Latin lookup 5 subtable" seven
Substitution2: "'tnum' Tabular Numbers in Latin lookup 2 subtable" seven
EndChar

StartChar: eight.osfprop
Encoding: 65547 -1 258
Width: 567
Flags: MW
HStem: -16 55 625 50<260 318>
VStem: 74 119 402 123
LayerCount: 2
Fore
SplineSet
524 177 m 0
 524 61 427 -16 278 -16 c 0
 148 -16 42 45 42 155 c 0
 42 231 95 290 199 332 c 1
 181 343 l 2
 105 388 73 432 73 499 c 0
 73 604 161 675 290 675 c 0
 416 675 496 615 496 521 c 0
 496 445 444 404 368 369 c 1
 400 351 l 2
 490 301 524 251 524 177 c 0
384 515 m 0
 384 583 347 625 289 625 c 0
 231 625 192 588 192 532 c 0
 192 487 216 455 275 422 c 2
 324 394 l 1
 365 434 384 471 384 515 c 0
402 146 m 0
 402 202 359 232 304 267 c 2
 243 306 l 1
 184 262 159 218 159 160 c 0
 159 82 211 38 284 38 c 0
 356 38 402 80 402 146 c 0
EndSplineSet
Substitution2: "'lnum' Lining Figures in Latin lookup 5 subtable" eight
Substitution2: "'tnum' Tabular Numbers in Latin lookup 2 subtable" eight
EndChar

StartChar: nine.osfprop
Encoding: 65548 -1 259
Width: 580
Flags: MW
HStem: -159 60<157.5 185 96 296> 102 65<253.5 272.5> 472 52<244.5 338>
VStem: 38 137 397 141
LayerCount: 2
Fore
SplineSet
538 228 m 0
 538 6 411 -159 181 -159 c 0
 134 -159 92 -154 44 -143 c 1
 50 -97 l 1
 79 -99 89 -99 103 -99 c 0
 267 -99 369 -36 391 130 c 1
 339 110 298 102 247 102 c 0
 119 102 37 178 37 300 c 0
 37 437 133 524 283 524 c 0
 459 524 538 399 538 228 c 0
397 239 m 1
 401 325 397 472 279 472 c 0
 210 472 174 419 174 315 c 0
 174 216 214 167 293 167 c 0
 328 167 362 173 394 181 c 1
 396 194 402 230 397 239 c 1
EndSplineSet
Substitution2: "'lnum' Lining Figures in Latin lookup 5 subtable" nine
Substitution2: "'tnum' Tabular Numbers in Latin lookup 2 subtable" nine
EndChar

StartChar: lslash.smcp
Encoding: 65549 -1 260
Width: 471
Flags: MW
HStem: 0 56<228 356 228 449>
VStem: 96 132<67 233 233 233 366 485>
LayerCount: 2
Fore
SplineSet
466 155 m 1
 449 0 l 1
 20 0 l 1
 20 39 l 1
 96 67 l 1
 96 233 l 1
 14 194 l 1
 14 262 l 1
 96 301 l 1
 96 485 l 1
 20 512 l 1
 20 552 l 1
 303 552 l 1
 303 512 l 1
 228 485 l 1
 228 366 l 1
 308 405 l 1
 308 338 l 1
 228 299 l 1
 228 56 l 1
 356 56 l 1
 410 155 l 1
 466 155 l 1
EndSplineSet
EndChar

StartChar: scaron.smcp
Encoding: 65550 -1 261
Width: 476
Flags: MW
HStem: -7 51<213.5 238 200 294.5> 501 51
VStem: 60 115<414.5 451> 313 130
LayerCount: 2
Fore
SplineSet
443 149 m 0
 443 45 348 -7 241 -7 c 0
 186 -7 131 4 58 22 c 1
 58 162 l 1
 101 162 l 1
 148 51 l 1
 177 45 191 44 209 44 c 0
 267 44 314 72 314 126 c 0
 314 163 290 182 248 208 c 2
 165 259 l 2
 110 293 60 327 60 399 c 0
 60 503 149 552 256 552 c 0
 313 552 366 540 422 528 c 1
 422 388 l 1
 379 388 l 1
 333 496 l 1
 308 500 292 500 275 500 c 0
 211 500 175 475 175 432 c 0
 175 397 199 380 247 351 c 2
 335 297 l 2
 394 261 443 230 443 149 c 0
414 752 m 1
 233 576 l 1
 49 752 l 1
 132 752 l 1
 233 688 l 1
 330 752 l 1
 414 752 l 1
EndSplineSet
EndChar

StartChar: yacute.smcp
Encoding: 65551 -1 262
Width: 537
Flags: MW
HStem: 0 20
VStem: 222 129<66 247 247 247> 371 206
LayerCount: 2
Fore
SplineSet
578 510 m 1
 504 478 l 1
 351 269 l 1
 351 66 l 1
 448 32 l 1
 448 0 l 1
 125 0 l 1
 125 32 l 1
 222 66 l 1
 222 247 l 1
 66 478 l 1
 -8 510 l 1
 -8 541 l 1
 270 541 l 1
 270 510 l 1
 210 481 l 1
 322 313 l 1
 430 481 l 1
 372 510 l 1
 372 541 l 1
 578 541 l 1
 578 510 l 1
480 730 m 1
 265 574 l 1
 195 574 l 1
 317 730 l 1
 480 730 l 1
EndSplineSet
EndChar

StartChar: thorn.smcp
Encoding: 65552 -1 263
Width: 508
Flags: MW
HStem: 148 51 419 49
VStem: 105 129<63 148 63 198 198 420 468 478> 372 134<275 348>
LayerCount: 2
Fore
SplineSet
506 314 m 0
 506 203 397 148 281 148 c 2
 234 148 l 1
 234 63 l 1
 315 34 l 1
 315 0 l 1
 29 0 l 1
 29 34 l 1
 105 63 l 1
 105 271 105 478 105 478 c 1
 24 508 l 1
 24 542 l 1
 310 542 l 1
 310 508 l 1
 234 478 l 1
 234 468 l 1
 280 468 l 2
 387 468 506 447 506 314 c 0
372 313 m 0
 372 383 341 420 270 420 c 2
 234 420 l 1
 234 198 l 1
 255 198 l 2
 338 198 372 237 372 313 c 0
EndSplineSet
EndChar

StartChar: zcaron.smcp
Encoding: 65553 -1 264
Width: 546
Flags: MW
HStem: 0 54<196 404 196 488> 491 51<159 345 159 159>
LayerCount: 2
Fore
SplineSet
503 164 m 1
 488 0 l 1
 42 0 l 1
 42 45 l 1
 345 491 l 1
 159 491 l 1
 114 387 l 1
 71 387 l 1
 71 542 l 1
 500 542 l 1
 500 499 l 1
 196 54 l 1
 404 54 l 1
 460 164 l 1
 503 164 l 1
457 757 m 1
 276 581 l 1
 92 757 l 1
 175 757 l 1
 276 693 l 1
 373 757 l 1
 457 757 l 1
EndSplineSet
EndChar

StartChar: a.smcp
Encoding: 65554 -1 265
Width: 615
Flags: MW
HStem: 0 20 185 48<201 353 201 369 182 353> 528 20G<285 355 355 355>
VStem: -8 204<0 35 0 35> 350 272<0 35 0 35>
LayerCount: 2
Fore
SplineSet
622 0 m 1
 350 0 l 1
 350 35 l 1
 413 66 l 1
 369 185 l 1
 182 185 l 1
 132 65 l 1
 196 35 l 1
 196 0 l 1
 -8 0 l 1
 -8 35 l 1
 62 67 l 1
 285 548 l 1
 355 548 l 1
 552 67 l 1
 622 35 l 1
 622 0 l 1
353 233 m 1
 341 265 293 392 282 424 c 1
 201 233 l 1
 353 233 l 1
EndSplineSet
EndChar

StartChar: b.smcp
Encoding: 65555 -1 266
Width: 584
Flags: MW
HStem: 0 46<245 294 294 319> 255 44 496 46<245 290 245 245>
VStem: 123 122<67 254 299 477 477 477> 415 129<114 187>
LayerCount: 2
Fore
SplineSet
544 147 m 0
 544 26 418 0 319 0 c 2
 40 0 l 1
 40 30 l 1
 123 67 l 1
 123 477 l 1
 40 510 l 1
 40 542 l 1
 322 542 l 2
 411 542 520 520 520 410 c 0
 520 328 461 300 402 284 c 1
 472 270 544 239 544 147 c 0
391 400 m 0
 391 466 353 496 290 496 c 2
 245 496 l 1
 245 299 l 1
 287 299 l 2
 348 299 391 332 391 400 c 0
415 151 m 0
 415 223 367 254 291 254 c 2
 245 254 l 1
 245 46 l 1
 294 46 l 2
 369 46 415 77 415 151 c 0
EndSplineSet
EndChar

StartChar: c.smcp
Encoding: 65556 -1 267
Width: 581
Flags: MW
HStem: -7 54<341 354> 503 49
VStem: 40 139<175 346 175 357>
LayerCount: 2
Fore
SplineSet
536 162 m 1
 524 21 l 1
 513 17 476 9 456 5 c 0
 411 -4 374 -7 334 -7 c 0
 159 -7 40 79 40 259 c 0
 40 455 177 552 361 552 c 0
 420 552 474 541 529 530 c 1
 529 388 l 1
 485 388 l 1
 439 500 l 1
 419 501 405 502 392 502 c 0
 249 502 179 423 179 269 c 0
 179 81 295 47 387 47 c 0
 402 47 417 49 438 52 c 1
 492 162 l 1
 536 162 l 1
EndSplineSet
EndChar

StartChar: d.smcp
Encoding: 65557 -1 268
Width: 681
Flags: MW
HStem: 0 51<253 313 313 321> 491 51<253 315 253 253>
VStem: 123 129 502 139<211.5 340>
LayerCount: 2
Fore
SplineSet
641 282 m 0
 641 87 499 0 321 0 c 2
 40 0 l 1
 40 32 l 1
 123 66 l 1
 123 476 l 1
 40 510 l 1
 40 542 l 1
 336 542 l 2
 508 542 641 473 641 282 c 0
502 276 m 0
 502 404 450 491 315 491 c 2
 253 491 l 1
 253 51 l 1
 313 51 l 2
 450 51 502 147 502 276 c 0
EndSplineSet
EndChar

StartChar: e.smcp
Encoding: 65558 -1 269
Width: 560
Flags: MW
HStem: 0 51<253 419 253 499> 251 48<253 381 253 381> 494 48<253 413 253 253>
VStem: 123 129
LayerCount: 2
Fore
SplineSet
512 139 m 1
 499 0 l 1
 40 0 l 1
 40 32 l 1
 123 66 l 1
 123 477 l 1
 40 510 l 1
 40 542 l 1
 496 542 l 1
 496 408 l 1
 457 408 l 1
 413 494 l 1
 253 494 l 1
 253 299 l 1
 381 299 l 1
 414 366 l 1
 454 366 l 1
 454 186 l 1
 414 186 l 1
 381 251 l 1
 253 251 l 1
 253 51 l 1
 419 51 l 1
 472 139 l 1
 512 139 l 1
EndSplineSet
EndChar

StartChar: f.smcp
Encoding: 65559 -1 270
Width: 526
Flags: MW
HStem: 251 48<253 373 253 373> 494 48<253 404 253 253>
VStem: 123 129
LayerCount: 2
Fore
SplineSet
486 411 m 1
 446 411 l 1
 404 494 l 1
 253 494 l 1
 253 299 l 1
 373 299 l 1
 406 366 l 1
 446 366 l 1
 446 186 l 1
 406 186 l 1
 373 251 l 1
 253 251 l 1
 253 66 l 1
 348 32 l 1
 348 0 l 1
 40 0 l 1
 40 32 l 1
 123 66 l 1
 123 477 l 1
 40 510 l 1
 40 542 l 1
 486 542 l 1
 486 411 l 1
EndSplineSet
EndChar

StartChar: g.smcp
Encoding: 65560 -1 271
Width: 641
Flags: MW
HStem: -7 54<309.5 364> 500 52
VStem: 40 139<201.5 342 201.5 363.5> 426 120<52 171 23 171>
LayerCount: 2
Fore
SplineSet
624 205 m 1
 546 171 l 1
 546 23 l 1
 534 20 498 11 475 7 c 0
 427 -2 384 -7 344 -7 c 0
 172 -7 40 78 40 263 c 0
 40 464 194 552 376 552 c 0
 435 552 496 540 550 529 c 1
 550 388 l 1
 506 388 l 1
 458 496 l 1
 436 498 419 499 400 499 c 0
 251 499 179 418 179 266 c 0
 179 137 243 47 376 47 c 0
 390 47 404 49 426 52 c 1
 426 171 l 1
 343 205 l 1
 343 237 l 1
 624 237 l 1
 624 205 l 1
EndSplineSet
EndChar

StartChar: h.smcp
Encoding: 65561 -1 272
Width: 733
Flags: MW
HStem: 257 52<253 480 253 480>
VStem: 123 129 480 130<66 257 257 257 309 481 66 481>
LayerCount: 2
Fore
SplineSet
693 0 m 1
 407 0 l 1
 407 32 l 1
 480 66 l 1
 480 257 l 1
 253 257 l 1
 253 66 l 1
 326 32 l 1
 326 0 l 1
 40 0 l 1
 40 32 l 1
 123 66 l 1
 123 476 l 1
 40 510 l 1
 40 542 l 1
 326 542 l 1
 326 510 l 1
 253 476 l 1
 253 309 l 1
 480 309 l 1
 480 481 l 1
 407 510 l 1
 407 542 l 1
 693 542 l 1
 693 510 l 1
 610 481 l 1
 610 66 l 1
 693 32 l 1
 693 0 l 1
EndSplineSet
EndChar

StartChar: i.smcp
Encoding: 65562 -1 273
Width: 376
Flags: MW
HStem: 0 20 522 20G<40 336 336 336>
VStem: 123 129
LayerCount: 2
Fore
SplineSet
336 0 m 1
 40 0 l 1
 40 32 l 1
 123 66 l 1
 123 476 l 1
 40 510 l 1
 40 542 l 1
 336 542 l 1
 336 510 l 1
 253 476 l 1
 253 66 l 1
 336 32 l 1
 336 0 l 1
EndSplineSet
EndChar

StartChar: j.smcp
Encoding: 65563 -1 274
Width: 372
Flags: MW
HStem: -232 20 522 20G<44 340 340 340>
LayerCount: 2
Fore
SplineSet
340 542 m 1
 340 510 l 1
 257 476 l 1
 257 -1 l 2
 256 -85 239 -130 188 -176 c 0
 145 -214 95 -232 32 -232 c 0
 4 -232 -26 -229 -58 -223 c 1
 -58 -116 l 1
 26 -116 l 1
 53 -185 l 1
 108 -168 126 -134 126 -57 c 2
 127 476 l 1
 44 510 l 1
 44 542 l 1
 340 542 l 1
EndSplineSet
EndChar

StartChar: k.smcp
Encoding: 65564 -1 275
Width: 662
Flags: MW
HStem: 0 20 522 20G<40 334 334 334 417 643 643 643>
VStem: 123 129 417 226<511 542 510 542>
LayerCount: 2
Fore
SplineSet
662 0 m 1
 482 0 l 1
 270 284 l 1
 472 481 l 1
 417 511 l 1
 417 542 l 1
 643 542 l 1
 643 510 l 1
 563 475 l 1
 388 324 l 1
 583 67 l 1
 662 32 l 1
 662 0 l 1
334 0 m 1
 40 0 l 1
 40 32 l 1
 123 66 l 1
 123 476 l 1
 40 510 l 1
 40 542 l 1
 334 542 l 1
 334 510 l 1
 253 476 l 1
 253 66 l 1
 334 32 l 1
 334 0 l 1
EndSplineSet
EndChar

StartChar: l.smcp
Encoding: 65565 -1 276
Width: 479
Flags: MW
HStem: 0 50<253 377 253 459> 522 20G<40 340 340 340>
VStem: 123 129
LayerCount: 2
Fore
SplineSet
474 153 m 1
 459 0 l 1
 40 0 l 1
 40 32 l 1
 123 66 l 1
 123 476 l 1
 40 510 l 1
 40 542 l 1
 340 542 l 1
 340 510 l 1
 253 476 l 1
 253 50 l 1
 377 50 l 1
 433 153 l 1
 474 153 l 1
EndSplineSet
EndChar

StartChar: m.smcp
Encoding: 65566 -1 277
Width: 823
Flags: MW
HStem: -4 20 522 20G<40 263 263 263 572 783 783 783>
VStem: 123 68<66 420 66 476 66 476> 582 118<66 412 412 412>
LayerCount: 2
Fore
SplineSet
783 0 m 1
 506 0 l 1
 506 32 l 1
 582 66 l 1
 582 412 l 1
 399 -4 l 1
 373 -4 l 1
 191 420 l 1
 191 66 l 1
 268 32 l 1
 268 0 l 1
 40 0 l 1
 40 32 l 1
 123 66 l 1
 123 476 l 1
 40 510 l 1
 40 542 l 1
 263 542 l 1
 417 185 l 1
 572 542 l 1
 783 542 l 1
 783 510 l 1
 700 476 l 1
 700 66 l 1
 783 32 l 1
 783 0 l 1
EndSplineSet
EndChar

StartChar: n.smcp
Encoding: 65567 -1 278
Width: 698
Flags: MW
HStem: -7 20 522 20G<40 227 227 227 432 665 665 665>
VStem: 123 68<65 402 65 476> 514 68
LayerCount: 2
Fore
SplineSet
665 510 m 1
 582 476 l 1
 582 -7 l 1
 521 -7 l 1
 191 402 l 1
 191 65 l 1
 272 32 l 1
 272 0 l 1
 40 0 l 1
 40 32 l 1
 123 65 l 1
 123 476 l 1
 40 510 l 1
 40 542 l 1
 227 542 l 1
 513 189 l 1
 513 476 l 1
 432 510 l 1
 432 542 l 1
 665 542 l 1
 665 510 l 1
EndSplineSet
EndChar

StartChar: o.smcp
Encoding: 65568 -1 279
Width: 662
Flags: MW
HStem: -11 51<286 381 286 407> 502 50<277 381.5>
VStem: 40 139<196.5 340 196.5 348.5> 482 140<202 333.5>
LayerCount: 2
Fore
SplineSet
622 281 m 0
 622 99 496 -11 318 -11 c 0
 153 -11 40 97 40 255 c 0
 40 442 168 552 339 552 c 0
 509 552 622 444 622 281 c 0
482 268 m 0
 482 399 434 502 329 502 c 0
 225 502 179 405 179 275 c 0
 179 118 241 40 331 40 c 0
 431 40 482 136 482 268 c 0
EndSplineSet
EndChar

StartChar: p.smcp
Encoding: 65569 -1 280
Width: 539
Flags: MW
HStem: 223 46 495 47<247 288 247 247>
VStem: 123 124<268 476 476 476> 393 131<347 422.5>
LayerCount: 2
Fore
SplineSet
524 387 m 0
 524 273 410 223 295 223 c 2
 248 223 l 1
 248 66 l 1
 338 32 l 1
 338 0 l 1
 40 0 l 1
 40 32 l 1
 123 66 l 1
 123 476 l 1
 40 510 l 1
 40 542 l 1
 295 542 l 2
 405 542 524 525 524 387 c 0
393 386 m 0
 393 459 360 495 288 495 c 2
 247 495 l 1
 247 268 l 1
 274 268 l 2
 356 268 393 308 393 386 c 0
EndSplineSet
EndChar

StartChar: q.smcp
Encoding: 65570 -1 281
Width: 675
Flags: MW
HStem: -164 92<600.5 688> 502 49<278 389>
VStem: 40 139<206 338.5 206 347> 483 139<218 319.5>
LayerCount: 2
Fore
SplineSet
785 -84 m 1
 721 -131 672 -164 626 -164 c 0
 575 -164 506 -130 423 -90 c 0
 381 -69 351 -54 276 -10 c 1
 124 15 40 104 40 259 c 0
 40 435 164 551 341 551 c 0
 508 551 622 449 622 282 c 0
 622 154 554 53 431 14 c 1
 485 -8 626 -72 676 -72 c 0
 700 -72 727 -60 762 -47 c 1
 785 -84 l 1
483 269 m 0
 483 370 449 502 329 502 c 0
 227 502 179 402 179 275 c 0
 179 137 229 38 331 38 c 0
 435 38 483 145 483 269 c 0
EndSplineSet
EndChar

StartChar: r.smcp
Encoding: 65571 -1 282
Width: 607
Flags: MW
HStem: 250 45<242 258 242 289> 495 47<242 288 242 242>
VStem: 123 119<66 250 66 295 295 477 477 477> 390 124<370 434.5>
LayerCount: 2
Fore
SplineSet
617 0 m 1
 445 0 l 1
 258 250 l 1
 242 250 l 1
 242 66 l 1
 323 32 l 1
 323 0 l 1
 40 0 l 1
 40 32 l 1
 123 66 l 1
 123 477 l 1
 40 510 l 1
 40 542 l 1
 320 542 l 2
 411 542 514 522 514 408 c 0
 514 332 464 281 387 266 c 1
 543 67 l 1
 617 32 l 1
 617 0 l 1
390 399 m 0
 390 470 350 495 288 495 c 2
 242 495 l 1
 242 295 l 1
 289 295 l 2
 340 295 390 320 390 399 c 0
EndSplineSet
EndChar

StartChar: s.smcp
Encoding: 65572 -1 283
Width: 498
Flags: MW
HStem: -7 51<213.5 238 200 294.5> 501 51
VStem: 60 115<414.5 451> 313 130
LayerCount: 2
Fore
SplineSet
443 149 m 0
 443 45 348 -7 241 -7 c 0
 186 -7 131 4 58 22 c 1
 58 162 l 1
 101 162 l 1
 148 51 l 1
 177 45 191 44 209 44 c 0
 267 44 314 72 314 126 c 0
 314 163 290 182 248 208 c 2
 165 259 l 2
 110 293 60 327 60 399 c 0
 60 503 149 552 256 552 c 0
 313 552 366 540 422 528 c 1
 422 388 l 1
 379 388 l 1
 333 496 l 1
 308 500 292 500 275 500 c 0
 211 500 175 475 175 432 c 0
 175 397 199 380 247 351 c 2
 335 297 l 2
 394 261 443 230 443 149 c 0
EndSplineSet
EndChar

StartChar: t.smcp
Encoding: 65573 -1 284
Width: 520
Flags: MW
HStem: 0 20 492 50<98 195 98 98 325 424 325 325>
VStem: 195 130<66 492 66 492>
LayerCount: 2
Fore
SplineSet
507 387 m 1
 462 387 l 1
 424 492 l 1
 325 492 l 1
 325 66 l 1
 421 32 l 1
 421 0 l 1
 98 0 l 1
 98 32 l 1
 195 66 l 1
 195 492 l 1
 98 492 l 1
 59 387 l 1
 12 387 l 1
 12 542 l 1
 507 542 l 1
 507 387 l 1
EndSplineSet
EndChar

StartChar: u.smcp
Encoding: 65574 -1 285
Width: 679
Flags: MW
HStem: -11 53<315.5 403 315.5 407.5> 522 20G<25 319 319 319 412 654 654 654>
VStem: 108 129 494 77<172 188 188 476>
LayerCount: 2
Fore
SplineSet
654 510 m 1
 571 476 l 1
 571 188 l 2
 571 41 477 -11 338 -11 c 0
 202 -11 108 37 108 166 c 2
 108 479 l 1
 25 510 l 1
 25 542 l 1
 319 542 l 1
 319 510 l 1
 238 476 l 1
 238 169 l 2
 238 88 273 42 358 42 c 0
 448 42 494 88 494 172 c 2
 494 476 l 1
 412 510 l 1
 412 542 l 1
 654 542 l 1
 654 510 l 1
EndSplineSet
EndChar

StartChar: v.smcp
Encoding: 65575 -1 286
Width: 611
Flags: MW
HStem: -7 20 522 20G<-8 271 271 271 405 618 618 618>
VStem: -8 278 405 213<510 542 510 542>
LayerCount: 2
Fore
SplineSet
618 510 m 1
 544 475 l 1
 323 -7 l 1
 265 -7 l 1
 65 475 l 1
 -8 510 l 1
 -8 542 l 1
 271 542 l 1
 271 510 l 1
 202 477 l 1
 332 134 l 1
 473 477 l 1
 405 510 l 1
 405 542 l 1
 618 542 l 1
 618 510 l 1
EndSplineSet
EndChar

StartChar: w.smcp
Encoding: 65576 -1 287
Width: 882
Flags: MW
HStem: -4 20 522 20G<-8 268 268 268 447 502 502 502 674 890 890 890>
VStem: -8 276<510 542 510 542> 673 216
LayerCount: 2
Fore
SplineSet
890 510 m 1
 817 475 l 1
 628 -4 l 1
 572 -4 l 1
 440 368 l 1
 297 -4 l 1
 238 -4 l 1
 66 476 l 1
 -8 510 l 1
 -8 542 l 1
 268 542 l 1
 268 510 l 1
 200 477 l 1
 303 165 l 1
 447 542 l 1
 502 542 l 1
 640 159 l 1
 745 477 l 1
 674 510 l 1
 674 542 l 1
 890 542 l 1
 890 510 l 1
EndSplineSet
EndChar

StartChar: x.smcp
Encoding: 65577 -1 288
Width: 624
Flags: MW
HStem: 0 20 522 20G<30 304 304 304 379 588 588 588>
VStem: 30 274<510 542 510 542> 330 279<0 32>
LayerCount: 2
Fore
SplineSet
609 0 m 1
 331 0 l 1
 330 32 l 1
 390 63 l 1
 283 218 l 1
 168 63 l 1
 232 32 l 1
 232 0 l 1
 15 0 l 1
 15 32 l 1
 89 67 l 1
 249 268 l 1
 104 475 l 1
 30 510 l 1
 30 542 l 1
 304 542 l 1
 304 510 l 1
 247 479 l 1
 340 344 l 1
 436 479 l 1
 379 510 l 1
 379 542 l 1
 588 542 l 1
 588 510 l 1
 513 475 l 1
 372 300 l 1
 534 67 l 1
 609 32 l 1
 609 0 l 1
EndSplineSet
EndChar

StartChar: y.smcp
Encoding: 65578 -1 289
Width: 570
Flags: MW
HStem: 0 20 522 20G<-8 270 270 270 372 578 578 578>
VStem: 222 129<66 248 248 248> 371 206
LayerCount: 2
Fore
SplineSet
578 511 m 1
 504 479 l 1
 351 270 l 1
 351 66 l 1
 448 32 l 1
 448 0 l 1
 125 0 l 1
 125 32 l 1
 222 66 l 1
 222 248 l 1
 66 479 l 1
 -8 511 l 1
 -8 542 l 1
 270 542 l 1
 270 511 l 1
 210 482 l 1
 322 314 l 1
 430 482 l 1
 372 511 l 1
 372 542 l 1
 578 542 l 1
 578 511 l 1
EndSplineSet
EndChar

StartChar: z.smcp
Encoding: 65579 -1 290
Width: 548
Flags: MW
HStem: 0 54<196 404 196 488> 491 51<159 345 159 159>
LayerCount: 2
Fore
SplineSet
503 164 m 1
 488 0 l 1
 42 0 l 1
 42 45 l 1
 345 491 l 1
 159 491 l 1
 114 387 l 1
 71 387 l 1
 71 542 l 1
 500 542 l 1
 500 499 l 1
 196 54 l 1
 404 54 l 1
 460 164 l 1
 503 164 l 1
EndSplineSet
EndChar

StartChar: aacute.smcp
Encoding: 65580 -1 291
Width: 615
Flags: MW
HStem: 0 20 185 48<201 353 201 369 182 353>
VStem: -8 204<0 35 0 35> 350 272<0 35 0 35>
LayerCount: 2
Fore
SplineSet
622 0 m 1
 350 0 l 1
 350 35 l 1
 413 66 l 1
 369 185 l 1
 182 185 l 1
 132 65 l 1
 196 35 l 1
 196 0 l 1
 -8 0 l 1
 -8 35 l 1
 62 67 l 1
 285 548 l 1
 355 548 l 1
 552 67 l 1
 622 35 l 1
 622 0 l 1
353 233 m 1
 341 265 293 392 282 424 c 1
 201 233 l 1
 353 233 l 1
510 755 m 1
 295 599 l 1
 224 599 l 1
 347 755 l 1
 510 755 l 1
EndSplineSet
EndChar

StartChar: agrave.smcp
Encoding: 65581 -1 292
Width: 615
Flags: MW
HStem: 0 20 185 48<201 353 201 369 182 353>
VStem: -8 204<0 35 0 35> 350 272<0 35 0 35>
LayerCount: 2
Fore
SplineSet
441 600 m 1
 371 599 l 1
 155 755 l 1
 318 755 l 1
 441 600 l 1
622 0 m 1
 350 0 l 1
 350 35 l 1
 413 66 l 1
 369 185 l 1
 182 185 l 1
 132 65 l 1
 196 35 l 1
 196 0 l 1
 -8 0 l 1
 -8 35 l 1
 62 67 l 1
 285 548 l 1
 355 548 l 1
 552 67 l 1
 622 35 l 1
 622 0 l 1
353 233 m 1
 341 265 293 392 282 424 c 1
 201 233 l 1
 353 233 l 1
EndSplineSet
EndChar

StartChar: acircumflex.smcp
Encoding: 65582 -1 293
Width: 615
Flags: MW
HStem: 0 20 185 48<201 353 201 369 182 353>
VStem: -8 204<0 35 0 35> 350 272<0 35 0 35>
LayerCount: 2
Fore
SplineSet
500 594 m 1
 417 594 l 1
 316 660 l 1
 219 594 l 1
 135 594 l 1
 316 772 l 1
 500 594 l 1
622 0 m 1
 350 0 l 1
 350 35 l 1
 413 66 l 1
 369 185 l 1
 182 185 l 1
 132 65 l 1
 196 35 l 1
 196 0 l 1
 -8 0 l 1
 -8 35 l 1
 62 67 l 1
 285 548 l 1
 355 548 l 1
 552 67 l 1
 622 35 l 1
 622 0 l 1
353 233 m 1
 341 265 293 392 282 424 c 1
 201 233 l 1
 353 233 l 1
EndSplineSet
EndChar

StartChar: adieresis.smcp
Encoding: 65583 -1 294
Width: 615
Flags: MW
HStem: 0 20 185 48<201 353 201 369 182 353> 613 114<194.5 234.5 194.5 235 400.5 440>
VStem: 152 124 358 124<653 687.5>
LayerCount: 2
Fore
SplineSet
622 0 m 1
 350 0 l 1
 350 35 l 1
 413 66 l 1
 369 185 l 1
 182 185 l 1
 132 65 l 1
 196 35 l 1
 196 0 l 1
 -8 0 l 1
 -8 35 l 1
 62 67 l 1
 285 548 l 1
 355 548 l 1
 552 67 l 1
 622 35 l 1
 622 0 l 1
353 233 m 1
 341 265 293 392 282 424 c 1
 201 233 l 1
 353 233 l 1
277 670 m 0
 277 633 255 613 215 613 c 0
 173 613 153 631 153 668 c 0
 153 705 174 727 215 727 c 0
 254 727 277 706 277 670 c 0
482 672 m 0
 482 634 460 613 420 613 c 0
 380 613 358 633 358 669 c 0
 358 706 380 727 421 727 c 0
 460 727 482 707 482 672 c 0
EndSplineSet
EndChar

StartChar: atilde.smcp
Encoding: 65584 -1 295
Width: 615
Flags: MW
HStem: 0 20 185 48<201 353 201 369 182 353> 670 78
VStem: -8 204<0 35 0 35> 350 272<0 35 0 35>
LayerCount: 2
Fore
SplineSet
506 706 m 1
 486 680 454 645 431 627 c 0
 418 616 402 613 390 613 c 0
 380 613 368 613 340 626 c 2
 273 658 l 2
 263 663 248 670 241 670 c 0
 229 670 213 657 173 619 c 1
 140 654 l 1
 159 680 192 715 215 733 c 0
 228 744 243 747 255 747 c 0
 265 747 278 747 305 734 c 2
 372 702 l 2
 383 697 398 690 405 690 c 0
 417 690 428 699 472 741 c 1
 506 706 l 1
622 0 m 1
 350 0 l 1
 350 35 l 1
 413 66 l 1
 369 185 l 1
 182 185 l 1
 132 65 l 1
 196 35 l 1
 196 0 l 1
 -8 0 l 1
 -8 35 l 1
 62 67 l 1
 285 548 l 1
 355 548 l 1
 552 67 l 1
 622 35 l 1
 622 0 l 1
353 233 m 1
 341 265 293 392 282 424 c 1
 201 233 l 1
 353 233 l 1
EndSplineSet
EndChar

StartChar: aring.smcp
Encoding: 65585 -1 296
Width: 615
Flags: MW
HStem: 0 20 185 48<201 353 201 369 182 353> 597 38 733 38
VStem: 191 70<668.5 699 668.5 714> 379 70
LayerCount: 2
Fore
SplineSet
622 0 m 1
 350 0 l 1
 350 35 l 1
 413 66 l 1
 369 185 l 1
 182 185 l 1
 132 65 l 1
 196 35 l 1
 196 0 l 1
 -8 0 l 1
 -8 35 l 1
 62 67 l 1
 285 548 l 1
 355 548 l 1
 552 67 l 1
 622 35 l 1
 622 0 l 1
353 233 m 1
 341 265 293 392 282 424 c 1
 201 233 l 1
 353 233 l 1
450 686 m 0
 450 627 407 597 321 597 c 0
 234 597 191 626 191 685 c 0
 191 743 234 771 321 771 c 0
 407 771 450 743 450 686 c 0
380 683 m 0
 380 714 355 734 320 734 c 0
 286 734 261 714 261 684 c 0
 261 653 285 634 320 634 c 0
 355 634 380 653 380 683 c 0
EndSplineSet
EndChar

StartChar: ccedilla.smcp
Encoding: 65586 -1 297
Width: 581
Flags: MW
HStem: -6 53<315 394.5> 503 49
VStem: 40 139<175 346 175 357> 354 102<-132 -102.5>
LayerCount: 2
Fore
SplineSet
456 -112 m 0
 456 -182 364 -220 281 -245 c 1
 267 -209 l 1
 329 -176 354 -149 354 -115 c 0
 354 -90 340 -76 315 -72 c 1
 315 -6 l 1
 151 -1 40 86 40 259 c 0
 40 455 177 552 361 552 c 0
 420 552 474 541 529 530 c 1
 529 388 l 1
 485 388 l 1
 439 500 l 1
 419 501 405 502 392 502 c 0
 249 502 179 423 179 269 c 0
 179 81 295 47 387 47 c 0
 402 47 417 49 438 52 c 1
 492 162 l 1
 536 162 l 1
 524 21 l 1
 513 17 476 9 456 5 c 0
 427 0 400 -4 374 -5 c 1
 374 -32 l 1
 420 -39 456 -62 456 -112 c 0
EndSplineSet
EndChar

StartChar: eacute.smcp
Encoding: 65587 -1 298
Width: 560
Flags: MW
HStem: 0 51<253 419 253 499> 251 48<253 381 253 381> 494 48<253 413 253 253>
VStem: 123 129
LayerCount: 2
Fore
SplineSet
512 139 m 1
 499 0 l 1
 40 0 l 1
 40 32 l 1
 123 66 l 1
 123 477 l 1
 40 510 l 1
 40 542 l 1
 496 542 l 1
 496 408 l 1
 457 408 l 1
 413 494 l 1
 253 494 l 1
 253 299 l 1
 381 299 l 1
 414 366 l 1
 454 366 l 1
 454 186 l 1
 414 186 l 1
 381 251 l 1
 253 251 l 1
 253 51 l 1
 419 51 l 1
 472 139 l 1
 512 139 l 1
496 755 m 1
 281 599 l 1
 211 599 l 1
 333 755 l 1
 496 755 l 1
EndSplineSet
EndChar

StartChar: egrave.smcp
Encoding: 65588 -1 299
Width: 560
Flags: MW
HStem: 0 51<253 419 253 499> 251 48<253 381 253 381> 494 48<253 413 253 253>
VStem: 123 129
LayerCount: 2
Fore
SplineSet
388 600 m 1
 318 599 l 1
 102 755 l 1
 265 755 l 1
 388 600 l 1
512 139 m 1
 499 0 l 1
 40 0 l 1
 40 32 l 1
 123 66 l 1
 123 477 l 1
 40 510 l 1
 40 542 l 1
 496 542 l 1
 496 408 l 1
 457 408 l 1
 413 494 l 1
 253 494 l 1
 253 299 l 1
 381 299 l 1
 414 366 l 1
 454 366 l 1
 454 186 l 1
 414 186 l 1
 381 251 l 1
 253 251 l 1
 253 51 l 1
 419 51 l 1
 472 139 l 1
 512 139 l 1
EndSplineSet
EndChar

StartChar: ecircumflex.smcp
Encoding: 65589 -1 300
Width: 560
Flags: MW
HStem: 0 51<253 419 253 499> 251 48<253 381 253 381> 494 48<253 413 253 253>
VStem: 123 129
LayerCount: 2
Fore
SplineSet
512 139 m 1
 499 0 l 1
 40 0 l 1
 40 32 l 1
 123 66 l 1
 123 477 l 1
 40 510 l 1
 40 542 l 1
 496 542 l 1
 496 408 l 1
 457 408 l 1
 413 494 l 1
 253 494 l 1
 253 299 l 1
 381 299 l 1
 414 366 l 1
 454 366 l 1
 454 186 l 1
 414 186 l 1
 381 251 l 1
 253 251 l 1
 253 51 l 1
 419 51 l 1
 472 139 l 1
 512 139 l 1
473 594 m 1
 390 594 l 1
 289 660 l 1
 192 594 l 1
 108 594 l 1
 289 772 l 1
 473 594 l 1
EndSplineSet
EndChar

StartChar: edieresis.smcp
Encoding: 65590 -1 301
Width: 560
Flags: MW
HStem: 0 51<253 419 253 499> 251 48<253 381 253 381> 494 48<253 413 253 253> 613 114<169.5 209.5 169.5 210 375.5 415>
VStem: 123 129 333 124<653 687.5>
LayerCount: 2
Fore
SplineSet
512 139 m 1
 499 0 l 1
 40 0 l 1
 40 32 l 1
 123 66 l 1
 123 477 l 1
 40 510 l 1
 40 542 l 1
 496 542 l 1
 496 408 l 1
 457 408 l 1
 413 494 l 1
 253 494 l 1
 253 299 l 1
 381 299 l 1
 414 366 l 1
 454 366 l 1
 454 186 l 1
 414 186 l 1
 381 251 l 1
 253 251 l 1
 253 51 l 1
 419 51 l 1
 472 139 l 1
 512 139 l 1
252 670 m 0
 252 633 230 613 190 613 c 0
 148 613 128 631 128 668 c 0
 128 705 149 727 190 727 c 0
 229 727 252 706 252 670 c 0
457 672 m 0
 457 634 435 613 395 613 c 0
 355 613 333 633 333 669 c 0
 333 706 355 727 396 727 c 0
 435 727 457 707 457 672 c 0
EndSplineSet
EndChar

StartChar: iacute.smcp
Encoding: 65591 -1 302
Width: 376
Flags: MW
HStem: 0 20
VStem: 123 129
LayerCount: 2
Fore
SplineSet
336 0 m 1
 40 0 l 1
 40 32 l 1
 123 66 l 1
 123 476 l 1
 40 510 l 1
 40 542 l 1
 336 542 l 1
 336 510 l 1
 253 476 l 1
 253 66 l 1
 336 32 l 1
 336 0 l 1
359 755 m 1
 144 599 l 1
 74 599 l 1
 196 755 l 1
 359 755 l 1
EndSplineSet
EndChar

StartChar: igrave.smcp
Encoding: 65592 -1 303
Width: 376
Flags: MW
HStem: 0 20
VStem: 123 129
LayerCount: 2
Fore
SplineSet
336 0 m 1
 40 0 l 1
 40 32 l 1
 123 66 l 1
 123 476 l 1
 40 510 l 1
 40 542 l 1
 336 542 l 1
 336 510 l 1
 253 476 l 1
 253 66 l 1
 336 32 l 1
 336 0 l 1
292 600 m 1
 222 599 l 1
 6 755 l 1
 169 755 l 1
 292 600 l 1
EndSplineSet
EndChar

StartChar: icircumflex.smcp
Encoding: 65593 -1 304
Width: 376
Flags: MW
HStem: 0 20
VStem: 123 129
LayerCount: 2
Fore
SplineSet
336 0 m 1
 40 0 l 1
 40 32 l 1
 123 66 l 1
 123 476 l 1
 40 510 l 1
 40 542 l 1
 336 542 l 1
 336 510 l 1
 253 476 l 1
 253 66 l 1
 336 32 l 1
 336 0 l 1
372 594 m 1
 289 594 l 1
 188 660 l 1
 91 594 l 1
 7 594 l 1
 188 772 l 1
 372 594 l 1
EndSplineSet
EndChar

StartChar: idieresis.smcp
Encoding: 65594 -1 305
Width: 376
Flags: MW
HStem: 0 20 613 114<64 103.5 64 104 270 309.5>
VStem: 123 129
LayerCount: 2
Fore
SplineSet
336 0 m 1
 40 0 l 1
 40 32 l 1
 123 66 l 1
 123 476 l 1
 40 510 l 1
 40 542 l 1
 336 542 l 1
 336 510 l 1
 253 476 l 1
 253 66 l 1
 336 32 l 1
 336 0 l 1
352 672 m 0
 352 634 330 613 289 613 c 0
 249 613 228 633 228 669 c 0
 228 706 250 727 290 727 c 0
 329 727 352 707 352 672 c 0
146 669 m 2
 146 670 l 2
 146 633 124 613 84 613 c 0
 43 613 22 631 22 668 c 0
 22 705 44 727 84 727 c 0
 123 727 146 706 146 669 c 2
EndSplineSet
EndChar

StartChar: ntilde.smcp
Encoding: 65595 -1 306
Width: 698
Flags: MW
HStem: -7 20
VStem: 123 68<65 402 65 476> 514 68
LayerCount: 2
Fore
SplineSet
531 706 m 1
 512 680 479 645 456 627 c 0
 443 616 428 613 416 613 c 0
 406 613 393 613 366 626 c 2
 299 658 l 2
 288 663 273 670 266 670 c 0
 254 670 239 657 199 619 c 1
 165 654 l 1
 185 680 217 715 240 733 c 0
 253 744 269 747 281 747 c 0
 291 747 303 747 331 734 c 2
 398 702 l 2
 408 697 423 690 430 690 c 0
 442 690 454 699 498 741 c 1
 531 706 l 1
665 510 m 1
 582 476 l 1
 582 -7 l 1
 521 -7 l 1
 191 402 l 1
 191 65 l 1
 272 31 l 1
 272 0 l 1
 40 0 l 1
 40 32 l 1
 123 65 l 1
 123 476 l 1
 40 510 l 1
 40 542 l 1
 227 542 l 1
 513 189 l 1
 513 476 l 1
 432 510 l 1
 432 542 l 1
 665 542 l 1
 665 510 l 1
EndSplineSet
EndChar

StartChar: oacute.smcp
Encoding: 65596 -1 307
Width: 662
Flags: MW
HStem: -11 51<286 381 286 407> 502 50<277 381.5>
VStem: 40 139<196.5 340 196.5 348.5> 482 140<202 333.5>
LayerCount: 2
Fore
SplineSet
622 281 m 0
 622 99 496 -11 318 -11 c 0
 153 -11 40 97 40 255 c 0
 40 442 168 552 339 552 c 0
 509 552 622 444 622 281 c 0
482 268 m 0
 482 399 434 502 329 502 c 0
 225 502 179 405 179 275 c 0
 179 118 241 40 331 40 c 0
 431 40 482 136 482 268 c 0
527 755 m 1
 312 599 l 1
 241 599 l 1
 364 755 l 1
 527 755 l 1
EndSplineSet
EndChar

StartChar: ograve.smcp
Encoding: 65597 -1 308
Width: 662
Flags: MW
HStem: -11 51<286 381 286 407> 502 50<277 381.5>
VStem: 40 139<196.5 340 196.5 348.5> 482 140<202 333.5>
LayerCount: 2
Fore
SplineSet
430 600 m 1
 361 599 l 1
 145 755 l 1
 308 755 l 1
 430 600 l 1
622 281 m 0
 622 99 496 -11 318 -11 c 0
 153 -11 40 97 40 255 c 0
 40 442 168 552 339 552 c 0
 509 552 622 444 622 281 c 0
482 268 m 0
 482 399 434 502 329 502 c 0
 225 502 179 405 179 275 c 0
 179 118 241 40 331 40 c 0
 431 40 482 136 482 268 c 0
EndSplineSet
EndChar

StartChar: ocircumflex.smcp
Encoding: 65598 -1 309
Width: 662
Flags: MW
HStem: -11 51<286 381 286 407> 502 50<277 381.5>
VStem: 40 139<196.5 340 196.5 348.5> 482 140<202 333.5>
LayerCount: 2
Fore
SplineSet
522 594 m 1
 439 594 l 1
 338 660 l 1
 241 594 l 1
 157 594 l 1
 338 772 l 1
 522 594 l 1
622 281 m 0
 622 99 496 -11 318 -11 c 0
 153 -11 40 97 40 255 c 0
 40 442 168 552 339 552 c 0
 509 552 622 444 622 281 c 0
482 268 m 0
 482 399 434 502 329 502 c 0
 225 502 179 405 179 275 c 0
 179 118 241 40 331 40 c 0
 431 40 482 136 482 268 c 0
EndSplineSet
EndChar

StartChar: odieresis.smcp
Encoding: 65599 -1 310
Width: 662
Flags: MW
HStem: -11 51<286 381 286 407> 502 50<277 381.5> 613 114<214.5 254.5 214.5 255 420.5 460>
VStem: 40 139<196.5 340 196.5 348.5> 482 140<202 333.5>
LayerCount: 2
Fore
SplineSet
622 281 m 0
 622 99 496 -11 318 -11 c 0
 153 -11 40 97 40 255 c 0
 40 442 168 552 339 552 c 0
 509 552 622 444 622 281 c 0
482 268 m 0
 482 399 434 502 329 502 c 0
 225 502 179 405 179 275 c 0
 179 118 241 40 331 40 c 0
 431 40 482 136 482 268 c 0
297 670 m 0
 297 633 275 613 235 613 c 0
 193 613 173 631 173 668 c 0
 173 705 194 727 235 727 c 0
 274 727 297 706 297 670 c 0
502 672 m 0
 502 634 480 613 440 613 c 0
 400 613 378 633 378 669 c 0
 378 706 400 727 441 727 c 0
 480 727 502 707 502 672 c 0
EndSplineSet
EndChar

StartChar: otilde.smcp
Encoding: 65600 -1 311
Width: 662
Flags: MW
HStem: -11 51<286 381 286 407> 502 50<277 381.5> 613 78
VStem: 40 139<196.5 340 196.5 348.5> 482 140<202 333.5>
LayerCount: 2
Fore
SplineSet
517 706 m 1
 497 680 464 645 442 627 c 0
 429 616 413 613 401 613 c 0
 391 613 379 613 351 626 c 2
 284 658 l 2
 274 663 259 670 252 670 c 0
 240 670 224 657 184 619 c 1
 151 654 l 1
 170 680 203 715 226 733 c 0
 238 744 254 747 266 747 c 0
 276 747 288 747 316 734 c 2
 383 702 l 2
 393 697 409 690 416 690 c 0
 428 690 439 699 483 741 c 1
 517 706 l 1
622 281 m 0
 622 99 496 -11 318 -11 c 0
 153 -11 40 97 40 255 c 0
 40 442 168 552 339 552 c 0
 509 552 622 444 622 281 c 0
482 268 m 0
 482 399 434 502 329 502 c 0
 225 502 179 405 179 275 c 0
 179 118 241 40 331 40 c 0
 431 40 482 136 482 268 c 0
EndSplineSet
EndChar

StartChar: uacute.smcp
Encoding: 65601 -1 312
Width: 679
Flags: MW
HStem: -11 53<315.5 403 315.5 407.5>
VStem: 108 129 494 77<172 188 188 476>
LayerCount: 2
Fore
SplineSet
654 510 m 1
 571 476 l 1
 571 188 l 2
 571 41 477 -11 338 -11 c 0
 202 -11 108 37 108 166 c 2
 108 479 l 1
 25 510 l 1
 25 542 l 1
 319 542 l 1
 319 510 l 1
 238 476 l 1
 238 169 l 2
 238 88 273 42 358 42 c 0
 448 42 494 88 494 172 c 2
 494 476 l 1
 412 510 l 1
 412 542 l 1
 654 542 l 1
 654 510 l 1
542 750 m 1
 327 594 l 1
 256 594 l 1
 379 750 l 1
 542 750 l 1
EndSplineSet
EndChar

StartChar: ugrave.smcp
Encoding: 65602 -1 313
Width: 679
Flags: MW
HStem: -11 53<315.5 403 315.5 407.5>
VStem: 108 129 494 77<172 188 188 476>
LayerCount: 2
Fore
SplineSet
440 595 m 1
 371 594 l 1
 155 750 l 1
 318 750 l 1
 440 595 l 1
654 510 m 1
 571 476 l 1
 571 188 l 2
 571 41 477 -11 338 -11 c 0
 202 -11 108 37 108 166 c 2
 108 479 l 1
 25 510 l 1
 25 542 l 1
 319 542 l 1
 319 510 l 1
 238 476 l 1
 238 169 l 2
 238 88 273 42 358 42 c 0
 448 42 494 88 494 172 c 2
 494 476 l 1
 412 510 l 1
 412 542 l 1
 654 542 l 1
 654 510 l 1
EndSplineSet
EndChar

StartChar: ucircumflex.smcp
Encoding: 65603 -1 314
Width: 679
Flags: MW
HStem: -11 53<315.5 403 315.5 407.5>
VStem: 108 129 494 77<172 188 188 476>
LayerCount: 2
Fore
SplineSet
530 589 m 1
 446 589 l 1
 346 655 l 1
 248 589 l 1
 165 589 l 1
 346 767 l 1
 530 589 l 1
654 510 m 1
 571 476 l 1
 571 188 l 2
 571 41 477 -11 338 -11 c 0
 202 -11 108 37 108 166 c 2
 108 479 l 1
 25 510 l 1
 25 542 l 1
 319 542 l 1
 319 510 l 1
 238 476 l 1
 238 169 l 2
 238 88 273 42 358 42 c 0
 448 42 494 88 494 172 c 2
 494 476 l 1
 412 510 l 1
 412 542 l 1
 654 542 l 1
 654 510 l 1
EndSplineSet
EndChar

StartChar: udieresis.smcp
Encoding: 65604 -1 315
Width: 679
Flags: MW
HStem: -11 53<315.5 403 315.5 407.5> 608 114<233 272.5 233 273 439 478.5>
VStem: 108 129 397 124<648 682.5>
LayerCount: 2
Fore
SplineSet
654 510 m 1
 571 476 l 1
 571 188 l 2
 571 41 477 -11 338 -11 c 0
 202 -11 108 37 108 166 c 2
 108 479 l 1
 25 510 l 1
 25 542 l 1
 319 542 l 1
 319 510 l 1
 238 476 l 1
 238 169 l 2
 238 88 273 42 358 42 c 0
 448 42 494 88 494 172 c 2
 494 476 l 1
 412 510 l 1
 412 542 l 1
 654 542 l 1
 654 510 l 1
315 665 m 0
 315 628 293 608 253 608 c 0
 212 608 191 626 191 663 c 0
 191 700 213 722 253 722 c 0
 292 722 315 701 315 665 c 0
521 667 m 0
 521 629 499 608 458 608 c 0
 418 608 397 628 397 664 c 0
 397 701 419 722 459 722 c 0
 498 722 521 702 521 667 c 0
EndSplineSet
EndChar

StartChar: germandbls.smcp
Encoding: 65605 -1 316
Width: 997
Flags: MW
HStem: -7 51<213.5 238 200 294.5 712 736> 501 51
VStem: 60 115<414.5 451> 314 130 559 115 812 130<99 144.5>
LayerCount: 2
Fore
SplineSet
443 149 m 0
 443 45 348 -7 241 -7 c 0
 186 -7 131 4 58 22 c 1
 58 162 l 1
 101 162 l 1
 148 51 l 1
 177 45 191 44 209 44 c 0
 267 44 314 72 314 126 c 0
 314 163 290 182 248 208 c 2
 165 259 l 2
 110 293 60 327 60 399 c 0
 60 503 149 552 256 552 c 0
 313 552 366 540 422 528 c 1
 422 388 l 1
 379 388 l 1
 333 496 l 1
 308 500 292 500 275 500 c 0
 211 500 175 475 175 432 c 0
 175 397 199 380 247 351 c 2
 335 297 l 2
 394 261 443 230 443 149 c 0
942 149 m 0
 942 45 846 -7 739 -7 c 0
 685 -7 629 4 556 22 c 1
 556 162 l 1
 600 162 l 1
 647 51 l 1
 675 45 690 44 707 44 c 0
 765 44 812 72 812 126 c 0
 812 163 788 182 747 208 c 2
 664 259 l 2
 608 293 558 327 558 399 c 0
 558 503 647 552 754 552 c 0
 811 552 865 540 920 528 c 1
 920 388 l 1
 878 388 l 1
 831 496 l 1
 807 500 790 500 773 500 c 0
 709 500 674 475 674 432 c 0
 674 397 698 380 746 351 c 2
 833 297 l 2
 892 261 942 230 942 149 c 0
EndSplineSet
EndChar

StartChar: ae.smcp
Encoding: 65606 -1 317
Width: 769
Flags: MW
HStem: 0 51<464 630 464 710> 247 48<244 344 244 344 220 344 464 592> 494 48<464 624 464 464>
VStem: -23 214<0 37 0 37> 343 121
LayerCount: 2
Fore
SplineSet
724 139 m 1
 710 0 l 1
 273 0 l 1
 273 37 l 1
 344 65 l 1
 344 247 l 1
 220 247 l 1
 130 64 l 1
 191 37 l 1
 191 0 l 1
 -23 0 l 1
 -23 37 l 1
 48 66 l 1
 303 542 l 1
 708 542 l 1
 708 408 l 1
 668 408 l 1
 624 494 l 1
 464 494 l 1
 464 295 l 1
 592 295 l 1
 626 362 l 1
 666 362 l 1
 666 182 l 1
 626 182 l 1
 593 247 l 1
 464 247 l 1
 464 51 l 1
 630 51 l 1
 684 139 l 1
 724 139 l 1
344 295 m 1
 344 496 l 1
 340 496 l 1
 244 295 l 1
 344 295 l 1
EndSplineSet
EndChar

StartChar: oe.smcp
Encoding: 65607 -1 318
Width: 827
Flags: MW
HStem: -6 47<272 330> 251 48<522 651 522 651> 502 48<262.5 345.5>
VStem: 40 137<219.5 305 219.5 350.5> 394 128
LayerCount: 2
Fore
SplineSet
782 139 m 1
 769 0 l 1
 395 0 l 1
 362 -5 345 -6 315 -6 c 0
 127 -6 40 126 40 264 c 0
 40 437 161 550 343 550 c 0
 370 550 390 548 417 542 c 1
 766 542 l 1
 766 408 l 1
 726 408 l 1
 683 494 l 1
 522 494 l 1
 522 299 l 1
 651 299 l 1
 684 366 l 1
 724 366 l 1
 724 186 l 1
 684 186 l 1
 651 251 l 1
 522 251 l 1
 522 51 l 1
 689 51 l 1
 742 139 l 1
 782 139 l 1
395 49 m 1
 395 487 l 1
 376 497 358 502 333 502 c 0
 192 502 177 332 177 278 c 0
 177 161 210 41 334 41 c 0
 353 41 365 40 395 49 c 1
EndSplineSet
EndChar

StartChar: ydieresis.smcp
Encoding: 65608 -1 319
Width: 570
Flags: MW
HStem: 0 20 607 114<188.5 228.5 188.5 229 394.5 434>
VStem: 227 129<66 247 247 247> 376 206
LayerCount: 2
Fore
SplineSet
583 510 m 1
 509 478 l 1
 356 269 l 1
 356 66 l 1
 453 32 l 1
 453 0 l 1
 130 0 l 1
 130 32 l 1
 227 66 l 1
 227 247 l 1
 71 478 l 1
 -3 510 l 1
 -3 541 l 1
 275 541 l 1
 275 510 l 1
 215 481 l 1
 327 313 l 1
 435 481 l 1
 377 510 l 1
 377 541 l 1
 583 541 l 1
 583 510 l 1
476 666 m 0
 476 628 454 607 414 607 c 0
 374 607 352 627 352 663 c 0
 352 701 374 721 415 721 c 0
 454 721 476 701 476 666 c 0
271 664 m 0
 271 627 249 607 209 607 c 0
 167 607 147 626 147 662 c 0
 147 700 168 721 209 721 c 0
 248 721 271 700 271 664 c 0
EndSplineSet
EndChar

StartChar: fi.smcp
Encoding: 65609 -1 320
Width: 862
Flags: MW
HStem: 250 51<243 363 243 363> 491 51<243 394 243 243>
VStem: 113 129 622 129<66 476 66 476>
LayerCount: 2
Fore
SplineSet
481 406 m 1
 431 406 l 1
 394 491 l 1
 243 491 l 1
 243 301 l 1
 363 301 l 1
 391 371 l 1
 441 371 l 1
 441 181 l 1
 391 181 l 1
 363 250 l 1
 243 250 l 1
 243 66 l 1
 338 37 l 1
 338 0 l 1
 35 0 l 1
 35 37 l 1
 113 66 l 1
 113 477 l 1
 35 505 l 1
 35 542 l 1
 481 542 l 1
 481 406 l 1
829 0 m 1
 543 0 l 1
 543 37 l 1
 622 66 l 1
 622 476 l 1
 543 505 l 1
 543 542 l 1
 829 542 l 1
 829 505 l 1
 751 476 l 1
 751 66 l 1
 829 37 l 1
 829 0 l 1
EndSplineSet
EndChar

